<?xml version="1.0" encoding="utf-8"?>
<!-- Generator: Adobe Illustrator 22.0.1, SVG Export Plug-In . SVG Version: 6.00 Build 0)  -->
<svg version="1.1" id="Layer_1" xmlns="http://www.w3.org/2000/svg" xmlns:xlink="http://www.w3.org/1999/xlink" x="0px" y="0px"
	 viewBox="0 0 237 237" style="enable-background:new 0 0 237 237;" xml:space="preserve">
<style type="text/css">
	.st0{fill:#414141;}
	.st1{fill:#FFFFFF;}
	.st2{fill:#E6E6E6;}
	.st3{fill:#65CCF0;}
	.st4{fill:#D7D7D7;}
	.st5{fill:#B8C2C4;}
	.st6{fill:none;stroke:#30241B;stroke-width:1.0169;stroke-miterlimit:10;}
	.st7{fill:#EC503E;}
	.st8{fill:#3AB0CA;}
	.st9{fill:none;stroke:#30241B;stroke-width:2.5009;stroke-miterlimit:10;stroke-dasharray:0.1288,5.1433;}
</style>
<g>
	<path class="st0" d="M233.3,119.1c0,63.6-51.5,115.1-115.1,115.1C54.6,234.2,3,182.7,3,119.1S54.6,4,118.2,4
		C181.7,4,233.3,55.5,233.3,119.1z"/>
	
		<ellipse transform="matrix(9.587843e-02 -0.9954 0.9954 9.587843e-02 -11.7423 225.305)" class="st1" cx="118.2" cy="119.1" rx="89.4" ry="89.4"/>
	<g>
		<path class="st1" d="M14.3,110.8c0.9,0,1.5,0.4,1.9,1.1c0.4,0.7,0.6,1.7,0.5,3l0,1l2.1,0.1c0.3,0,0.6,0,0.7,0s0.3-0.1,0.4-0.2
			c0.1-0.1,0.2-0.3,0.2-0.5c0-0.2,0.1-0.5,0.1-0.9l0.5,0l-0.2,4.8l-0.5,0c0-0.3,0-0.5,0-0.7c0-0.2-0.1-0.3-0.2-0.4
			c-0.1-0.1-0.2-0.2-0.4-0.2c-0.2,0-0.4-0.1-0.7-0.1l-5.5-0.2c-0.3,0-0.5,0-0.7,0c-0.2,0-0.3,0.1-0.4,0.1c-0.1,0.1-0.2,0.2-0.2,0.3
			c0,0.1-0.1,0.3-0.1,0.6l-0.5,0l0.2-4.1c0.1-1.2,0.3-2.1,0.8-2.7C12.8,111,13.5,110.8,14.3,110.8z M16.1,115.8l0-0.8
			c0-0.8-0.1-1.4-0.4-1.7c-0.3-0.4-0.8-0.6-1.5-0.6c-0.6,0-1.1,0.1-1.4,0.4c-0.3,0.3-0.5,0.8-0.6,1.4l0,0.9c0,0.1,0.1,0.2,0.2,0.2
			L16.1,115.8z"/>
		<path class="st1" d="M16.7,104.5c0.1-0.5,0.1-0.9,0.1-1.2c0-0.3,0-0.6-0.1-0.7c-0.1-0.2-0.2-0.3-0.4-0.4c-0.2-0.1-0.4-0.2-0.7-0.3
			l0.1-0.4l3.5,0.6l-0.1,0.4c-0.3,0-0.6,0-0.8,0.1c-0.2,0-0.4,0.2-0.5,0.3c-0.1,0.2-0.2,0.4-0.3,0.7c-0.1,0.3-0.2,0.7-0.2,1.2
			l2.4,0.4c0.3,0,0.5,0,0.7,0c0.2,0,0.3-0.1,0.5-0.3c0.1-0.1,0.2-0.3,0.3-0.6c0.1-0.3,0.2-0.6,0.2-0.9c0.1-0.5,0.1-0.8,0.1-1.2
			c0-0.3-0.1-0.6-0.2-0.8c-0.1-0.2-0.3-0.4-0.6-0.6c-0.2-0.2-0.6-0.3-1-0.5l0.1-0.5l2.7,0.6l-1.3,8l-0.5-0.1c0-0.3,0-0.5,0-0.7
			c0-0.2-0.1-0.3-0.1-0.4c-0.1-0.1-0.2-0.2-0.4-0.2c-0.2-0.1-0.4-0.1-0.7-0.2l-5.5-0.9c-0.3,0-0.5-0.1-0.7-0.1c-0.2,0-0.3,0-0.4,0.1
			c-0.1,0.1-0.2,0.2-0.3,0.3c-0.1,0.1-0.1,0.3-0.2,0.6l-0.5-0.1l1.2-7.5l2.3,0.3l-0.1,0.5c-0.3,0-0.6,0-0.9,0.1
			c-0.2,0.1-0.4,0.2-0.6,0.3c-0.2,0.2-0.3,0.4-0.4,0.7c-0.1,0.3-0.2,0.6-0.2,1l-0.2,1.3c0,0.2,0,0.3,0,0.4c0,0.1,0.2,0.1,0.4,0.1
			L16.7,104.5z"/>
		<path class="st1" d="M15.7,89.5c0.2-0.7,0.5-1.3,0.9-1.8c0.4-0.5,0.9-1,1.4-1.3c0.5-0.3,1.1-0.5,1.8-0.6c0.6-0.1,1.3,0,1.9,0.2
			c0.6,0.2,1.2,0.5,1.6,0.9c0.5,0.4,0.8,0.9,1.1,1.5c0.3,0.6,0.4,1.2,0.5,1.8c0.1,0.7,0,1.3-0.2,2c-0.2,0.7-0.5,1.3-0.9,1.8
			c-0.4,0.5-0.9,1-1.4,1.3s-1.1,0.5-1.7,0.6s-1.2,0-1.9-0.1c-0.7-0.2-1.2-0.5-1.7-0.9c-0.5-0.4-0.9-0.9-1.2-1.5
			c-0.3-0.6-0.5-1.2-0.5-1.8C15.4,90.9,15.5,90.2,15.7,89.5z M24,92c0.1-0.4,0.2-0.9,0.1-1.3c-0.1-0.4-0.2-0.8-0.5-1.1
			s-0.6-0.7-1-0.9c-0.4-0.3-0.9-0.5-1.5-0.7c-0.6-0.2-1.2-0.3-1.7-0.3c-0.5,0-1,0.1-1.4,0.2c-0.4,0.2-0.8,0.4-1.1,0.7
			c-0.3,0.3-0.5,0.7-0.6,1.1c-0.1,0.5-0.2,0.9-0.1,1.3c0.1,0.4,0.2,0.8,0.5,1.1c0.3,0.4,0.6,0.7,1.1,0.9c0.4,0.3,1,0.5,1.6,0.7
			c0.6,0.2,1.1,0.3,1.6,0.3c0.5,0,0.9-0.1,1.3-0.2c0.4-0.2,0.7-0.4,1-0.7C23.7,92.8,23.9,92.4,24,92z"/>
		<path class="st1" d="M24.2,74.5c0.8,0.3,1.3,0.9,1.4,1.7c0.1,0.8,0,1.8-0.5,3l-0.4,0.9l1.9,0.8c0.3,0.1,0.5,0.2,0.7,0.2
			c0.2,0,0.4,0,0.5-0.1c0.1-0.1,0.3-0.2,0.4-0.4c0.1-0.2,0.3-0.5,0.4-0.8l0.4,0.2l-1.9,4.4l-0.4-0.2c0.1-0.2,0.2-0.5,0.2-0.6
			c0-0.2,0-0.3,0-0.4c-0.1-0.1-0.2-0.2-0.3-0.3c-0.1-0.1-0.4-0.2-0.6-0.3l-5.1-2.2c-0.3-0.1-0.5-0.2-0.6-0.2c-0.2,0-0.3,0-0.4,0
			c-0.1,0-0.2,0.1-0.3,0.2c-0.1,0.1-0.2,0.3-0.3,0.5l-0.4-0.2l1.7-3.8c0.5-1.1,1-1.9,1.7-2.3S23.5,74.2,24.2,74.5z M24,79.8l0.3-0.7
			c0.3-0.7,0.4-1.3,0.2-1.8c-0.1-0.5-0.5-0.8-1.1-1.1c-0.6-0.2-1-0.3-1.5-0.1c-0.4,0.1-0.8,0.5-1,1.1l-0.4,0.8
			c-0.1,0.1,0,0.2,0.1,0.3L24,79.8z"/>
		<path class="st1" d="M35.7,67.5l-4.1,7.2l-0.4-0.2c0.1-0.2,0.2-0.4,0.3-0.6c0-0.2,0.1-0.3,0-0.4c0-0.1-0.1-0.2-0.3-0.4
			c-0.1-0.1-0.3-0.2-0.6-0.4l-4.8-2.8c-0.2-0.1-0.4-0.2-0.6-0.3c-0.2-0.1-0.3-0.1-0.4-0.1c-0.1,0-0.2,0.1-0.3,0.2
			c-0.1,0.1-0.2,0.3-0.4,0.5L23.7,70l2.1-3.6l0.4,0.2c-0.1,0.2-0.2,0.4-0.3,0.6c0,0.2,0,0.3,0,0.4c0,0.1,0.1,0.2,0.3,0.4
			c0.1,0.1,0.3,0.2,0.6,0.4l4.4,2.5c0.3,0.2,0.5,0.3,0.8,0.3c0.2,0,0.4,0,0.6-0.1c0.2-0.1,0.4-0.2,0.5-0.5s0.4-0.5,0.6-0.9
			c0.2-0.4,0.4-0.8,0.5-1.1c0.1-0.3,0.1-0.6,0.1-0.8c0-0.3-0.1-0.5-0.3-0.8c-0.2-0.2-0.4-0.5-0.7-0.8l0.2-0.4L35.7,67.5z"/>
		<path class="st1" d="M35,59.6c0.3-0.4,0.5-0.8,0.7-1c0.2-0.3,0.3-0.5,0.3-0.7c0-0.2,0-0.4-0.1-0.6c-0.1-0.2-0.3-0.4-0.5-0.6
			l0.3-0.4l2.8,2.1l-0.3,0.4c-0.3-0.2-0.5-0.3-0.7-0.3c-0.2,0-0.4,0-0.6,0c-0.2,0.1-0.4,0.2-0.6,0.5c-0.2,0.2-0.5,0.5-0.8,0.9l2,1.5
			c0.2,0.2,0.4,0.3,0.6,0.3c0.2,0,0.4,0,0.5,0c0.2-0.1,0.4-0.2,0.6-0.4c0.2-0.2,0.4-0.4,0.6-0.7c0.3-0.4,0.5-0.7,0.6-1
			c0.1-0.3,0.2-0.6,0.2-0.8c0-0.3-0.1-0.5-0.2-0.8c-0.1-0.3-0.3-0.6-0.6-0.9l0.3-0.4l2.1,1.8l-4.8,6.5L37,64.8
			c0.2-0.2,0.3-0.4,0.3-0.6c0.1-0.2,0.1-0.3,0.1-0.4c0-0.1-0.1-0.3-0.2-0.4c-0.1-0.1-0.3-0.3-0.5-0.4l-4.5-3.3
			c-0.2-0.2-0.4-0.3-0.6-0.4c-0.2-0.1-0.3-0.1-0.4-0.1c-0.1,0-0.2,0.1-0.4,0.2c-0.1,0.1-0.3,0.2-0.4,0.4L30,59.5l4.5-6.1l1.9,1.3
			l-0.3,0.4c-0.3-0.2-0.6-0.3-0.8-0.3c-0.2,0-0.5,0-0.7,0c-0.2,0.1-0.4,0.2-0.6,0.4c-0.2,0.2-0.4,0.5-0.7,0.8l-0.8,1.1
			c-0.1,0.2-0.2,0.3-0.2,0.4c0,0.1,0.1,0.2,0.3,0.3L35,59.6z"/>
		<path class="st1" d="M51,49l-3,3l-0.3-0.3c0.2-0.2,0.3-0.4,0.4-0.5c0.1-0.1,0.1-0.3,0.1-0.4c0-0.1-0.1-0.3-0.2-0.5
			c-0.1-0.2-0.3-0.4-0.6-0.7l-3.4-3.4c-0.2-0.2-0.4-0.4-0.6-0.6c-0.2-0.1-0.3-0.2-0.5-0.3c-0.1,0-0.3,0-0.4,0.1
			c-0.1,0.1-0.3,0.2-0.5,0.3l-0.3-0.3l2.9-2.9l0.3,0.3c-0.2,0.2-0.3,0.4-0.3,0.5c-0.1,0.1-0.1,0.3-0.1,0.4c0,0.1,0.1,0.3,0.3,0.5
			c0.1,0.2,0.3,0.4,0.6,0.6l3.4,3.4c0.3,0.3,0.5,0.5,0.7,0.6c0.2,0.1,0.3,0.2,0.5,0.2c0.2,0,0.3,0,0.4-0.1c0.1-0.1,0.3-0.2,0.5-0.4
			L51,49z"/>
		<path class="st1" d="M59.2,42.2l-8.9-2.6l0,0l3.2,4c0.3,0.3,0.5,0.5,0.6,0.7c0.2,0.2,0.3,0.3,0.5,0.3c0.2,0,0.3,0,0.5,0
			c0.2-0.1,0.3-0.2,0.5-0.3l0.3,0.4l-2.8,2.2l-0.3-0.4c0.2-0.2,0.4-0.4,0.5-0.5c0.1-0.1,0.2-0.3,0.2-0.5c0-0.2-0.1-0.3-0.2-0.5
			c-0.1-0.2-0.3-0.4-0.5-0.7l-3-3.8c-0.2-0.3-0.4-0.5-0.6-0.6c-0.2-0.2-0.3-0.2-0.5-0.3c-0.1,0-0.3,0-0.5,0
			c-0.2,0.1-0.4,0.2-0.6,0.3l-0.3-0.4l2.6-2.1l8.1,2.4l0,0l-2.9-3.6c-0.2-0.3-0.5-0.5-0.6-0.7c-0.2-0.2-0.3-0.3-0.5-0.3
			c-0.2,0-0.3,0-0.5,0c-0.2,0.1-0.3,0.2-0.5,0.3l-0.3-0.4l2.8-2.2l0.3,0.4c-0.2,0.2-0.4,0.4-0.5,0.5c-0.1,0.1-0.2,0.3-0.2,0.5
			c0,0.2,0.1,0.3,0.2,0.5s0.3,0.4,0.5,0.7l4.5,5.6L59.2,42.2z"/>
		<path class="st1" d="M62.3,36l0.4-0.2c0.5,0.6,1.1,0.9,1.7,1c0.7,0.1,1.3,0,1.9-0.4c0.3-0.2,0.5-0.3,0.6-0.5
			c0.2-0.2,0.3-0.4,0.4-0.6c0.1-0.2,0.1-0.4,0.1-0.6c0-0.2-0.1-0.4-0.2-0.6c-0.1-0.2-0.2-0.3-0.3-0.4c-0.1-0.1-0.3-0.1-0.5-0.2
			c-0.2,0-0.5,0-0.8,0c-0.3,0-0.7,0.1-1.2,0.2c-1,0.2-1.8,0.2-2.4,0c-0.6-0.2-1.1-0.5-1.5-1.1c-0.2-0.3-0.3-0.6-0.4-1
			c0-0.3,0-0.7,0.1-1s0.3-0.6,0.5-0.9c0.2-0.3,0.6-0.6,0.9-0.8c0.3-0.2,0.7-0.4,1.1-0.4c0.4-0.1,0.8-0.1,1.2-0.1l-0.1-0.6l0.2-0.2
			l1.5,2.1l-0.4,0.2c-0.5-0.5-1-0.7-1.6-0.8c-0.5-0.1-1,0-1.5,0.3c-0.4,0.3-0.7,0.6-0.8,0.9c-0.1,0.4-0.1,0.7,0.1,1
			c0.1,0.1,0.2,0.3,0.3,0.3S62,32,62.2,32c0.2,0,0.4,0,0.7,0c0.3,0,0.7-0.1,1.1-0.2c0.6-0.1,1.1-0.2,1.6-0.2c0.5,0,0.9,0,1.2,0.1
			c0.3,0.1,0.6,0.2,0.9,0.4c0.2,0.2,0.5,0.4,0.6,0.7c0.2,0.3,0.3,0.7,0.4,1.1c0,0.4,0,0.8-0.2,1.1c-0.1,0.4-0.4,0.7-0.7,1.1
			c-0.3,0.3-0.7,0.7-1.1,0.9c-0.4,0.3-0.8,0.4-1.2,0.5c-0.4,0.1-0.8,0.1-1.3,0.1l0.2,0.7l-0.2,0.2L62.3,36z"/>
		<path class="st1" d="M76.3,31.6l-3.8,1.9l-0.2-0.4c0.2-0.1,0.4-0.2,0.5-0.4c0.1-0.1,0.2-0.2,0.2-0.4c0-0.1,0-0.3-0.1-0.5
			c-0.1-0.2-0.2-0.5-0.4-0.8l-2.2-4.3c-0.2-0.3-0.3-0.5-0.4-0.7c-0.1-0.2-0.3-0.3-0.4-0.4c-0.1-0.1-0.3-0.1-0.4-0.1
			c-0.2,0-0.3,0.1-0.6,0.2l-0.2-0.4l3.6-1.8l0.2,0.4c-0.2,0.1-0.4,0.2-0.5,0.4c-0.1,0.1-0.2,0.2-0.2,0.4s0,0.3,0.1,0.5
			c0.1,0.2,0.2,0.5,0.3,0.8l2.2,4.3c0.2,0.3,0.3,0.6,0.4,0.8c0.1,0.2,0.3,0.3,0.4,0.4s0.3,0.1,0.5,0c0.2,0,0.4-0.1,0.6-0.2
			L76.3,31.6z"/>
		<path class="st1" d="M83.5,28.7c-0.7,0.3-1.3,0.4-1.9,0.4c-0.6,0-1.2-0.1-1.7-0.3c-0.5-0.2-1-0.6-1.4-1c-0.4-0.4-0.7-1-1-1.7
			c-0.3-0.7-0.4-1.3-0.4-2c0-0.6,0.1-1.2,0.4-1.8c0.2-0.6,0.6-1,1.1-1.5c0.5-0.4,1-0.8,1.7-1c0.5-0.2,0.9-0.3,1.4-0.3
			c0.5,0,1,0,1.6,0.1l-0.1-0.8l0.4-0.2l1.1,2.8l-0.6,0.2c-0.4-0.6-0.9-1.1-1.5-1.3c-0.6-0.2-1.2-0.2-1.9,0.1
			c-0.9,0.3-1.4,0.9-1.6,1.8c-0.2,0.8-0.1,1.9,0.3,3c0.4,1.2,1,2,1.7,2.4c0.7,0.4,1.5,0.5,2.4,0.2c0.6-0.2,1.1-0.6,1.3-1.1
			c0.2-0.5,0.2-1,0-1.6c-0.1-0.3-0.3-0.6-0.6-0.7c-0.2-0.1-0.6-0.1-1,0L83,24.2l3.6-1.4l0.2,0.4c-0.4,0.1-0.6,0.3-0.7,0.5
			c-0.1,0.2,0,0.5,0.1,1l0.6,1.5c-0.2,0.1-0.3,0.1-0.4,0.2c-0.1,0.1-0.2,0.1-0.3,0.2c-0.1,0.1-0.2,0.2-0.3,0.3
			c-0.1,0.1-0.2,0.3-0.4,0.5C85,27.9,84.3,28.3,83.5,28.7z"/>
		<path class="st1" d="M99.3,22c0.1,0.3,0.1,0.5,0.2,0.7c0.1,0.2,0.2,0.3,0.3,0.4c0.1,0.1,0.3,0.1,0.4,0.1c0.2,0,0.4,0,0.7-0.1
			l0.1,0.5l-4.3,1l-0.1-0.5c0.3-0.1,0.5-0.2,0.7-0.2c0.2-0.1,0.3-0.2,0.4-0.3c0.1-0.1,0.1-0.3,0.1-0.4c0-0.2,0-0.4-0.1-0.7L97,20
			l-4.3,1l0.6,2.4c0.1,0.3,0.1,0.5,0.2,0.7c0.1,0.2,0.2,0.3,0.3,0.4s0.3,0.1,0.5,0.1c0.2,0,0.4,0,0.7-0.1l0.1,0.5l-4.3,1l-0.1-0.5
			c0.3-0.1,0.5-0.1,0.6-0.2c0.2-0.1,0.3-0.2,0.3-0.3c0.1-0.1,0.1-0.3,0.1-0.4c0-0.2,0-0.4-0.1-0.7l-1.3-5.4
			c-0.1-0.3-0.1-0.5-0.2-0.7c-0.1-0.2-0.2-0.3-0.3-0.4c-0.1-0.1-0.2-0.1-0.4-0.1c-0.2,0-0.3,0-0.6,0.1l-0.1-0.5l4-0.9l0.1,0.5
			c-0.3,0.1-0.5,0.1-0.6,0.2C92.2,16.7,92,16.8,92,17c-0.1,0.1-0.1,0.3-0.1,0.5s0.1,0.4,0.1,0.7l0.5,2.1l4.3-1L96.4,17
			c-0.1-0.3-0.1-0.5-0.2-0.6c-0.1-0.2-0.2-0.3-0.3-0.4c-0.1-0.1-0.2-0.1-0.4-0.1c-0.2,0-0.4,0-0.7,0.1l-0.1-0.5l4-0.9l0.1,0.5
			c-0.2,0.1-0.4,0.1-0.5,0.2c-0.1,0.1-0.2,0.2-0.3,0.3C98,15.7,98,15.8,98,16c0,0.2,0.1,0.4,0.1,0.7L99.3,22z"/>
		<path class="st1" d="M112.6,15.6l-0.5,0.1c-0.1-0.4-0.2-0.7-0.3-1c-0.1-0.2-0.3-0.4-0.5-0.6c-0.2-0.1-0.4-0.2-0.6-0.3
			c-0.2,0-0.5,0-0.8,0c-0.3,0-0.6,0.1-0.7,0.1c-0.2,0-0.3,0.1-0.4,0.1c-0.1,0-0.2,0.1-0.2,0.1c0,0.1,0,0.1,0,0.2l0.6,6.3
			c0,0.3,0.1,0.5,0.1,0.7c0.1,0.2,0.1,0.3,0.3,0.4c0.1,0.1,0.3,0.2,0.5,0.2c0.2,0,0.5,0,0.9,0l0,0.5l-5,0.5l0-0.5
			c0.4,0,0.6-0.1,0.8-0.2c0.2-0.1,0.4-0.2,0.5-0.3s0.2-0.3,0.2-0.5c0-0.2,0-0.4,0-0.7l-0.6-6.3c0-0.1,0-0.1-0.1-0.2
			c0,0-0.1-0.1-0.2-0.1c-0.1,0-0.2,0-0.4,0c-0.2,0-0.4,0-0.6,0c-0.3,0-0.6,0.1-0.8,0.1c-0.3,0.1-0.5,0.2-0.7,0.3
			c-0.2,0.2-0.3,0.4-0.4,0.6c-0.1,0.3-0.1,0.7-0.1,1.1l-0.5,0l-0.1-2.6l9.3-0.9L112.6,15.6z"/>
		<path class="st1" d="M116.2,19.1l0.5,0c0.1,0.8,0.4,1.4,0.9,1.8c0.5,0.4,1.1,0.7,1.8,0.7c0.3,0,0.6,0,0.8-0.1
			c0.2-0.1,0.5-0.2,0.6-0.3c0.2-0.1,0.3-0.3,0.4-0.5c0.1-0.2,0.1-0.4,0.2-0.6c0-0.2,0-0.4-0.1-0.5c-0.1-0.1-0.2-0.3-0.3-0.4
			c-0.2-0.1-0.4-0.3-0.7-0.4s-0.7-0.3-1.1-0.5c-0.9-0.4-1.6-0.8-2.1-1.3c-0.4-0.5-0.7-1-0.7-1.7c0-0.4,0.1-0.7,0.2-1
			c0.1-0.3,0.4-0.6,0.6-0.8c0.3-0.2,0.6-0.4,0.9-0.5c0.4-0.1,0.8-0.2,1.2-0.2c0.4,0,0.8,0.1,1.1,0.2c0.4,0.1,0.7,0.3,1.1,0.6
			l0.2-0.6l0.3,0l0.1,2.6l-0.5,0c-0.2-0.7-0.5-1.2-0.9-1.5c-0.4-0.4-0.9-0.5-1.4-0.5c-0.5,0-0.9,0.1-1.2,0.4
			c-0.3,0.2-0.5,0.6-0.5,0.9c0,0.2,0,0.3,0.1,0.5c0.1,0.1,0.2,0.3,0.3,0.4c0.1,0.1,0.4,0.2,0.6,0.4c0.3,0.1,0.6,0.3,1,0.4
			c0.6,0.2,1,0.4,1.4,0.7c0.4,0.2,0.7,0.5,1,0.7c0.2,0.3,0.4,0.5,0.5,0.8c0.1,0.3,0.2,0.6,0.2,0.9c0,0.4-0.1,0.8-0.3,1.1
			c-0.2,0.3-0.4,0.6-0.7,0.9c-0.3,0.2-0.7,0.4-1.1,0.5c-0.4,0.1-0.9,0.2-1.4,0.2c-0.5,0-0.9-0.1-1.3-0.2c-0.4-0.1-0.8-0.4-1.2-0.7
			l-0.2,0.7l-0.3,0L116.2,19.1z"/>
		<path class="st1" d="M138.1,21.4c0.2-0.2,0.4-0.4,0.6-0.5c0.2-0.2,0.4-0.4,0.5-0.5c0.2-0.2,0.3-0.3,0.4-0.4
			c0.1-0.1,0.1-0.3,0.2-0.3c0-0.1,0-0.2-0.1-0.3c-0.1-0.1-0.3-0.1-0.6-0.2l0.1-0.5l2.9,0.5l-0.1,0.5c-0.2,0-0.3,0-0.5,0
			c-0.1,0-0.3,0-0.4,0.1s-0.2,0.1-0.3,0.2s-0.2,0.2-0.3,0.3l-2.1,2c0.2,0.5,0.5,0.9,0.9,1.2c0.3,0.3,0.7,0.5,1,0.6
			c0.2,0,0.4,0,0.5,0c0.1-0.1,0.3-0.2,0.5-0.4l0.3,0.1c-0.2,0.4-0.4,0.7-0.8,0.9s-0.8,0.2-1.3,0.1c-0.2,0-0.4-0.1-0.6-0.2
			c-0.2-0.1-0.4-0.2-0.5-0.3c-0.2-0.1-0.4-0.3-0.5-0.5c-0.2-0.2-0.4-0.4-0.6-0.7c-0.5,0.3-1,0.5-1.6,0.6c-0.6,0.1-1.2,0.1-1.7,0
			c-0.4-0.1-0.7-0.2-1-0.4c-0.3-0.2-0.5-0.4-0.7-0.6c-0.2-0.2-0.3-0.5-0.4-0.8c-0.1-0.3-0.1-0.6,0-0.9c0.1-0.5,0.4-1,0.9-1.3
			c0.5-0.4,1.3-0.7,2.3-1c-0.2-0.4-0.3-0.8-0.4-1.1c-0.1-0.3-0.1-0.7,0-1c0.1-0.3,0.2-0.7,0.3-0.9c0.2-0.3,0.4-0.5,0.6-0.6
			c0.2-0.2,0.5-0.3,0.8-0.3c0.3-0.1,0.6-0.1,1,0c0.3,0.1,0.6,0.2,0.8,0.3c0.2,0.1,0.4,0.3,0.6,0.5c0.2,0.2,0.3,0.4,0.3,0.6
			c0.1,0.2,0.1,0.5,0,0.7c-0.1,0.4-0.3,0.8-0.7,1.1c-0.4,0.3-0.9,0.6-1.7,0.9L138.1,21.4z M135.2,19.3c-0.5,0.2-0.8,0.4-1.1,0.8
			c-0.3,0.3-0.5,0.7-0.5,1.1c-0.1,0.4,0,0.8,0.2,1.1c0.2,0.3,0.5,0.5,0.9,0.6c0.3,0.1,0.6,0,1,0c0.4-0.1,0.8-0.2,1.1-0.4L135.2,19.3
			z M136.3,18.1c0.4-0.2,0.7-0.4,0.9-0.7c0.2-0.2,0.3-0.5,0.4-0.9c0.1-0.3,0-0.6-0.1-0.8c-0.1-0.2-0.3-0.4-0.6-0.4
			c-0.5-0.1-0.8,0.2-1,0.9c-0.1,0.3-0.1,0.6,0,0.9C136.1,17.5,136.2,17.8,136.3,18.1z"/>
		<path class="st1" d="M154,23.4c0.5,0.2,0.9,0.3,1.2,0.4c0.3,0.1,0.6,0.1,0.7,0.1c0.2,0,0.4-0.1,0.5-0.3c0.1-0.2,0.3-0.4,0.4-0.7
			l0.4,0.2l-1.3,3.3l-0.4-0.2c0.1-0.3,0.1-0.6,0.1-0.8c0-0.2-0.1-0.4-0.2-0.5c-0.1-0.2-0.3-0.3-0.6-0.4c-0.3-0.1-0.6-0.3-1.1-0.5
			l-0.9,2.3c-0.1,0.2-0.1,0.5-0.1,0.6c0,0.2,0.1,0.4,0.2,0.5c0.1,0.2,0.3,0.3,0.5,0.4c0.2,0.1,0.5,0.3,0.9,0.4
			c0.4,0.2,0.8,0.3,1.1,0.3c0.3,0.1,0.6,0,0.9,0c0.3-0.1,0.5-0.2,0.7-0.4c0.2-0.2,0.4-0.5,0.7-0.8l0.4,0.2l-1.2,2.5l-7.6-2.9
			l0.2-0.4c0.2,0.1,0.5,0.1,0.6,0.2c0.2,0,0.3,0,0.4-0.1s0.2-0.2,0.3-0.3c0.1-0.2,0.2-0.4,0.3-0.6l2-5.2c0.1-0.3,0.2-0.5,0.2-0.6
			s0-0.3,0-0.4c0-0.1-0.1-0.2-0.2-0.3c-0.1-0.1-0.3-0.2-0.5-0.3l0.2-0.4l7.1,2.7l-0.8,2.2l-0.5-0.2c0.1-0.3,0.1-0.6,0.1-0.9
			c0-0.2-0.1-0.5-0.2-0.6c-0.1-0.2-0.3-0.4-0.6-0.5c-0.3-0.2-0.6-0.3-1-0.5l-1.3-0.5c-0.2-0.1-0.3-0.1-0.4-0.1
			c-0.1,0-0.1,0.1-0.2,0.3L154,23.4z"/>
		<path class="st1" d="M166.4,35l-1.1-9.2l0,0l-2.4,4.5c-0.2,0.4-0.3,0.6-0.4,0.9c-0.1,0.2-0.1,0.4-0.1,0.6c0,0.2,0.1,0.3,0.2,0.4
			c0.1,0.1,0.3,0.2,0.5,0.4l-0.2,0.4l-3.1-1.7l0.2-0.4c0.3,0.1,0.5,0.2,0.7,0.3c0.2,0,0.3,0,0.5,0c0.1-0.1,0.3-0.2,0.4-0.4
			c0.1-0.2,0.3-0.4,0.5-0.8l2.3-4.2c0.2-0.3,0.3-0.5,0.4-0.8c0.1-0.2,0.1-0.4,0.1-0.5c0-0.2-0.1-0.3-0.2-0.4
			c-0.1-0.1-0.3-0.3-0.5-0.4l0.2-0.4l2.9,1.6l1,8.4l0,0l2.2-4.1c0.2-0.3,0.3-0.6,0.4-0.8c0.1-0.2,0.1-0.4,0.1-0.6
			c0-0.2-0.1-0.3-0.2-0.4c-0.1-0.1-0.3-0.2-0.5-0.4l0.2-0.4l3.1,1.7l-0.2,0.4c-0.3-0.1-0.5-0.2-0.7-0.3c-0.2,0-0.3,0-0.5,0
			c-0.1,0.1-0.3,0.2-0.4,0.4c-0.1,0.2-0.3,0.4-0.5,0.8l-3.4,6.3L166.4,35z"/>
		<path class="st1" d="M175.2,40.7c-0.6-0.4-1-0.9-1.4-1.4c-0.3-0.5-0.6-1-0.7-1.6s-0.1-1.1,0.1-1.7c0.2-0.6,0.4-1.2,0.8-1.7
			c0.4-0.6,0.9-1.1,1.5-1.4c0.5-0.4,1.1-0.6,1.7-0.7c0.6-0.1,1.2-0.1,1.8,0.1c0.6,0.2,1.2,0.4,1.8,0.9c0.4,0.3,0.7,0.6,1,1
			c0.3,0.4,0.5,0.8,0.8,1.4l0.6-0.5l0.4,0.3l-1.8,2.5l-0.5-0.4c0.3-0.7,0.4-1.4,0.2-2s-0.5-1.1-1.1-1.6c-0.7-0.5-1.5-0.7-2.4-0.4
			c-0.8,0.3-1.6,0.9-2.4,2c-0.7,1-1.1,1.9-1.1,2.8c0,0.8,0.4,1.5,1.2,2.1c0.6,0.4,1.1,0.6,1.6,0.5c0.5-0.1,0.9-0.3,1.3-0.8
			c0.2-0.3,0.3-0.6,0.2-0.8c-0.1-0.3-0.3-0.5-0.6-0.8l0.3-0.4l3.2,2.3l-0.3,0.4c-0.3-0.2-0.6-0.3-0.8-0.3c-0.2,0.1-0.5,0.3-0.7,0.6
			l-0.9,1.3c-0.1-0.1-0.3-0.2-0.4-0.2s-0.2-0.1-0.3-0.1c-0.1,0-0.3-0.1-0.4-0.1c-0.2,0-0.4,0-0.6-0.1
			C176.7,41.5,176,41.2,175.2,40.7z"/>
		<path class="st1" d="M184.7,48.3l-3.2-2.8l0.3-0.4c0.2,0.2,0.4,0.3,0.5,0.4s0.3,0.1,0.4,0.1c0.1,0,0.3-0.1,0.5-0.3
			c0.2-0.1,0.4-0.4,0.6-0.6l3.2-3.6c0.2-0.3,0.4-0.5,0.5-0.7c0.1-0.2,0.2-0.3,0.2-0.5c0-0.1,0-0.3-0.1-0.4c-0.1-0.1-0.2-0.3-0.4-0.5
			l0.3-0.4l3,2.7l-0.3,0.4c-0.2-0.2-0.4-0.3-0.5-0.3c-0.1-0.1-0.3-0.1-0.4,0c-0.1,0-0.3,0.1-0.5,0.3c-0.2,0.1-0.4,0.3-0.6,0.6
			l-3.2,3.6c-0.2,0.3-0.4,0.5-0.6,0.7c-0.1,0.2-0.2,0.3-0.2,0.5c0,0.2,0,0.3,0.1,0.4c0.1,0.1,0.2,0.3,0.4,0.5L184.7,48.3z"/>
		<path class="st1" d="M192,56l2-9l0,0l-3.8,3.5c-0.3,0.3-0.5,0.5-0.7,0.7c-0.2,0.2-0.2,0.3-0.3,0.5c0,0.2,0,0.3,0.1,0.5
			c0.1,0.1,0.2,0.3,0.4,0.5l-0.4,0.3l-2.4-2.6l0.4-0.3c0.2,0.2,0.4,0.4,0.5,0.5c0.2,0.1,0.3,0.2,0.5,0.1c0.2,0,0.3-0.1,0.5-0.2
			c0.2-0.1,0.4-0.3,0.7-0.6l3.6-3.2c0.2-0.2,0.4-0.4,0.6-0.6c0.1-0.2,0.2-0.3,0.3-0.5c0-0.2,0-0.3-0.1-0.5c-0.1-0.2-0.2-0.3-0.4-0.6
			l0.4-0.3l2.3,2.5l-1.9,8.2l0,0l3.4-3.1c0.3-0.3,0.5-0.5,0.7-0.7c0.2-0.2,0.2-0.3,0.3-0.5c0-0.2,0-0.3-0.1-0.5
			c-0.1-0.1-0.2-0.3-0.4-0.5l0.4-0.3l2.4,2.6l-0.4,0.3c-0.2-0.2-0.4-0.4-0.5-0.5c-0.2-0.1-0.3-0.2-0.5-0.1c-0.2,0-0.3,0.1-0.5,0.2
			c-0.2,0.1-0.4,0.3-0.7,0.6l-5.3,4.8L192,56z"/>
		<path class="st1" d="M201.7,59.9c0.3,0.4,0.5,0.7,0.7,1c0.2,0.2,0.4,0.4,0.6,0.5c0.2,0.1,0.4,0.1,0.6,0c0.2-0.1,0.4-0.2,0.7-0.3
			l0.3,0.4l-2.9,2l-0.3-0.4c0.2-0.2,0.4-0.4,0.5-0.6c0.1-0.2,0.2-0.4,0.1-0.6c0-0.2-0.1-0.4-0.3-0.7c-0.1-0.3-0.4-0.6-0.7-1l-2,1.4
			c-0.2,0.1-0.4,0.3-0.5,0.5c-0.1,0.2-0.2,0.3-0.2,0.5c0,0.2,0.1,0.4,0.2,0.7c0.1,0.2,0.3,0.5,0.5,0.8c0.3,0.4,0.5,0.7,0.7,0.9
			c0.2,0.2,0.5,0.4,0.7,0.5c0.2,0.1,0.5,0.1,0.8,0c0.3,0,0.6-0.2,1-0.3l0.3,0.4l-2.4,1.4l-4.7-6.7l0.4-0.3c0.2,0.2,0.3,0.4,0.4,0.5
			c0.1,0.1,0.3,0.2,0.4,0.2c0.1,0,0.3,0,0.4-0.1c0.2-0.1,0.4-0.2,0.6-0.4l4.5-3.2c0.2-0.2,0.4-0.3,0.5-0.4s0.2-0.2,0.2-0.4
			c0-0.1,0-0.3,0-0.4c-0.1-0.1-0.1-0.3-0.3-0.5l0.4-0.3l4.4,6.2l-1.9,1.4l-0.3-0.4c0.2-0.2,0.4-0.5,0.6-0.7c0.1-0.2,0.2-0.4,0.2-0.7
			c0-0.2-0.1-0.5-0.2-0.7c-0.1-0.3-0.3-0.6-0.6-0.9l-0.8-1.1c-0.1-0.2-0.2-0.3-0.3-0.3c-0.1,0-0.2,0-0.3,0.2L201.7,59.9z"/>
		<path class="st1" d="M208,70c0.2,0.5,0.5,0.8,0.6,1.1c0.2,0.3,0.3,0.4,0.5,0.5c0.2,0.1,0.4,0.1,0.6,0.1c0.2,0,0.5-0.1,0.8-0.2
			l0.2,0.4l-3.1,1.7l-0.2-0.4c0.3-0.2,0.5-0.4,0.6-0.5c0.1-0.2,0.2-0.3,0.2-0.5c0-0.2-0.1-0.4-0.2-0.7c-0.1-0.3-0.3-0.6-0.5-1.1
			l-2.2,1.2c-0.2,0.1-0.4,0.3-0.5,0.4c-0.1,0.1-0.2,0.3-0.2,0.5c0,0.2,0,0.4,0.1,0.7c0.1,0.3,0.2,0.5,0.4,0.9c0.2,0.4,0.4,0.7,0.6,1
			c0.2,0.2,0.4,0.4,0.7,0.5c0.2,0.1,0.5,0.2,0.8,0.1c0.3,0,0.6-0.1,1-0.2l0.2,0.4l-2.5,1.1l-3.9-7.2l0.4-0.2
			c0.1,0.2,0.3,0.4,0.4,0.5c0.1,0.1,0.2,0.2,0.4,0.2c0.1,0,0.3,0,0.4,0c0.2-0.1,0.4-0.1,0.6-0.3l4.9-2.6c0.2-0.1,0.4-0.3,0.6-0.4
			c0.1-0.1,0.2-0.2,0.3-0.3c0.1-0.1,0.1-0.3,0-0.4c0-0.1-0.1-0.3-0.2-0.5l0.4-0.2l3.6,6.7l-2,1.2l-0.2-0.5c0.3-0.2,0.5-0.4,0.6-0.6
			c0.1-0.2,0.2-0.4,0.3-0.6c0-0.2,0-0.5-0.1-0.8c-0.1-0.3-0.2-0.6-0.4-1l-0.6-1.2c-0.1-0.2-0.2-0.3-0.3-0.3c-0.1,0-0.2,0-0.4,0.1
			L208,70z"/>
		<path class="st1" d="M216.7,84.6c-0.6,0.2-1.2,0.3-1.8,0.1c-0.6-0.2-1.1-0.7-1.5-1.4l-2,3.8c-0.1,0.3-0.2,0.5-0.2,0.8
			c0,0.3,0,0.6,0.1,0.8l-0.4,0.2l-1-2.6l2.3-4.1c0.2-0.3,0.2-0.5,0.3-0.7c0-0.2,0-0.3,0-0.4l-2.2,0.9c-0.3,0.1-0.5,0.2-0.7,0.3
			c-0.2,0.1-0.3,0.2-0.3,0.4c-0.1,0.1-0.1,0.3,0,0.6c0.1,0.2,0.1,0.5,0.3,0.9l-0.4,0.2l-1.7-4.4l0.4-0.2c0.1,0.2,0.2,0.4,0.3,0.6
			c0.1,0.1,0.2,0.2,0.3,0.3c0.1,0,0.3,0.1,0.5,0c0.2,0,0.4-0.1,0.7-0.2l5.2-2c0.3-0.1,0.5-0.2,0.6-0.3c0.2-0.1,0.3-0.2,0.3-0.3
			c0.1-0.1,0.1-0.2,0.1-0.4c0-0.2-0.1-0.3-0.1-0.6l0.4-0.2l1.5,3.9c0.4,1.1,0.6,2,0.4,2.7S217.4,84.3,216.7,84.6z M213.1,80.8
			l0.3,0.7c0.3,0.7,0.6,1.2,1,1.4c0.4,0.2,0.9,0.2,1.5,0c0.5-0.2,0.8-0.5,1-0.9c0.2-0.4,0.2-0.9,0-1.4l-0.4-1
			c-0.1-0.1-0.1-0.2-0.3-0.1L213.1,80.8z"/>
		<path class="st1" d="M212.6,95.1l-1.2-4.1l0.5-0.1c0.1,0.3,0.2,0.5,0.3,0.6c0.1,0.1,0.2,0.2,0.3,0.3c0.1,0.1,0.3,0.1,0.5,0
			c0.2,0,0.5-0.1,0.9-0.2l4.6-1.3c0.3-0.1,0.6-0.2,0.8-0.3c0.2-0.1,0.4-0.2,0.5-0.3c0.1-0.1,0.2-0.2,0.2-0.4c0-0.2,0-0.4-0.1-0.6
			l0.5-0.1l1.1,3.9l-0.5,0.1c-0.1-0.2-0.2-0.4-0.3-0.5c-0.1-0.1-0.2-0.2-0.4-0.3c-0.1,0-0.3,0-0.5,0c-0.2,0-0.5,0.1-0.8,0.2
			l-4.6,1.3c-0.4,0.1-0.6,0.2-0.8,0.3c-0.2,0.1-0.4,0.2-0.4,0.3s-0.1,0.3-0.1,0.4c0,0.2,0,0.4,0.1,0.7L212.6,95.1z"/>
		<path class="st1" d="M214.6,105.6l6.6-6.5l0,0l-5.1,0.9c-0.4,0.1-0.7,0.1-0.9,0.2c-0.2,0.1-0.4,0.2-0.5,0.3
			c-0.1,0.1-0.2,0.3-0.2,0.4c0,0.2,0,0.4,0,0.6l-0.5,0.1l-0.6-3.5l0.5-0.1c0.1,0.3,0.1,0.5,0.2,0.7c0.1,0.2,0.2,0.3,0.3,0.4
			c0.1,0.1,0.3,0.1,0.5,0.1s0.5,0,0.9-0.1l4.8-0.8c0.3-0.1,0.6-0.1,0.8-0.2c0.2-0.1,0.4-0.2,0.5-0.3c0.1-0.1,0.2-0.2,0.2-0.4
			c0-0.2,0-0.4,0-0.7l0.5-0.1l0.6,3.3l-6,5.9l0,0l4.6-0.8c0.4-0.1,0.7-0.1,0.9-0.2c0.2-0.1,0.4-0.2,0.5-0.3c0.1-0.1,0.2-0.3,0.2-0.4
			c0-0.2,0-0.4,0-0.6l0.5-0.1l0.6,3.5l-0.5,0.1c-0.1-0.3-0.1-0.5-0.2-0.7c-0.1-0.2-0.2-0.3-0.3-0.4c-0.1-0.1-0.3-0.1-0.5-0.1
			s-0.5,0-0.9,0.1l-7.1,1.2L214.6,105.6z"/>
		<path class="st1" d="M215.5,116c0-0.7,0.1-1.4,0.2-2c0.2-0.6,0.5-1.1,0.9-1.5c0.4-0.4,0.8-0.7,1.4-1c0.6-0.2,1.2-0.4,1.9-0.4
			c0.7,0,1.4,0.1,2,0.3c0.6,0.2,1.1,0.5,1.6,0.9c0.4,0.4,0.8,0.9,1.1,1.5c0.3,0.6,0.4,1.2,0.4,2c0,0.5,0,1-0.1,1.4
			c-0.1,0.5-0.3,0.9-0.6,1.5l0.8,0.2l0,0.4l-3,0.1l0-0.6c0.7-0.2,1.3-0.5,1.7-1c0.4-0.5,0.6-1.1,0.6-1.8c0-0.9-0.4-1.6-1.1-2.1
			c-0.7-0.5-1.7-0.7-3-0.6c-1.2,0-2.2,0.3-2.8,0.9c-0.6,0.5-0.9,1.3-0.9,2.2c0,0.7,0.2,1.2,0.6,1.6c0.4,0.4,0.9,0.5,1.5,0.5
			c0.4,0,0.6-0.1,0.8-0.3c0.2-0.2,0.3-0.5,0.3-1l0.5,0l0.1,3.9l-0.5,0c0-0.4-0.1-0.7-0.3-0.8c-0.2-0.1-0.5-0.2-0.9-0.2l-1.6,0.1
			c0-0.2,0-0.3,0-0.4c0-0.1,0-0.2-0.1-0.4c0-0.1-0.1-0.2-0.2-0.4c-0.1-0.1-0.2-0.3-0.3-0.5C215.8,117.7,215.6,116.9,215.5,116z"/>
	</g>
	<g>
		<path class="st2" d="M40.7,189.9c-0.2,0.2-0.4,0.4-0.5,0.5c-0.1,0.2-0.2,0.3-0.1,0.5c0,0.2,0.1,0.3,0.2,0.5
			c0.1,0.2,0.3,0.4,0.6,0.7l-0.3,0.3l-3.2-3.3l0.3-0.3c0.2,0.2,0.3,0.3,0.5,0.4s0.3,0.1,0.4,0.1c0.1,0,0.3-0.1,0.4-0.1
			c0.1-0.1,0.3-0.2,0.5-0.4l3.9-3.7c0.2-0.2,0.3-0.3,0.4-0.5c0.1-0.1,0.2-0.3,0.2-0.4c0-0.1,0-0.2-0.1-0.4c-0.1-0.1-0.2-0.3-0.3-0.5
			l0.3-0.3l4.9,5.1l-1.7,1.8l-0.3-0.4c0.2-0.3,0.4-0.5,0.5-0.7c0.1-0.2,0.2-0.4,0.1-0.7c0-0.2-0.1-0.4-0.2-0.7
			c-0.1-0.2-0.3-0.5-0.6-0.7l-1.1-1.2c-0.1-0.1-0.2-0.1-0.3,0l-2.4,2.3c0.3,0.3,0.6,0.6,0.8,0.8c0.2,0.2,0.5,0.3,0.7,0.4
			c0.2,0.1,0.4,0,0.6,0c0.2-0.1,0.4-0.2,0.7-0.4l0.3,0.3l-2.6,2.5l-0.3-0.3c0.2-0.3,0.3-0.5,0.4-0.7c0.1-0.2,0.1-0.4,0.1-0.6
			s-0.2-0.4-0.3-0.7c-0.2-0.2-0.4-0.5-0.7-0.9L40.7,189.9z"/>
		<path class="st2" d="M48,199.4l-3.1-2.7l0.3-0.3c0.2,0.2,0.4,0.3,0.5,0.4c0.1,0.1,0.3,0.1,0.4,0.1c0.1,0,0.3-0.1,0.5-0.3
			c0.2-0.1,0.4-0.3,0.6-0.6l3.1-3.5c0.2-0.2,0.4-0.5,0.5-0.6c0.1-0.2,0.2-0.3,0.2-0.5c0-0.1,0-0.3-0.1-0.4c-0.1-0.1-0.2-0.3-0.4-0.5
			l0.3-0.3l2.9,2.6l-0.3,0.3c-0.2-0.1-0.4-0.2-0.5-0.3c-0.1-0.1-0.3-0.1-0.4,0c-0.1,0-0.3,0.1-0.5,0.3c-0.2,0.1-0.3,0.3-0.6,0.6
			l-3.1,3.5c-0.2,0.3-0.4,0.5-0.5,0.7s-0.2,0.3-0.2,0.5c0,0.1,0,0.3,0.1,0.4c0.1,0.1,0.2,0.3,0.4,0.5L48,199.4z"/>
		<path class="st2" d="M56.7,206.2l0.1-8.9l0,0l-2.9,4c-0.2,0.3-0.4,0.6-0.5,0.8s-0.2,0.4-0.2,0.5c0,0.2,0.1,0.3,0.2,0.4
			c0.1,0.1,0.3,0.3,0.5,0.4l-0.3,0.4l-2.8-2l0.3-0.4c0.2,0.2,0.4,0.3,0.6,0.3c0.2,0.1,0.3,0.1,0.5,0c0.1,0,0.3-0.1,0.4-0.3
			c0.1-0.2,0.3-0.4,0.5-0.7l2.7-3.8c0.2-0.3,0.3-0.5,0.4-0.7c0.1-0.2,0.1-0.4,0.2-0.5c0-0.1,0-0.3-0.1-0.4c-0.1-0.1-0.3-0.3-0.5-0.4
			l0.3-0.4l2.6,1.9l-0.1,8.2l0,0l2.6-3.6c0.2-0.3,0.4-0.6,0.5-0.8c0.1-0.2,0.2-0.4,0.2-0.5c0-0.2-0.1-0.3-0.2-0.4
			c-0.1-0.1-0.3-0.3-0.5-0.4l0.3-0.4l2.8,2l-0.3,0.4c-0.2-0.2-0.4-0.3-0.6-0.3s-0.3-0.1-0.5,0s-0.3,0.1-0.4,0.3
			c-0.2,0.2-0.3,0.4-0.5,0.7l-4,5.6L56.7,206.2z"/>
		<path class="st2" d="M62.2,209.7l0.2-0.4c0.2,0.1,0.4,0.2,0.6,0.2c0.2,0,0.3,0,0.4,0c0.1,0,0.2-0.1,0.3-0.3
			c0.1-0.1,0.2-0.3,0.4-0.6l2.6-4.7c0.1-0.2,0.2-0.4,0.3-0.6c0.1-0.2,0.1-0.3,0.1-0.4c0-0.1-0.1-0.2-0.2-0.3
			c-0.1-0.1-0.2-0.2-0.4-0.3l0.2-0.4l3.9,2.1c0.7,0.4,1.2,0.8,1.6,1.3c0.4,0.5,0.8,1,1,1.6c0.2,0.6,0.3,1.2,0.2,1.8
			c0,0.6-0.2,1.2-0.5,1.8c-0.3,0.6-0.7,1-1.1,1.4c-0.5,0.4-1,0.6-1.5,0.7s-1.1,0.1-1.8,0c-0.6-0.1-1.3-0.3-1.9-0.7L62.2,209.7z
			 M68.8,203.9c-0.1-0.1-0.2,0-0.3,0.1l-2.9,5.3c-0.2,0.4-0.3,0.8-0.1,1.1s0.5,0.6,1,0.9c0.9,0.5,1.7,0.6,2.5,0.3
			c0.8-0.3,1.4-0.9,2-2c0.3-0.5,0.5-1.1,0.6-1.6c0.1-0.5,0.1-1,0-1.4c-0.1-0.4-0.3-0.8-0.5-1.2c-0.3-0.3-0.6-0.6-1-0.9L68.8,203.9z"
			/>
		<path class="st2" d="M82.4,216.5c-0.2-0.1-0.4-0.2-0.6-0.4c-0.2-0.2-0.3-0.4-0.4-0.6c-0.1-0.2-0.2-0.4-0.2-0.7
			c0-0.2,0-0.5,0.1-0.7c0.1-0.2,0.2-0.4,0.4-0.6s0.4-0.3,0.6-0.4c0.2-0.1,0.5-0.2,0.7-0.2c0.3,0,0.5,0,0.7,0.1
			c0.2,0.1,0.4,0.2,0.6,0.4c0.2,0.2,0.3,0.4,0.4,0.6c0.1,0.2,0.2,0.4,0.2,0.7c0,0.2,0,0.5-0.1,0.7c-0.1,0.2-0.2,0.4-0.4,0.6
			c-0.2,0.2-0.4,0.3-0.6,0.4c-0.2,0.1-0.5,0.2-0.7,0.2C82.9,216.6,82.6,216.5,82.4,216.5z"/>
		<path class="st3" d="M97.2,223.2c-0.7-0.1-1.3-0.4-1.8-0.7c-0.5-0.3-0.9-0.7-1.2-1.1c-0.3-0.5-0.5-1-0.6-1.5s-0.1-1.2,0-1.9
			c0.1-0.7,0.4-1.3,0.7-1.8c0.3-0.5,0.7-1,1.2-1.3c0.5-0.3,1-0.6,1.6-0.7c0.6-0.1,1.2-0.1,1.9,0c0.5,0.1,0.9,0.2,1.3,0.5
			c0.4,0.2,0.8,0.5,1.3,0.9l0.4-0.7l0.4,0.1l-0.6,2.9l-0.6-0.1c0-0.7-0.2-1.4-0.6-1.8c-0.4-0.5-0.9-0.8-1.6-0.9
			c-0.9-0.2-1.6,0-2.2,0.6c-0.6,0.6-1,1.5-1.3,2.7c-0.2,1.2-0.2,2.1,0.2,2.9s1,1.2,1.9,1.3c0.6,0.1,1.2,0.1,1.6-0.2s0.7-0.7,0.8-1.3
			c0.1-0.3,0-0.6-0.1-0.8c-0.2-0.2-0.4-0.4-0.9-0.5l0.1-0.5l3.7,0.7l-0.1,0.5c-0.4-0.1-0.6,0-0.8,0.1c-0.2,0.1-0.3,0.4-0.4,0.8
			l-0.3,1.5c-0.2,0-0.3-0.1-0.4-0.1s-0.2,0-0.3,0s-0.3,0-0.4,0.1c-0.2,0-0.3,0.1-0.6,0.2C98.8,223.3,98.1,223.4,97.2,223.2z"/>
		<path class="st3" d="M113.6,218.4c0,0.6-0.3,1.2-0.7,1.6c-0.4,0.4-1,0.6-1.8,0.7l2.4,3.3c0.2,0.2,0.4,0.4,0.6,0.5
			c0.2,0.1,0.5,0.2,0.8,0.2l0,0.5l-2.7-0.2l-2.6-3.7c-0.2-0.2-0.3-0.4-0.5-0.5c-0.1-0.1-0.3-0.1-0.4-0.2l-0.2,2.3c0,0.3,0,0.5,0,0.7
			c0,0.2,0.1,0.3,0.2,0.4c0.1,0.1,0.3,0.2,0.5,0.2c0.2,0.1,0.5,0.1,0.9,0.1l0,0.5l-4.6-0.4l0-0.5c0.3,0,0.5,0,0.6,0
			c0.2,0,0.3-0.1,0.4-0.2c0.1-0.1,0.2-0.2,0.2-0.4c0-0.2,0.1-0.4,0.1-0.7l0.4-5.3c0-0.3,0-0.5,0-0.7c0-0.2-0.1-0.3-0.1-0.4
			c-0.1-0.1-0.2-0.2-0.3-0.2c-0.1,0-0.3-0.1-0.6-0.1l0-0.5l4,0.3c1.1,0.1,2,0.3,2.5,0.8C113.4,217.1,113.7,217.7,113.6,218.4z
			 M108.8,219.9l0.8,0.1c0.7,0.1,1.3,0,1.7-0.3c0.4-0.3,0.6-0.7,0.6-1.4c0-0.5-0.1-0.9-0.4-1.2c-0.3-0.3-0.7-0.5-1.2-0.5l-1-0.1
			c-0.1,0-0.2,0-0.2,0.2L108.8,219.9z"/>
		<path class="st3" d="M122.3,216c0.7,0,1.3,0.1,2,0.3s1.1,0.5,1.6,0.9s0.8,0.9,1.1,1.4c0.3,0.6,0.4,1.2,0.5,1.8
			c0,0.6-0.1,1.2-0.3,1.8c-0.2,0.6-0.6,1-1,1.5c-0.4,0.4-0.9,0.8-1.5,1c-0.6,0.3-1.2,0.4-1.9,0.4s-1.3-0.1-1.9-0.3
			c-0.6-0.2-1.2-0.5-1.6-0.9c-0.5-0.4-0.8-0.9-1.1-1.4c-0.3-0.5-0.4-1.1-0.5-1.7c0-0.7,0.1-1.3,0.3-1.8c0.2-0.6,0.6-1.1,1-1.5
			c0.4-0.4,0.9-0.8,1.5-1C120.9,216.2,121.6,216,122.3,216z M122.6,224.4c0.4,0,0.8-0.1,1.2-0.3c0.4-0.2,0.7-0.4,0.9-0.8
			s0.4-0.7,0.5-1.2c0.1-0.5,0.2-1,0.1-1.6c0-0.6-0.1-1.1-0.3-1.6c-0.2-0.5-0.4-0.9-0.6-1.2c-0.3-0.3-0.6-0.6-1-0.8
			c-0.4-0.2-0.8-0.2-1.2-0.2c-0.5,0-0.9,0.1-1.2,0.3c-0.4,0.2-0.6,0.5-0.9,0.8c-0.2,0.4-0.4,0.8-0.5,1.3s-0.2,1-0.1,1.6
			c0,0.6,0.1,1.1,0.3,1.5c0.2,0.5,0.4,0.8,0.6,1.1c0.3,0.3,0.6,0.5,1,0.7C121.8,224.3,122.2,224.4,122.6,224.4z"/>
		<path class="st3" d="M140.5,220.6l0.7-4.7c0.1-0.5,0.1-0.9,0.1-1.2c0-0.2-0.2-0.4-0.3-0.4s-0.4,0-0.8,0l-0.1-0.5l3.2-0.6l0.1,0.5
			c-0.3,0.1-0.5,0.2-0.7,0.4s-0.3,0.5-0.4,0.8l-1.4,8l-1,0.2l-3.1-5.7l-1.2,6.4l-0.9,0.2l-3.6-6.2c-0.2-0.4-0.4-0.6-0.6-0.9
			c-0.2-0.2-0.3-0.4-0.5-0.5c-0.2-0.1-0.3-0.1-0.5-0.2c-0.2,0-0.4,0-0.6,0l-0.1-0.5l4.3-0.8l0.1,0.5c-0.4,0.1-0.6,0.2-0.8,0.3
			c-0.1,0.1-0.2,0.2-0.2,0.4c0,0.1,0,0.1,0,0.2c0,0.1,0,0.1,0.1,0.2s0.1,0.2,0.1,0.3c0.1,0.1,0.1,0.2,0.2,0.4l2.4,4.3l0.9-5.4
			c-0.1-0.2-0.2-0.3-0.3-0.5c-0.1-0.1-0.2-0.2-0.3-0.3s-0.2-0.1-0.4-0.1s-0.3,0-0.5,0l-0.1-0.5l4-0.7l0.1,0.5
			c-0.3,0.1-0.5,0.1-0.7,0.2c-0.1,0.1-0.2,0.3-0.1,0.5c0,0.1,0.1,0.2,0.1,0.4c0.1,0.1,0.1,0.3,0.2,0.5L140.5,220.6z"/>
		<path class="st2" d="M154.2,216.4c-0.2,0.1-0.5,0.1-0.7,0.1c-0.2,0-0.5-0.1-0.7-0.2c-0.2-0.1-0.4-0.2-0.6-0.4
			c-0.2-0.2-0.3-0.4-0.4-0.6c-0.1-0.2-0.1-0.5-0.1-0.7c0-0.2,0.1-0.5,0.2-0.7c0.1-0.2,0.3-0.4,0.4-0.6c0.2-0.2,0.4-0.3,0.6-0.4
			c0.2-0.1,0.5-0.1,0.7-0.1c0.2,0,0.5,0.1,0.7,0.2c0.2,0.1,0.4,0.2,0.6,0.4s0.3,0.4,0.4,0.6c0.1,0.2,0.1,0.5,0.1,0.7
			s-0.1,0.5-0.2,0.7c-0.1,0.2-0.3,0.4-0.4,0.6C154.7,216.2,154.4,216.3,154.2,216.4z"/>
		<path class="st2" d="M167.4,211.2c0.1,0.3,0.3,0.5,0.4,0.6c0.1,0.1,0.2,0.2,0.3,0.3c0.1,0.1,0.2,0.1,0.4,0c0.1,0,0.3-0.1,0.5-0.2
			l0.2,0.4l-3.5,1.9l-0.2-0.4c0.2-0.1,0.4-0.2,0.5-0.4c0.1-0.1,0.2-0.2,0.2-0.3c0-0.1,0-0.3,0-0.4c-0.1-0.2-0.1-0.4-0.3-0.6
			l-2.5-4.7c-0.1-0.2-0.2-0.4-0.3-0.6s-0.2-0.2-0.3-0.3c-0.1,0-0.2-0.1-0.4,0c-0.1,0-0.3,0.1-0.5,0.2l-0.2-0.4l3.5-1.9l0.2,0.4
			c-0.2,0.1-0.4,0.3-0.5,0.4c-0.1,0.1-0.2,0.2-0.2,0.4c0,0.1,0,0.3,0.1,0.4c0.1,0.2,0.2,0.4,0.3,0.6l1.2,2.3l1.1-4.3
			c0.1-0.3,0.1-0.4,0-0.6c0-0.1-0.1-0.1-0.2-0.1c-0.1,0-0.3,0.1-0.6,0.2l-0.2-0.4l2.8-1.5l0.2,0.4c-0.1,0.1-0.3,0.2-0.4,0.3
			c-0.1,0.1-0.2,0.2-0.3,0.3c-0.1,0.1-0.1,0.3-0.2,0.5c-0.1,0.2-0.2,0.5-0.2,0.8l-0.8,2.9l5,2c0.2,0.1,0.5,0.1,0.7,0.1
			c0.2,0,0.5-0.1,0.7-0.2l0.2,0.4l-3.8,2l-0.2-0.4c0.3-0.2,0.5-0.3,0.6-0.4c0.1-0.1,0.1-0.2,0.1-0.3c0,0,0-0.1-0.1-0.1
			c0,0-0.1-0.1-0.1-0.1c0,0-0.1-0.1-0.2-0.1c-0.1,0-0.2-0.1-0.3-0.1l-3-1.3l-0.2,0.8L167.4,211.2z"/>
		<path class="st2" d="M176.2,202.5c0.4-0.3,0.7-0.5,1-0.7c0.2-0.2,0.4-0.4,0.5-0.6c0.1-0.2,0.1-0.4,0-0.5c0-0.2-0.1-0.4-0.3-0.7
			l0.4-0.2l1.9,2.8l-0.4,0.2c-0.2-0.2-0.4-0.4-0.6-0.5c-0.2-0.1-0.4-0.2-0.5-0.1c-0.2,0-0.4,0.1-0.7,0.2c-0.3,0.1-0.6,0.4-1,0.6
			l1.4,2c0.1,0.2,0.3,0.4,0.4,0.5c0.2,0.1,0.3,0.2,0.5,0.1c0.2,0,0.4-0.1,0.6-0.2c0.2-0.1,0.5-0.3,0.8-0.5c0.4-0.3,0.7-0.5,0.9-0.7
			c0.2-0.2,0.4-0.5,0.4-0.7c0.1-0.2,0.1-0.5,0-0.8c0-0.3-0.1-0.6-0.3-1l0.4-0.3l1.4,2.3l-6.5,4.5l-0.3-0.4c0.2-0.2,0.4-0.3,0.5-0.4
			c0.1-0.1,0.2-0.2,0.2-0.4c0-0.1,0-0.3-0.1-0.4c-0.1-0.2-0.2-0.3-0.3-0.6l-3-4.4c-0.2-0.2-0.3-0.4-0.4-0.5s-0.2-0.2-0.4-0.2
			c-0.1,0-0.2,0-0.4,0c-0.1,0.1-0.3,0.1-0.5,0.3l-0.3-0.4l6-4.2l1.4,1.8l-0.4,0.3c-0.2-0.2-0.4-0.4-0.6-0.5
			c-0.2-0.1-0.4-0.2-0.6-0.2c-0.2,0-0.5,0.1-0.7,0.2c-0.3,0.1-0.6,0.3-0.9,0.5l-1.1,0.7c-0.2,0.1-0.3,0.2-0.3,0.3
			c0,0.1,0,0.2,0.1,0.3L176.2,202.5z"/>
		<path class="st2" d="M185.1,195.7c0.4-0.3,0.7-0.6,0.9-0.8c0.2-0.2,0.3-0.4,0.4-0.6c0.1-0.2,0.1-0.4,0-0.6
			c-0.1-0.2-0.2-0.4-0.4-0.7l0.3-0.3l2.2,2.6l-0.3,0.3c-0.2-0.2-0.4-0.4-0.6-0.4c-0.2-0.1-0.4-0.1-0.6-0.1c-0.2,0-0.4,0.1-0.6,0.3
			c-0.2,0.2-0.5,0.4-0.9,0.7l1.6,1.8c0.2,0.2,0.3,0.3,0.5,0.4s0.3,0.1,0.5,0.1c0.2,0,0.4-0.1,0.6-0.2c0.2-0.1,0.5-0.3,0.8-0.6
			c0.3-0.3,0.6-0.6,0.8-0.8c0.2-0.2,0.3-0.5,0.4-0.7c0.1-0.2,0-0.5,0-0.8c-0.1-0.3-0.2-0.6-0.4-0.9l0.4-0.3l1.6,2.1l-5.9,5.1
			l-0.3-0.4c0.2-0.2,0.3-0.3,0.4-0.5c0.1-0.1,0.1-0.3,0.2-0.4c0-0.1,0-0.3-0.1-0.4c-0.1-0.1-0.2-0.3-0.4-0.5l-3.5-4.1
			c-0.2-0.2-0.3-0.4-0.5-0.5c-0.1-0.1-0.3-0.2-0.4-0.2c-0.1,0-0.2,0-0.4,0.1c-0.1,0.1-0.3,0.2-0.5,0.3l-0.3-0.4l5.5-4.8l1.5,1.7
			l-0.4,0.3c-0.2-0.2-0.5-0.4-0.7-0.5c-0.2-0.1-0.4-0.1-0.7-0.1c-0.2,0-0.4,0.1-0.7,0.2c-0.2,0.1-0.5,0.4-0.8,0.6l-1,0.9
			c-0.2,0.1-0.2,0.2-0.2,0.3c0,0.1,0.1,0.2,0.2,0.3L185.1,195.7z"/>
		<path class="st2" d="M195.4,183.5c0.6,0.6,0.8,1.2,0.7,2c-0.1,0.8-0.6,1.6-1.5,2.5l-0.7,0.7l1.5,1.4c0.2,0.2,0.4,0.3,0.6,0.4
			c0.2,0.1,0.3,0.1,0.5,0.1c0.2,0,0.3-0.1,0.5-0.2c0.2-0.1,0.4-0.3,0.6-0.6l0.3,0.3l-3.1,3.4l-0.3-0.3c0.2-0.2,0.3-0.4,0.4-0.5
			s0.1-0.3,0.1-0.4c0-0.1-0.1-0.3-0.2-0.4c-0.1-0.1-0.3-0.3-0.5-0.5l-3.9-3.7c-0.2-0.2-0.4-0.3-0.5-0.4c-0.1-0.1-0.3-0.1-0.4-0.2
			c-0.1,0-0.2,0-0.4,0.1c-0.1,0.1-0.3,0.2-0.4,0.4l-0.3-0.3l2.7-2.9c0.8-0.9,1.6-1.4,2.3-1.5S194.8,183,195.4,183.5z M193.5,188.3
			l0.5-0.6c0.5-0.5,0.8-1,0.8-1.5c0-0.5-0.2-0.9-0.7-1.4c-0.4-0.4-0.9-0.6-1.3-0.6c-0.4,0-0.9,0.2-1.3,0.7l-0.6,0.7
			c-0.1,0.1-0.1,0.2,0,0.3L193.5,188.3z"/>
	</g>
	<polygon class="st3" points="20.7,143.9 21.9,146.4 24.7,146.8 22.7,148.8 23.2,151.6 20.7,150.3 18.2,151.6 18.6,148.8 
		16.6,146.8 19.4,146.4 	"/>
	<polygon class="st3" points="214.7,145.6 216,148.2 218.8,148.6 216.8,150.6 217.3,153.4 214.7,152 212.2,153.4 212.7,150.6 
		210.7,148.6 213.5,148.2 	"/>
	<g>
		<path class="st3" d="M164.2,148.7c-27.4-11.6-34.9-42.9-35.6-44.5c-0.9-1.9,1.6-7.5-0.3-8.5c0,0,4.8-21-21.3-26.4
			c-7.5-1.6-18.5-1.1-25.2,1.6c-2.1,0.8-7.6,3.6-10.4,5.6c-1.2,0.9-4.9,4-5.7,5.3c-2.5,3.7-1.9,4.6-2,6.4c-0.3,3,0.7,4.8,0.7,4.8
			c0,0-3.9,7.6-4.4,9.7c-0.5,2.1-0.8,3.9,0,7.1c0.8,3.1,0.7,4.3,0.7,5.1c0,4.3-3.4,10.4-6.5,14.8c-0.9,1.3-2.4,2.7-2.6,3.4
			c-0.2,0.8-0.3,1.8,1.2,3.3c1.5,1.5,2.4,0.8,3.5,1.8c1.1,1,0.4,2.4,0,3.5c-0.4,1.1-0.7,2.3,0.1,3.6c0.8,1.3,2.3,1.8,2.3,1.8
			s-0.4,1.2-0.9,2.7c-0.5,1.5,0,2.3,0,2.3s0.6,1.4,2,2.2c1.7,1.1,3.1,4.8,3.2,7.2c0.2,3.6,3.1,5.7,8.2,5.3
			c8.1-0.5,14.4-1.3,14.4-1.3c0.9,2.3,4.6,11.7,4.6,11.7s32.1,0,39.1,0C129.2,177.3,140.8,153.4,164.2,148.7"/>
		<path class="st1" d="M98.8,76.4c0,0-4.7,9.1-5.3,11.6c-0.6,2.5-1,4.7,0,8.5c1,3.8,1.1,5.1,0.9,6.1c-1.9,6.9-10.9,19.8-10.9,21.7
			s-0.3,2.2,1.4,4c1.7,1.8,2.9,1,4.2,2.1c1.3,1.2,1.9,2.9,1.4,4.2s-0.8,2.7,0.1,4.3c0.9,1.6,1.3,2.2,1.3,2.2s-0.5,1.4-1.1,3.2
			c-0.6,1.8-0.4,2.2-0.1,2.7s1.6,0.3,2.4,2.7c0.8,2.3,1.4,8.5,1.1,11.4c-0.3,2.8,0.1,7.2,9.8,6.4c9.7-0.8,20-4.3,20-4.3l5.5,14.1
			c0,0,11.7-23.7,34.6-28.6l-7.9-14.6c0,0-2.5-2.1,3.4-5.6c4.4-2.6,21-16.2,16.7-37c0,0-1.6-5.4-5.6-7.5c0,0-0.9-29.9-29.2-29.9
			c-28.3,0-48,1.6-53.1-2.4C88.6,51.7,87.1,66.6,98.8,76.4z"/>
		<g>
			<g>
				<path class="st4" d="M168.9,99.7c0-14-11.3-25.3-25.3-25.3c-14,0-25.3,11.3-25.3,25.3c0,4.3,1.1,8.3,2.9,11.8l0,0c0,0,0,0,0,0
					c0.4,0.7,0.8,1.4,1.3,2.1c6.5,11.4,12.7,28.2,12.7,28.2h8.4h0h8.4c0,0,6.2-16.8,12.7-28.2C167.3,109.6,168.9,104.8,168.9,99.7z"
					/>
				<path class="st5" d="M161.3,100.3c0,9.8-8,17.8-17.8,17.8c-9.8,0-17.8-8-17.8-17.8c0-9.8,8-17.8,17.8-17.8
					C153.3,82.6,161.3,90.5,161.3,100.3z"/>
				<path class="st1" d="M143.5,82.6c0,0,0.1,0,0.1,0v-5.8c0,0-0.1,0-0.1,0c-12.8,0-23.1,10.1-23.6,22.8h5.8
					C126.2,90.1,134,82.6,143.5,82.6z"/>
				<polyline class="st6" points="149.5,109.5 154,96.8 147.9,98.6 143.7,93.7 139.5,98.6 133.3,96.8 137.9,109.5 				"/>
				<path class="st3" d="M130,129.6v11.3c0,6.3,6,11.4,13.5,11.4c7.5,0,13.5-5.1,13.5-11.4v-11.3H130z"/>
				<path class="st7" d="M140.2,151.7L140.2,151.7c0,1.8,1.5,3.3,3.3,3.3c1.8,0,3.3-1.5,3.3-3.3l0,0H140.2z"/>
				<rect x="130" y="129.6" class="st8" width="27" height="6.1"/>
				<line class="st6" x1="130" y1="129.6" x2="157" y2="129.6"/>
				<rect x="137.9" y="109.5" class="st6" width="11.5" height="20.1"/>
			</g>
			<g>
				<g>
					<path class="st9" d="M143.5,61.6c22.9,0,41.5,18.6,41.5,41.5c0,22.9-18.6,41.5-41.5,41.5c-22.9,0-41.5-18.6-41.5-41.5
						C102,80.2,120.6,61.6,143.5,61.6z"/>
				</g>
			</g>
		</g>
	</g>
</g>
</svg>
