<?xml version="1.0" encoding="utf-8"?>
<!-- Generator: Adobe Illustrator 18.0.0, SVG Export Plug-In . SVG Version: 6.00 Build 0)  -->
<!DOCTYPE svg PUBLIC "-//W3C//DTD SVG 1.1//EN" "http://www.w3.org/Graphics/SVG/1.1/DTD/svg11.dtd">
<svg version="1.1" id="Layer_1" xmlns="http://www.w3.org/2000/svg" xmlns:xlink="http://www.w3.org/1999/xlink" x="0px" y="0px"
	 viewBox="0 522.6 1440 234.7" enable-background="new 0 522.6 1440 234.7" xml:space="preserve">
<g>
	<g>
		<path fill="#171614" d="M692.4,633.5c-8.6,1.7-18,1.7-27.4,1.7c-1.4,2.8-2.5,5.8-3,9.1c0,0-1.1,1.1,1.4,1.1
			c7.2,0,12.2-0.3,19.1,1.4c2.8-0.3,1.7,5.5,1.4,8.3c-2.8,3-22.9,1.1-26,2.5c-2.5,4.1-3,9.1-5,13.5c-0.3,1.4,0,1.1,0.3,1.1
			c10.5-0.3,26.8-6.4,29.8-3.9c2.5,2.5,5,6.9,2.5,8.6c-9.4,7.7-34.8,24.9-46.2,6.4c-6.4-9.1,3.9-24.6,3-27.4
			c-0.3-1.7-1.1-4.4-1.4-6.4c-1.1-2.5,4.1-2.5,6.4-3.9c2.5-3.9,3-7.7,5-11.9c-5-1.7-12.7-2.8-12.2-8.6c1.1-4.1,42.3-7.7,47.5-5.8
			c4.1,1.7,6.9,5.5,8.6,9.4C696.9,631.9,694.4,633.3,692.4,633.5L692.4,633.5z"/>
		<path fill="#171614" d="M625.6,679.7c-1.4,1.4-7.2,6.9-15.2-2.5c-10.5-12.7-11.3-20.4-19.3-32.6c0,0-1.1-1.1-1.4,1.7
			c0,3.9-2.5,35.4-2.5,35.4c-0.3,2.5-2.5,5-5,5c-3-0.3-6.4-2.5-7.2-7.7c-2.5-19.3,3.9-44.2,9.4-53.9c1.4-2.5,3.9-2.8,5.8-1.4
			c9.9,10.5,16.3,24.9,26.3,37.9c2.8,3,2.8,1.1,2.8-1.1c0-17.4-5.8-32.6-9.4-48.4c-0.3-3-0.3-5.5,2.8-4.1
			C631.4,618.1,641.6,666.7,625.6,679.7L625.6,679.7z"/>
		<path fill="#171614" d="M565.3,630.5c-17.4,2.8-32.6,1.4-48.9,6.4c-3,1.1-4.4,2.8-1.1,4.1c16.6,2.8,33.4,1.1,45.6,6.4
			c7.2,3.9,9.4,10.5,8.6,17.7c-0.3,4.4,0,10.8-7.7,14.9c-6.4,5.5-35.4,13.5-52-4.1c-6.4-5.5-5.5-13.3-1.4-17.4
			c9.1-7.2,25.4-3,28.2-2.8c9.1,2.5,16.3,4.1,13.3,7.7c-9.9,8.6-27.6-1.7-32.9-1.7c-1.7-0.3-5.5,0-6.4,3.9c-1.1,2.8,2.8,5.5,6.4,5.8
			c18,2.8,32.6-1.7,40.9-6.9c1.7-1.4,3-3.9,0.3-5.8c-11.9-9.9-37-6.9-43.9-8.6c-14.9-1.4-12.7-10.5-12.2-13.5
			c4.4-20.4,51.7-20.4,66-14.9C575.8,623,570.9,629.7,565.3,630.5L565.3,630.5z"/>
		<path fill="#171614" d="M744.7,625.5c-14.6,9.1-26,23.5-36.2,37.3c-6.4-10.5,9.4-26,13.3-37.3c1.1-6.4,3.9-13.3-5.5-5
			c-1.4,1.4-6.9,6.9-10.8,13.8c-6.9,11.3-13.3,28.2-5.5,40.9c-4.4,12.2-8.6,24.9-11.9,37.9c-1.7,8.3-5.5,19.1-1.7,24.6
			c1.7,4.1,13.3,14.6,13.8,6.9c0,0,2.5-20.7,14.6-54.4c6.4,0,13.8-1.4,19.3-3c9.9-2.8,20.7-15.2,23.2-20.4
			C770.9,645.7,758.8,617.5,744.7,625.5z M753.2,651.8c-1.7,5.8-9.4,18-28.5,20.4c3-8.3,19.3-32.6,26-34.3
			C754.4,635.8,755.2,646.5,753.2,651.8z"/>
		<path fill="#171614" d="M439,587.1c-38.1-30.4-84-49.5-136.2-46.2c-10.8,1.1-26,3-30.4,13.8c-1.4,1.7-2.5,5,1.4,7.2
			c1.7,0.3,12.2,2.5,13.8,0c1.1-4.1-4.4-4.1-7.7-4.4c-1.4,0.3-2.5-1.7,0.3-2.5c49.5-9.4,97,9.4,131.3,30.7
			c32.9,19.3,69.6,72.4,8.3,93.1c-18,4.1-42.8,5-54.7,0v-45.6c19.3,0.3,38.1,5,43.7,7.7c3,1.4,4.1,5.5,2.5,6.9c-3.9,3.9-5,3-7.7,4.4
			c-1.4,3,8.3,3.9,7.7,3.9c6.4,0,13.3-5.8,14.6-10.5c1.1-4.4,0-11.9-9.4-17.4c-12.2-9.1-30.4-10.8-50.6-10.8l-1.1-17.7
			c-1.1-6.9-1.4-8.6-4.1-12.7c-1.1-2.5-5.8-5-6.9-1.7c-3.6,9.1-5,34-5,34c-6.9,1.4-28.5,4.4-39.8,12.7c-9.4,5.8-10.5,13.5-5,20.2
			c3,6.9,26,25.4,42.8,34.3c1.1,5.5,1.4,14.6,6.9,16.3c2.5,0.3,4.1,0.3,6.9,0c1.1-1.1,2.5-0.3,2.8-1.7c1.7-2.5,1.1-5.8,1.7-8.3
			c26,7.7,60,5.5,82.4-8.3c11.9-7.2,21.6-19.1,23.5-32.1C476.3,625.5,452.9,598.4,439,587.1z M345.6,673.6
			c-9.9-4.1-30.4-14.9-38.7-26.3c-2.5-2.8-1.1-5,2.8-6.9c8.3-3.9,25.4-5.5,38.4-5.8L345.6,673.6z"/>
		<path fill="#171614" d="M480.8,682.7c-1.7-20.2-1.4-39.8,2.5-58.9c1.4-5,3-6.4,6.4-4.1c2.8,2.5,4.4,8.3,4.4,13.3
			c1.4,13.3,1.7,43.7,1.4,48.4C495.4,690.7,481,688,480.8,682.7L480.8,682.7z"/>
		<path fill="#171614" d="M531.1,570.8c-1.4-7.2-13.8-8.3-14.6-7.7c-1.7-6.4-6.9-8.3-16.6-7.2c-18.8,1.7-32.3,16-35.1,24
			c-3.9,7.2-0.3,15.2,3.9,19.1c-1.4,9.1,2.8,12.7,5,11.9c3.9,0,3.9-4.4,4.4-5.5c5.8,2.5,10.5,1.7,16.3,1.4
			C507.8,604.8,534.7,588.8,531.1,570.8z M473.9,589.6c-2.5-3-1.7-6.9,1.1-9.9c3-5,11.9-10.8,20.4-9.9
			C495.4,569.4,482.4,576.6,473.9,589.6z M521.1,580.8c-2.8,5.8-9.9,9.9-16,12.2c-5,1.4-11.9,3.9-20.2,1.7
			c8.6-11.3,18.8-22.9,31.2-23.2C523.9,571.9,522.5,578.3,521.1,580.8z"/>
	</g>
	<g>
		<path fill="#8A8A8A" d="M173.5,691.1c-0.3,1.3-1.3,1.5-2.3,1.6c-10.6,1.6-21.3,2-32,3c-7.7,0.7-15.5,1.4-23.3,1.9
			c-0.3-0.1-0.6-0.2-0.9-0.3c-0.3-0.2-0.4-0.4-0.5-0.8c0.2-1.2,1.1-1.8,1.9-2.6c16.8-16.8,33.6-33.7,50.5-50.4
			c0.9-0.9,1.9-3.5,3.8-1c1.4,3.9,0.8,8,1.1,12c0.7,10,1.3,20,2,30C174,686.8,173.5,688.9,173.5,691.1z"/>
		<path fill="#B8B8B8" d="M170.6,590c0.8,0,1.4,0.3,1.6,1.2c1,10.3-0.3,20.5-0.5,30.7c-0.1,3.6-0.1,7.1-0.2,10.7
			c0,2.3-0.4,4.5-0.8,6.8c-0.3,1.3-1.1,1.5-2.2,0.8c-1.4-0.9-2.7-2-3.9-3.2c-13-13.4-26.9-26-40-39.3c-2.9-3-6.3-5.5-9-8.5
			c-0.7-0.8-2-1.5-1.4-3c0.3-0.2,0.6-0.3,0.9-0.4c3.6-0.6,7.1,0.2,10.6,0.5c13.5,1,27,1.9,40.5,2.9C167.8,589.2,169.1,590,170.6,590
			z"/>
		<path fill="#808080" d="M69,594c-0.1-2,0.7-3.4,2.9-3.6c7.8-1.9,15.8-2.2,23.7-3.1c4.5-0.5,9-1,13.5-1.5c1.3-0.2,2.5-0.4,3.8-0.1
			c0.3,0.1,0.6,0.3,0.8,0.5c0.2,0.5,0.1,0.9-0.2,1.4c-0.4,0.6-0.9,1.1-1.4,1.5C100.2,600.7,89,613,77.3,624.7
			c-4.9,4.9-9.4,10.1-14.4,14.9c-0.8,0.7-1.6,2.7-3.2,0.9c-0.2-0.7-0.2-1.4,0-2.1c3-13.8,5-27.9,8.5-41.6
			C68.5,595.9,68.6,594.9,69,594z"/>
		<path fill="#444444" d="M73.6,693.4c-1.8-0.7-1.7-2.5-2.2-3.9c-4.4-14-7.4-28.4-11.1-42.6c-0.3-1.3-0.9-2.6-0.6-4.1
			c0.3-0.9,0.9-0.9,1.6-0.5c1,0.6,1.7,1.4,2.4,2.2c7.8,7.8,15.9,15.4,23.4,23.5c8.3,8.9,17.1,17.3,25.5,26.1
			c0.7,0.8,3.1,1.7,0.6,3.3c-4.8,0-9.6-0.7-14.4-1.1c-5.8-0.5-11.6-0.9-17.4-1.5C78.7,694.6,76.2,693.9,73.6,693.4z"/>
		<path fill="#A8A8A8" d="M214.5,531.1c2.3-1.4,3.3,0.1,4.2,1.9c3.8,7.9,7.2,16,10.7,24c0.7,1.6,2.1,3.2,1.2,5.3
			c-1.1,0.7-2.1,0.2-3.1-0.2c-12.5-4.5-25-8.8-37.6-13c-1.3-0.4-2.7-0.6-3.5-2c-0.2-1.4,1-1.8,1.9-2.3c7.5-3.9,15-7.9,22.5-12
			C212,532.1,213.5,532.1,214.5,531.1z"/>
		<path fill="#9E9E9E" d="M26.3,530.6c1.1-2.3,2.7-1.3,4.2-0.6c8.4,4.5,16.5,9.4,24.8,14.1c1,0.6,2.9,0.9,1.8,2.9
			c-5.9,2.6-12.2,4.1-18.3,6.1c-8.4,2.7-16.7,5.4-25.2,7.7c-0.3,0-0.6-0.1-0.9-0.2c-0.7-1.3,0.2-2.3,0.7-3.3
			C17.5,548.2,21.4,539.2,26.3,530.6z"/>
		<path fill="#878787" d="M173.5,691.1c-1.1-3.6-0.7-7.4-1-11.1c-0.9-11.2-1.4-22.4-2.1-33.6c-0.1-1.6-0.4-3.1-0.5-4.7
			c0-0.4,0.1-0.7,0.5-0.9c1.1-0.6,2.3-0.6,3.5-0.6c5.2,0,10.5-0.1,15.7,0c1.4,0,3.1-0.4,3.6,1.6
			C186.7,658.2,180.1,674.6,173.5,691.1z"/>
		<path fill="#A4A4A4" d="M193.3,641.7c-0.8-1.1-2-0.7-3-0.7c-6.7,0-13.4,0-20.1,0c-0.1-0.1-0.2-0.1-0.3-0.2c0-0.1,0.1-0.2,0.1-0.3
			c0.8-11.6,0.9-23.2,1.4-34.7c0.2-4.8-0.2-9.8,0.9-14.6c7,16.3,14,32.6,21.1,49C193.5,640.7,193.9,641.2,193.3,641.7z"/>
		<path fill="#575757" d="M75.6,571.5c1,1.5,1.7,3-0.5,4.2c-8,5.7-16.6,10.3-24.9,15.4c-0.8,0.5-1.7,1.1-2.7,0.9
			c-0.3-0.1-0.5-0.3-0.6-0.6c-0.2-3.3,1.1-6.4,1.8-9.6c2.6-11,5-21.9,7.6-32.9c0.2-0.7,0.3-1.4,0.8-1.9c0.2-0.2,0.4-0.4,0.7-0.6
			c1.2-0.1,1.7,0.8,2.3,1.6C65,556,70.8,563.4,75.6,571.5z"/>
		<path fill="#535353" d="M168.4,576.3c-1.2-1.1-3.1-2-1.3-4.2c4.9-8.2,11.1-15.5,16.5-23.3c0.6-0.9,1.2-2.5,2.9-1.4
			c0.8,0.7,0.9,1.7,1.1,2.7c2.6,12.9,5.2,25.9,7.8,38.8c0.2,0.8,0.3,1.5,0.2,2.3c0,0.3-0.1,0.6-0.3,0.9c-1.1,1.1-2,0.3-2.9-0.2
			C184.4,586.7,176.2,581.9,168.4,576.3z"/>
		<path fill="#636363" d="M194.9,592.4c0-0.2,0-0.4,0.1-0.7c7.6-5.8,14.6-12.3,21.9-18.5c3.9-3.3,7.7-6.8,11.7-9.9
			c0.9-0.7,2.3-2.3,3,0.4c-0.2,9.9-0.3,19.9-1.4,29.8c0,0.3-0.1,0.6-0.2,0.9c0,0.7,0.2,1.6-1,1.6c-4.8,0.7-9.6,0-14.4-0.4
			c-5.6-0.5-11.2-0.9-16.8-1.6c-0.9-0.1-1.8-0.2-2.6-0.6C194.9,593.1,194.8,592.8,194.9,592.4z"/>
		<path fill="#545454" d="M47,591.7c0.2,0,0.4,0.1,0.6,0.1c0.1,0.4,0,0.7-0.3,0.9c-4.6,0.9-9.2,0.7-13.8,1.1c-6,0.6-12,0.7-18,0.8
			c-1.2-0.2-2.8,0.4-3-1.6c-1.4-10.5-1.1-21-0.5-31.4c1.4-1.8,2.5-0.2,3.4,0.5c2.4,1.8,4.4,4,6.5,6c7.6,7,15.3,13.9,22.9,20.9
			C45.7,589.7,46.6,590.5,47,591.7z"/>
		<path fill="#CCCCCC" d="M170.6,590c-5.7,0.4-11.3-0.4-16.9-0.9c-3.4-0.3-6.9-0.6-10.3-0.7c-9.8-0.5-19.6-1.6-29.4-2
			c-0.4-0.5-0.3-1.1-0.1-1.7c2.1-4.6,4.4-9.1,6.8-13.5c0.3-0.5,0.7-1,1.2-1.3c5.9,1.8,11.5,4.6,17.2,6.9
			C149.8,581.1,160.2,585.6,170.6,590z"/>
		<path fill="#636363" d="M114.7,696.9c10.9-1,21.7-2,32.6-2.9c6.1-0.5,12.2-1,18.2-1.2c1.9-0.1,3.8-1.6,5.7-0.1
			c-15.8,6.6-31.6,13.2-47.4,19.8c-0.6,0.3-1.3,0.6-1.9,0c-3.1-4.3-5-9.3-7.3-14C114.3,698,114.3,697.4,114.7,696.9z"/>
		<path fill="#9C9C9C" d="M122.1,569.8c-2.7,5.5-5.3,11-8,16.5c0,0-0.1,0-0.1,0c-0.1,0.4-0.2,0.4-0.5,0.1
			c-6.8,0.7-13.6,1.5-20.4,2.1c-7.1,0.6-14.1,2.1-21.3,2c6.7-3.4,13.7-5.9,20.6-8.7C102.3,577.7,112.2,573.8,122.1,569.8z"/>
		<path fill="#3E3E3E" d="M114.7,696.9c1.5,4.2,3.9,8,5.8,12.1c0.5,1.1,1.4,2.2,1.4,3.5c-16.2-6.2-32.3-12.5-48.3-19.2
			c5.7,0.5,11.3,1,17,1.5c5.6,0.5,11.2,0.9,16.8,1.4c2.2,0.2,4.5,0.3,6.8,0.5c0.1,0,0.2,0.1,0.3,0.1L114.7,696.9z"/>
		<path fill="#464646" d="M60.1,642.2c3.3,13.3,6.6,26.5,9.8,39.8c0.6,2.5,1.7,4.9,1.5,7.5c-4.2-9.4-8.4-18.8-12.4-28.2
			c-2.8-6.5-6-12.9-8.3-19.6c3-1.5,6-1.1,9-0.3C60,641.5,60.2,641.8,60.1,642.2z"/>
		<path fill="#555555" d="M59.9,641.6c-3.1,0-6.2,0-9.2,0c3.5-9.3,7-18.7,10.5-28c2.2-5.9,4.5-11.8,6.8-17.7c0.5-0.1,0.8,0,0.5,0.6
			c-1.3,6.9-2.6,13.9-3.9,20.8c-1.5,7.9-2.9,15.8-4.4,23.7c0,0.1,0.1,0.2,0.1,0.4C60.1,641.5,60,641.6,59.9,641.6z"/>
		<path fill="#7D7D7D" d="M26.3,530.6c0.6,0.6,0,1.1-0.2,1.6c-4.5,9.4-8.9,18.7-13.4,28.1c-3.4,0.4-6.2-0.6-8.5-3
			c6.5-7.8,13-15.7,19.5-23.5C24.4,532.6,25.3,531.6,26.3,530.6z"/>
		<path fill="#898989" d="M214.5,531.1c0,1.3-1.2,1.1-1.9,1.5c-8.4,4.5-16.9,9-25.3,13.5c-0.2,0.1-0.4,0.4-0.7,0.6
			c-0.2,0.2-0.5,0.2-0.7,0.1c-2.2-2.1-4.1-4.3-5-7.3c3.8-1.7,7.9-2.2,11.8-3.2C199.9,534.4,207.2,532.8,214.5,531.1z"/>
		<path fill="#959595" d="M230.6,562c-2.5-7.2-6.2-14-9-21.1c-1-2.6-2.8-5-2.8-8c6.9,8.6,13.7,17.2,20.6,25.9
			c0.2,0.2,0.2,0.5,0.2,0.8c-2.5,1.6-5.2,2.5-8.1,2.8C231.1,562.4,230.8,562.2,230.6,562z"/>
		<path fill="#8D8D8D" d="M57.1,546.5c-1.1-2.2-3.5-2.7-5.4-3.8c-7.2-4.2-14.5-8.2-21.8-12.3c-0.1,0-0.1-0.1-0.2-0.2
			c0.2-0.1,0.5-0.3,0.7-0.4c10.7,2.8,21.5,5.6,32,8.9c0,3.6-2.4,5.6-4.8,7.7l0,0C57.5,546.8,57.3,546.8,57.1,546.5z"/>
		<path fill="#5F5F5F" d="M231.2,562.1c2.8-0.8,5.5-1.6,8.3-2.4c-1.8,8.7-4.6,17.1-6.8,25.7c-0.8,3-1.8,6-2.7,9
			c-0.5-9.7,0.9-19.4,0.6-29.2c0-0.9,0.3-1.7,0.5-2.6c-0.2-0.1-0.2-0.3-0.1-0.4C231.1,562.1,231.1,562.1,231.2,562.1z"/>
		<path fill="#6A6A6A" d="M4.1,557.2c2.7,1.3,5.6,2.3,8.5,3c0.2,0,0.4,0,0.6,0.1c0.1,0.1,0.2,0.2,0.1,0.4c0,0.1-0.1,0.2-0.1,0.2
			c-1,0.9-0.6,2-0.6,3.1c0,9.7,0,19.4-0.1,29.1c-2.6-10.4-5.2-20.8-7.7-31.3C4.4,560.3,3.6,558.8,4.1,557.2z"/>
		<path fill="#5B5B5B" d="M180.8,539.5c1.7,2.4,3.5,4.8,5.2,7.1c0.2,0.1,0.2,0.3,0.2,0.4c-0.1,0.1-0.1,0.2-0.2,0.2
			c-5.2,6.2-9.6,13.1-14.5,19.5c-1.4,1.9-2.5,4-4.4,5.5C171.5,561.2,176,550.3,180.8,539.5z"/>
		<path fill="#7D7D7D" d="M57.7,546.6c1.3-2.8,3.9-4.7,4.8-7.7c0.3,0.2,0.8,0.4,0.9,0.6c4.1,10.7,8.5,21.2,12.2,32.1
			c-1.9-1.6-3.1-3.8-4.4-5.7c-4.1-5.9-8.1-11.8-12.1-17.7C58.7,547.5,58.4,546.9,57.7,546.6z"/>
		<path fill="#5F5F5F" d="M195,592.9c8.1,0.8,16.2,1.5,24.3,2.3c3.2,0.3,6.5,0.5,9.7,0.8c-9.8,1.4-19.7,2.8-29.5,4.1
			c-2.3,0.3-4.6,1-7,0.7C191.9,597.6,193.6,595.3,195,592.9z"/>
		<path fill="#414141" d="M195,592.9c-0.2,2.8-2,5.1-2.4,7.8c-6.9-6.1-12.9-13-19.5-19.4c-1.6-1.6-3.1-3.3-4.6-5
			c2.7,0.5,4.6,2.4,6.8,3.8c6.6,4,12.9,8.5,19.6,12.3C194.9,592.6,195,592.7,195,592.9z"/>
		<path fill="#4E4E4E" d="M47.6,592.3c0-0.2,0-0.4,0-0.6c8.5-5.1,17.1-10.2,25.6-15.3c0.6-0.4,1.1-0.8,1.9-0.7
			c-8.2,8.1-16.4,16.1-24.9,23.9C48,598.5,46.8,595.2,47.6,592.3z"/>
		<path fill="#3F3F3F" d="M47.6,592.3c0.6,2.5,0.9,5.1,2.6,7.2c-0.7,1-1.6,0.5-2.5,0.4c-10.7-1.8-21.5-3.5-32.2-5.3
			c1.6-0.3,3.2-1,4.8-1C29.5,593.6,38.5,592,47.6,592.3z"/>
		<path fill="#6A6A6A" d="M68.5,596.5c-0.2-0.2-0.4-0.4-0.5-0.6c0.1-0.8,0.3-1.5,1-1.9C69,594.9,69.2,595.8,68.5,596.5z"/>
		<path fill="#A4A4A4" d="M170.1,641c0,0.2-0.1,0.4-0.1,0.6c-0.8,0.7-1.7,1.4-2.4,2.2c-16.7,16.7-33.4,33.4-50.2,50.1
			c-0.8,0.8-1.8,1.6-2.6,2.3c-1.3-0.8-1.4-2.1-1.5-3.4c-0.4-13.7-2.1-27.4-2.5-41.1c-0.1-2.3-0.7-4.5-0.5-6.8
			c0.1-1.3-0.1-2.6,0.9-3.7c0.5-0.4,1.1-0.5,1.6-0.6c0.6-0.1,1.2-0.1,1.8-0.1c16.8,0.4,33.7-0.9,50.5-0.6c1.7,0,3.4-0.1,4.8,1
			L170.1,641z"/>
		<path fill="#606060" d="M111.1,641.7c0.9,14.6,1.7,29.2,2.8,43.7c0.3,3.6-0.1,7.3,0.9,10.9c-0.1,0.2-0.2,0.4-0.3,0.6
			c-0.1,0-0.2-0.1-0.3-0.1c-0.2-0.2-0.3-0.5-0.5-0.7c-17.4-17.6-34.8-35.2-52.2-52.7c-0.4-0.4-0.9-0.7-1.4-1.1
			c-0.1-0.2-0.1-0.4-0.2-0.6c0,0,0.3,0,0.3,0c1-0.7,2.1-0.9,3.4-0.9c14.9,0,29.7,0,44.6,0c0.7,0,1.4,0.1,2,0.3
			C110.5,641.1,110.8,641.4,111.1,641.7z"/>
		<path fill="#BFBFBF" d="M111.1,641.7c-0.1-0.1-0.2-0.1-0.4-0.1c-1-3.3-0.6-6.6-0.3-9.9c0.3-3.6,0.5-7.2,0.5-10.9
			c0-1.2-0.1-2.6,1-3.5c1.6,0.8,0.6,2.1,0.7,3.2c-0.1-1.4,0.5-2.9-0.8-4.2c-0.5-1.3-0.4-2.7-0.4-4.1c0.2-7.5,0.8-15,1.2-22.5
			c0.1-1,0.5-1.9,0.8-2.8c0.1-0.1,0.1-0.2,0-0.3c0.2,0,0.3-0.1,0.5-0.1c5.2,6.1,11.5,11.1,17.1,16.8c11.4,11.5,23.1,22.8,34.7,34.1
			c1.3,1.2,2.7,2.3,4.1,3.4c0,0.2,0,0.4-0.1,0.6C150.3,641.3,130.7,641.5,111.1,641.7z"/>
		<path fill="#868686" d="M112.3,617.2c-0.4,6.5-0.8,12.9-1.2,19.4c-0.1,1.7-0.3,3.3-0.4,5c-16.9,0-33.7,0.1-50.6,0.1
			c0-0.2,0-0.3,0-0.5c11.3-11.6,22.7-23.2,34-34.8c6.4-6.6,12.9-13.1,19.4-19.6c-0.4,8.8-0.8,17.6-1.2,26.4c-0.1,1.2,0,2.3,0,3.5
			c0.2,0.1,0.2,0.2,0.2,0.3C112.4,617.1,112.4,617.2,112.3,617.2z"/>
		<path fill="#838383" d="M186,547.2c0-0.2,0-0.4,0-0.6c0.2,0,0.4,0,0.6,0c2.4,1.8,5.4,2.2,8.2,3.2c11.4,4,23,7.7,34.3,12.1
			c0.4,0.2,1,0.1,1.5,0.2c0.2,0,0.4,0,0.6,0.1c0,0.2,0,0.4-0.1,0.5c-3.6,1.8-6.2,4.8-9.2,7.3c-8.5,7.1-16.8,14.3-25.1,21.5
			c-0.6,0.5-1.1,0.8-1.8,0.3c-1.9-9.7-3.7-19.3-5.6-29C188.3,557.5,187.1,552.4,186,547.2z"/>
		<path fill="#797979" d="M13.1,560.9c0-0.2,0-0.4,0-0.6c10.7-3.4,21.4-6.8,32.1-10.1c3.9-1.2,7.9-2.4,11.9-3.6c0.2,0,0.4,0,0.6,0
			c-2.4,10.1-4.7,20.2-7.1,30.3c-1.2,4.9-2.4,9.9-3.6,14.8c-4.5-4-9-8-13.4-12C26.7,573.4,19.9,567.1,13.1,560.9z"/>
		<path fill="#C3C3C3" d="M112.3,617.2c-0.1-0.2-0.1-0.3,0-0.5c0.7,1.8,0.7,1.8,0.2,5C112.4,619.6,112.4,618.4,112.3,617.2z"/>
	</g>
	<g>
		<path d="M795.2,686.9v-83.3h16.1v83.3H795.2z"/>
		<path d="M831.6,686.9v-83.3h15.7l22.2,55.6v-55.6h14v83.3h-16.2l-21.7-54.3v54.3H831.6z"/>
		<path d="M915.7,686.9v-69.2h-19.1v-14.1h52v14.1h-17.9v69.2H915.7z"/>
		<path d="M964.4,686.9v-83.3h43.8v14.1h-27.7v18.5h25.1v14h-25.1v22.6h27.8v14.1H964.4z"/>
		<path d="M1148.3,686.9H1131l-3.7-18.9h-18.1l-3.3,18.9H1090l18.5-83.3h21.5L1148.3,686.9z M1125.2,652.8l-6-33.2l-8.1,33.2H1125.2
			z"/>
		<path d="M1191.9,618.6c-1.3-2.8-3.7-4.1-7.2-4.1c-1.9,0-3.5,0.6-4.8,1.7c-1.3,1.1-2.2,2.9-3,5.5c-0.7,2.5-1.2,5.8-1.5,9.9
			c-0.3,4.1-0.4,9.1-0.4,15c0,6.3,0.2,11.4,0.6,15.2c0.4,3.9,1,6.9,1.8,9c0.8,2.1,1.9,3.6,3.1,4.3c1.3,0.7,2.7,1.1,4.3,1.1
			c1.4,0,2.6-0.3,3.8-0.8c1.2-0.5,2.2-1.5,3.1-3c0.9-1.5,1.5-3.6,2-6.4c0.5-2.8,0.8-6.4,0.8-10.9h15.5c0,4.5-0.3,8.8-1,12.8
			c-0.6,4-1.8,7.6-3.6,10.6c-1.8,3-4.2,5.4-7.4,7.1c-3.2,1.7-7.3,2.6-12.4,2.6c-5.8,0-10.4-1-13.9-3c-3.4-2-6.1-4.9-7.9-8.7
			c-1.8-3.8-3-8.3-3.5-13.6c-0.5-5.3-0.8-11.1-0.8-17.5c0-6.3,0.3-12.1,0.8-17.4c0.5-5.3,1.7-9.9,3.5-13.7c1.8-3.8,4.5-6.8,7.9-8.9
			c3.4-2.1,8.1-3.2,13.9-3.2c5.5,0,9.9,1,13,2.9c3.2,1.9,5.6,4.4,7.1,7.4c1.6,3,2.6,6.2,3,9.7c0.4,3.5,0.6,6.7,0.6,9.7h-15.5
			C1193.9,625.8,1193.2,621.4,1191.9,618.6z"/>
		<path d="M1240.3,686.9v-69.2h-18v-14.1h50.8v14.1h-17.9v69.2H1240.3z"/>
		<path d="M1289.8,686.9v-83.3h16.1v83.3H1289.8z"/>
		<path d="M1340,686.9l-17.5-83.3h16.1l11.5,61.7l12.1-61.7h17l-18.7,83.3H1340z"/>
		<path d="M1393.1,686.9v-83.3h43.8v14.1h-27.7v18.5h26.3v14h-26.3v22.6h27.8v14.1H1393.1z"/>
		<path d="M1065.8,648.7c0,0,13.3-2,13.3-21.8c0-23.3-16.9-23.3-16.9-23.3h-19.8h-15v83.3h15v-35.6h7.5l14.4,35.6h17.5L1065.8,648.7
			z M1056.1,638.9h-13.6v-22.3h13.8c0,0,8.1,0.7,8.1,10.8C1064.3,638.3,1056.1,638.9,1056.1,638.9z"/>
	</g>
</g>
</svg>
