<?xml version="1.0" encoding="utf-8"?>
<!-- Generator: Adobe Illustrator 21.1.0, SVG Export Plug-In . SVG Version: 6.00 Build 0)  -->
<svg version="1.1" id="Google_x2B_" xmlns="http://www.w3.org/2000/svg" xmlns:xlink="http://www.w3.org/1999/xlink" x="0px"
	 y="0px" viewBox="0 0 605.7 198.4" style="enable-background:new 0 0 605.7 198.4;" xml:space="preserve">
<style type="text/css">
	.st0{fill:#FFFFFF;}
</style>
<g>
	<path class="st0" d="M156.8,71.6H89.2v19.9h48.1c-2.3,27.9-25.5,39.7-47.4,39.7c-28.1,0-52.5-22.1-52.5-52.9
		C37.4,48.2,60.6,25,89.9,25c22.5,0,35.9,14.4,35.9,14.4L139.7,25c0,0-17.8-19.9-50.5-19.9C47.7,5,15.6,40.1,15.6,77.9
		c0,37.1,30.3,73.2,74.7,73.2c39.1,0,67.7-26.8,67.7-66.4C158,76.3,156.8,71.6,156.8,71.6L156.8,71.6z"/>
	<path class="st0" d="M214,57.2c-27.5,0-47.2,21.4-47.2,46.6c0,25.4,19.1,47.3,47.5,47.3c25.7,0,46.8-19.6,46.8-46.8
		C261.2,73.1,236.7,57.2,214,57.2L214,57.2z M214.3,75.6c13.6,0,26.4,10.9,26.4,28.6c0,17.3-12.8,28.5-26.4,28.5
		c-15,0-26.8-12-26.8-28.6C187.5,87.7,199.1,75.6,214.3,75.6L214.3,75.6z"/>
	<path class="st0" d="M316.2,57.2c-27.5,0-47.2,21.4-47.2,46.6c0,25.4,19.1,47.3,47.5,47.3c25.7,0,46.8-19.6,46.8-46.8
		C363.3,73.1,338.8,57.2,316.2,57.2L316.2,57.2z M316.5,75.6c13.6,0,26.4,10.9,26.4,28.6c0,17.3-12.8,28.5-26.4,28.5
		c-15,0-26.8-12-26.8-28.6C289.5,87.7,301.2,75.6,316.5,75.6L316.5,75.6z"/>
	<path class="st0" d="M416.9,57.2c-25.2,0-45.2,22.1-45.2,46.9c0,28.3,23,47,44.7,47c13.4,0,20.5-5.3,25.8-11.5v9.3
		c0,16.2-9.8,25.9-24.7,25.9c-14.3,0-21.5-10.7-24-16.7l-18,7.6c6.4,13.6,19.3,27.6,42.3,27.6c25,0,44.2-15.7,44.2-48.9V58.9h-19.8
		V68C436.1,61.4,427.8,57.2,416.9,57.2L416.9,57.2z M418.7,75.7c12.3,0,25,10.5,25,28.6c0,18.3-12.6,28.5-25.3,28.5
		c-13.5,0-26-10.9-26-28.3C392.4,86.4,405.4,75.7,418.7,75.7L418.7,75.7z"/>
	<path class="st0" d="M547.6,57.1c-23.8,0-43.7,19-43.7,46.9c0,29.6,22.3,47.1,46.1,47.1c19.8,0,32.1-10.8,39.4-20.6l-16.2-10.8
		c-4.3,6.5-11.3,12.9-23,12.9c-13.2,0-19.3-7.2-23.1-14.2l63-26.1l-3.2-7.7C580.6,69.6,566.4,57.1,547.6,57.1L547.6,57.1z
		 M548.5,75.2c8.6,0,14.7,4.6,17.4,10.1l-42,17.5C522,89.1,534.9,75.2,548.5,75.2L548.5,75.2z"/>
	<rect x="475" y="9.9" class="st0" width="19.3" height="138.4"/>
</g>
</svg>
