<?xml version="1.0" encoding="utf-8"?>
<!-- Generator: Adobe Illustrator 17.1.0, SVG Export Plug-In . SVG Version: 6.00 Build 0)  -->
<!DOCTYPE svg PUBLIC "-//W3C//DTD SVG 1.1//EN" "http://www.w3.org/Graphics/SVG/1.1/DTD/svg11.dtd">
<svg version="1.1" id="NBCS_B_POSITIVE" xmlns="http://www.w3.org/2000/svg" xmlns:xlink="http://www.w3.org/1999/xlink" x="0px"
	 y="0px" viewBox="0 0 359.9 57.4" enable-background="new 0 0 359.9 57.4" xml:space="preserve">
<path fill="#5A5A96" d="M48.9,6.4c1.1,2.3,0.5,5.2-0.7,7.2l-9,20.3L39,34.1l-3.3-20.6c-0.3-2,1.9-2.8,3.1-3.8
	c-0.1-0.3-0.4-0.3-0.6-0.4l-3,0l-0.1-0.1c0-2.6,1.4-4.9,3.7-6.2c2.4-1.4,5.9-1,8,0.8C47.7,4.6,48.5,5.4,48.9,6.4"/>
<path fill="#B42846" d="M32.2,5.7c0.7,1.4,1.2,2.9,0.9,4.6L29.4,34c0,0,0,0.1,0,0.1l-0.9-1.9l-9.2-20.6c-0.9-2.7-0.1-5.4,1.9-7.3
	c1.9-2,5.2-2.5,7.7-1.4C30.1,3.3,31.4,4.4,32.2,5.7"/>
<path fill="#008CC3" d="M62.2,15.7c1.2,2.1,1,5.3-0.4,7.3c-0.9,1.4-2.3,2.1-3.5,3L39.2,39.1h0l0.2-0.6l10.1-22.9
	c1.5-2.7,4.4-4.1,7.5-3.7C59.1,12.3,61.2,13.7,62.2,15.7"/>
<path fill="#E16428" d="M18.8,15.6l10.6,23.5h-0.2L7.9,24.4c-2.2-1.8-3-4.6-2.3-7.3c0.6-2.1,2.3-4,4.3-4.8
	C13.2,11.1,17,12.4,18.8,15.6"/>
<path fill="#00A846" d="M67.8,32.3c1.1,2.2,0.6,5.3-0.9,7.2c-1.5,1.8-3.5,2.8-5.9,2.8l-22.7,0l19-13.2c1.9-1.2,4.7-1.4,6.7-0.4
	C65.6,29.2,67.1,30.8,67.8,32.3"/>
<path fill="#F0B428" d="M0.6,32.3c-1.1,2.2-0.6,5.3,0.9,7.2C3,41.3,5,42.3,7.3,42.3l22.7,0L11,29.1c-1.9-1.2-4.7-1.4-6.7-0.4
	C2.7,29.2,1.3,30.8,0.6,32.3"/>
<path d="M141.3,42.7h-21.9V2.2h21.4c9.4,0,15.2,4.1,15.2,10.5v0.1c0,4.6-2.8,7.1-6,8.7c5.3,1.8,8.6,4.5,8.6,10v0.1
	C158.5,39,151.7,42.7,141.3,42.7 M145.9,14.2c0-2.7-2.4-4.2-6.6-4.2h-10v8.6h9.3c4.5,0,7.3-1.3,7.3-4.3V14.2z M148.4,30.4
	c0-2.7-2.3-4.4-7.5-4.4h-11.7v8.9h12c4.5,0,7.2-1.4,7.2-4.4V30.4z"/>
<path d="M182.4,43.4c-13.5,0-23.6-9.2-23.6-20.9v-0.1c0-11.5,9.9-21,24-21c8.7,0,13.9,2.6,18.2,6.3l-6.5,6.5
	c-3.5-2.8-7.2-4.6-11.8-4.6c-7.8,0-13.4,5.7-13.4,12.6v0.1c0,7,5.5,12.7,13.4,12.7c5.3,0,8.5-1.9,12.1-4.8l6.4,5.7
	C196.5,40.7,191.2,43.4,182.4,43.4"/>
<polygon points="85.6,31.8 85.6,17 107.9,42.7 116.5,42.7 116.5,2.2 106.5,2.2 106.5,27.2 84.9,2.2 75.6,2.2 75.6,33.9 75.6,38.9 
	75.6,42.7 85.6,42.7 85.6,37.9 "/>
<g>
	<path fill="#F0B428" d="M267.4,20.4c-1.8-1.4-4.5-0.3-4.5-0.3c-5,1.6-10.5,5.6-14.8,9.4c2-2.3,4.2-4.7,6.7-7.3c0,0,1.8-0.9,0.4-2.3
		c-1.4-1.4-3-2.7-3-2.7s-0.7-0.6-1-0.3c-0.3,0.2-0.1,0.9,0,1c0.1,0.1-0.8,1.2-0.8,1.2s-0.1,0.1-0.1,0.2c-1.5,1.3-4.1,2.5-5.4,3.2
		c-2.9,1.1-6.6,2.3-10.5,3.7c-0.2-0.2-0.5-0.4-0.8-0.6c-4.7-3-18.9-3.2-24.4-3.6c-5.9-0.4-7.2-0.8-7.4-1.8c-0.3-1.3,1.6-3.1,4.2-5
		c10.3-7.5,24.5-9,29.1-9c5,0.1,6.5,0.7,6.5,1c0.1,0.4-0.2,0.6-0.2,0.6c-0.8,0.9-1.9,1.5-3.1,2.3c-4.6,3-9.6,5.2-9.6,5.2
		c-1.1,1,1,1.3,1,1.3c2.9-0.1,5.7-0.8,8.4-1.8c5.5-2.1,6.8-4,6.9-5.1c0.3-1.9-0.6-4-0.5-3.8C243.1-0.2,233.7,0,233.7,0
		c-8.1,0-20.3,2.3-31.1,10.3c-5.5,4.1-4.7,7-4.7,7s-0.1,5.6,4.2,7c1.7,0.6,3,0.8,5.8,1.1c5.5,0.5,9.5,0.6,15.2,1
		c3.3,0.2,5.7,0.6,7.2,1c-4.6,1.7-9.4,3.6-13.6,5.7c-3.6,1.8-9.1,4.9-11,7.3c-2.3,2.9-0.2,5.2-0.4,4.7c0.3,0.6,1.8,3.3,8,2.5
		c3-0.4,6.6-1.8,9.3-3.3c3.9-2.1,6.8-4.6,8.6-6.3c3.5-3.4,4.5-6,4.5-8.3c0-0.9-0.2-1.6-0.4-2.2c4.2-1.5,8-2.6,10.4-3.3
		c-6.9,8.3-18.6,24.3-13.4,31.6c0,0,0.3,0.6,0.8,1.1c0,0,0.9,0.8,1.3,0.3c0.3-0.5-0.7-1-0.7-1c-0.3-0.4-0.5-0.9-0.4-1.9
		c0.1-1,0.4-2.5,1.2-4.7l1.4-3.2c0,0,0,0,0,0c0,0,0,0,0,0l0,0c1.8-3.1,4.8-7.3,8.5-11c9.1-9.1,17.3-12.8,18.9-13.3
		c1.2-0.4,1.7-0.3,1.9-0.1c1.2,1-1.7,5.7-1.7,5.7c0,0.1-0.1,0.1-0.1,0.2c-5.2,7.6-8.3,9.8-11,10.8c-1.9,0.6-3-0.1-3.4-0.3
		c-0.7-0.6-1-1.5-1-1.9c0.1-0.8-0.2-0.8-0.2-0.8c-1.3,0.4-0.6,2.7-0.6,2.7c1,4.3,7,5.5,12.7,1.2c7.6-5.7,9.1-10.2,10.2-13
		C271.3,24,269.2,21.8,267.4,20.4 M232.3,30.1c-1.9,3.3-8.4,7.3-10.5,8.5c-1.2,0.7-3.9,2.3-7.3,3.5c-3.7,1.4-7.1,2-7.4,1.1
		c-0.1-0.4-0.4-0.6,0.8-1.8c1.4-1.5,5.8-4.3,9.8-6.4c4.7-2.4,9.9-4.6,14.7-6.3C232.6,29,232.6,29.5,232.3,30.1"/>
	<path fill="#F0B428" d="M359.9,17.2c-0.4-2.5-4.2-3.1-10.8-2.5c-3.5,0.3-10.1,1.2-16.1,2.2l5.8-6.5c0,0,1.3-0.8,0-1.8
		c-1.3-1-2.7-1.7-2.7-1.7s-0.6-0.6-1.6,0.4c-0.6,0.5-4.3,4.4-9.6,10.9c-5.9,0.8-12.6,1.3-14.3,1.5c0,0-0.9,0.2-1.2-0.4
		c0,0-0.8-0.5-0.6,0.7c0,0,0.2,3.4,3.4,2.8c1.8-0.3,5.6-0.8,10.3-1.5c-0.8,1-2,2.6-3.3,4.4c-5.8,6.4-15.7,16.6-17.9,15.2
		c0,0-0.5-0.4-0.1-1.5c0.5-1.6,2.4-4.6,6.1-9c0,0,1.7-2.1,1.7-3c-0.1-1.4-0.9-1.4-0.9-1.4s-5-1.5-6.7-3c0.7-1.1,2-3.5,0.3-4.7
		c0,0-2.1-1.3-3.7,1.8c-0.6,1.3-0.6,2.5,0.2,3.6c-1.1,1.2-4.3,4.3-7.5,5.2c-0.2-1.1-0.6-1.8-1.4-2.1c0,0-1.7-0.9-2.7,0.2
		c-0.9,1.1-0.1,2.2,0.9,2.9c-0.3,0.9-1.1,2-2.2,3.7c-1.4,2.2-3.3,4.4-5.8,6.1c-0.9,0.6-4.4,2.6-5.3-0.2c-0.5-1.5,0.3-4.5,2.5-7.9
		c4.5-6.9,10.7-9.2,12.4-8.1c0,0,0.8,0.8,0.3,1.7c0,0-0.2,0.5,0.5,0.5c0.6,0.1,1-0.5,1.1-1.1c0.3-1.5-1.1-3.2-2.6-4.4
		c-0.5-0.4-1-0.6-1.6-0.9c0,0-2.7-0.9-6.3,0.9c-1.1,0.6-5.9,3.2-9.3,9.3c-1.1,1.9-1.8,4-1.8,6.1c0,1.3,0.3,2.6,1,3.9
		c0.3,0.5,1.7,2.4,3.7,3.4c3.9,2,8.5-1.8,10.2-3.4c3.1-2.9,5.5-6.7,6.1-8.3c4.1-1.1,8.2-5.2,9.5-6.6c0.2,0.2,0.5,0.3,0.8,0.5
		l2.5,1.3c-1.4,1.7-1.5,1.7-3,3.8c-1.6,2.2-5.5,7.5-3,10.8c0.5,0.7,1.2,1.5,2.3,1.9c3.3,1.3,7.1-2,13-8.1c0.9-1,1.8-1.9,2.7-2.9
		c-0.4,0.7-0.7,1.5-1,2.2c-1.4,3.6-0.6,6.8,2.3,8.7c1.7,1.1,3.9,0.6,6.4-1c5-3.3,12.3-10.7,17-15.6c-0.2,0.7-0.3,1.4-0.5,2.2
		c-1.1,6.2-4.9,14.1-6.3,12.1c0,0.3,0-1.4-0.9-2c-0.7-0.6-1.4-0.8-2.2-0.2c-1.1,0.7-0.5,3.3,2.7,5c0.7,0.4,1.4,0.6,2,0.7
		c1.8,0.3,5.4,0.3,9.6-2.8c5.7-4.3,12-10.5,12-10.5s1.2-1.1,0.1-1.8c0,0-0.6-0.3-1.1,0.2c-0.3,0.3-0.6,0.6-0.6,0.6
		c0.1-0.1-8.7,8.3-13.9,11.1c0.8-1,1.4-2.5,1.8-4.3c0.4-1.5,1-5.5,1.7-8.4c0.4-1.6,0.9-2.9,1-3.2c0.6-1.4,1.5-1.3,1.7-1.7
		c0.1-0.3,0.1-0.6-0.3-1c-0.3-0.4-0.7-0.8-1.1-1.1c-0.4-0.4-1.3-1-1.7-1.1c-0.3-0.1-0.7,0-1,0.2c-0.3,0.2-0.8,0.7-1.4,1.6
		c-3.1,3.4-13.5,14.5-19.8,18.2c0.3-0.2-5.1,3.5-4-1.3c0.5-2.2,2.7-7.1,8.9-14.8l3.2-3.6c2.6-0.4,5.4-0.8,8.1-1.2
		c0,0,24.1-3,17.6,2.1c0,0,0.4,0.8,1.4,0C359.2,19.4,360,18,359.9,17.2"/>
</g>
</svg>
