<?xml version="1.0" encoding="utf-8"?>
<!-- Generator: Adobe Illustrator 17.1.0, SVG Export Plug-In . SVG Version: 6.00 Build 0)  -->
<!DOCTYPE svg PUBLIC "-//W3C//DTD SVG 1.1//EN" "http://www.w3.org/Graphics/SVG/1.1/DTD/svg11.dtd">
<svg version="1.1" id="Layer_1" xmlns="http://www.w3.org/2000/svg" xmlns:xlink="http://www.w3.org/1999/xlink" x="0px" y="0px"
	 viewBox="0 0 612 116.2" enable-background="new 0 0 612 116.2" xml:space="preserve">
<g>
	<g>
		<g>
			<path fill="#646463" d="M416.4,62.2h-22.8V83h26.2v3.5h-30.3V36h30.1v3.5h-26v19.2h22.8V62.2L416.4,62.2z"/>
			<path fill="#646463" d="M439.2,65l9.8-14.7h4.7L441.5,68l12.8,18.4h-4.7l-10.3-15.3L429,86.5h-4.7L437,68l-12.3-17.7h4.7
				L439.2,65z"/>
			<path fill="#646463" d="M489.3,68.7c0,2.8-0.3,5.2-0.9,7.5c-0.6,2.2-1.5,4.2-2.7,5.8c-1.2,1.6-2.6,2.9-4.3,3.7
				c-1.7,0.9-3.6,1.4-5.8,1.4c-2.6,0-4.8-0.5-6.7-1.4c-1.9-0.9-3.4-2.2-4.6-3.8v18.5h-4v-50h3.7l0.2,5.1c1.2-1.8,2.8-3.2,4.6-4.3
				c1.9-1,4.1-1.5,6.7-1.5c2.2,0,4.2,0.4,5.9,1.3c1.7,0.9,3.2,2.1,4.4,3.7c1.2,1.6,2.1,3.5,2.7,5.8s0.9,4.8,0.9,7.6V68.7z M485.2,68
				c0-2.1-0.2-4-0.6-5.9c-0.4-1.8-1.1-3.4-2-4.8c-0.9-1.3-2-2.4-3.4-3.2c-1.3-0.8-3-1.1-4.8-1.1c-1.5,0-2.7,0.2-3.8,0.6
				c-1.1,0.4-2.1,0.9-2.9,1.5c-0.8,0.6-1.6,1.4-2.2,2.2c-0.6,0.8-1.1,1.7-1.4,2.6v17.3c0.4,0.9,0.9,1.8,1.6,2.5
				c0.6,0.8,1.4,1.5,2.2,2c0.9,0.6,1.8,1,2.9,1.3c1.1,0.3,2.3,0.5,3.7,0.5c1.8,0,3.4-0.4,4.8-1.2c1.3-0.8,2.4-1.8,3.3-3.2
				c0.9-1.3,1.5-2.9,2-4.7c0.4-1.8,0.6-3.8,0.6-5.9L485.2,68L485.2,68z"/>
			<path fill="#646463" d="M513.2,53.7c-0.9-0.1-1.7-0.2-2.7-0.2c-1.4,0-2.6,0.2-3.7,0.6c-1.1,0.4-2.1,1-2.9,1.7
				c-0.8,0.7-1.5,1.6-2.1,2.6c-0.6,1-1,2.1-1.4,3.3v24.8h-4V50.3h3.9l0.1,5.7c1-2,2.3-3.5,4-4.7c1.7-1.1,3.7-1.7,6.2-1.7
				c0.5,0,1,0.1,1.5,0.1c0.5,0.1,0.9,0.2,1.1,0.3L513.2,53.7z"/>
			<path fill="#646463" d="M531.3,87.1c-2.4,0-4.5-0.5-6.5-1.3s-3.7-2.1-5.1-3.7c-1.4-1.6-2.6-3.4-3.4-5.6c-0.8-2.2-1.2-4.5-1.2-7.1
				v-1.4c0-2.8,0.4-5.3,1.3-7.6c0.8-2.3,2-4.2,3.4-5.8c1.4-1.6,3.1-2.8,4.9-3.7c1.9-0.9,3.8-1.3,5.9-1.3c2.3,0,4.3,0.4,6.1,1.3
				c1.8,0.8,3.3,2,4.5,3.4c1.2,1.5,2.1,3.2,2.8,5.2c0.6,2,0.9,4.2,0.9,6.6v2.5h-25.8v0.8c0,2,0.3,3.8,0.9,5.6
				c0.6,1.8,1.4,3.3,2.5,4.6c1.1,1.3,2.4,2.3,3.9,3.1c1.5,0.8,3.2,1.1,5,1.1c2.1,0,4-0.4,5.7-1.2c1.6-0.8,3.1-2.1,4.5-3.8l2.5,1.9
				c-0.6,0.9-1.3,1.7-2.1,2.5c-0.8,0.8-1.7,1.5-2.8,2c-1,0.6-2.2,1-3.5,1.4C534.4,86.9,532.9,87.1,531.3,87.1z M530.6,53
				c-1.5,0-2.9,0.3-4.2,0.9c-1.3,0.6-2.4,1.4-3.4,2.5c-1,1.1-1.8,2.3-2.4,3.9c-0.6,1.5-1.1,3.2-1.3,5H541v-0.5c0-1.5-0.3-3-0.7-4.4
				s-1.1-2.7-2-3.8c-0.9-1.1-1.9-1.9-3.2-2.6C533.8,53.3,532.3,53,530.6,53z"/>
			<path fill="#646463" d="M573.2,77.2c0-0.7-0.1-1.5-0.4-2.2c-0.2-0.7-0.7-1.4-1.4-2.1c-0.7-0.6-1.7-1.2-3-1.8
				c-1.3-0.6-2.9-1.1-4.9-1.5c-2-0.4-3.8-0.9-5.4-1.5c-1.6-0.6-2.9-1.2-4-2c-1.1-0.8-1.9-1.7-2.4-2.8c-0.6-1.1-0.8-2.4-0.8-3.8
				c0-1.3,0.3-2.6,0.9-3.8c0.6-1.2,1.4-2.3,2.5-3.2c1.1-0.9,2.4-1.6,4-2.1c1.6-0.5,3.3-0.8,5.3-0.8c2.1,0,4,0.3,5.6,0.8
				c1.7,0.6,3.1,1.3,4.2,2.3c1.1,1,2,2.1,2.6,3.4c0.6,1.3,0.9,2.7,0.9,4.3h-4c0-0.9-0.2-1.9-0.6-2.7c-0.4-0.9-1-1.7-1.8-2.4
				c-0.8-0.7-1.8-1.2-2.9-1.7c-1.2-0.4-2.5-0.6-4-0.6c-1.5,0-2.9,0.2-4,0.6c-1.1,0.4-2,0.9-2.7,1.5c-0.7,0.6-1.2,1.3-1.5,2
				c-0.3,0.8-0.5,1.5-0.5,2.2c0,0.8,0.1,1.5,0.4,2.2c0.2,0.7,0.7,1.3,1.4,1.8c0.7,0.6,1.7,1.1,3,1.6c1.3,0.5,2.9,1,4.9,1.4
				c2.2,0.5,4.1,1.1,5.6,1.7c1.6,0.6,2.9,1.4,3.9,2.2c1,0.8,1.8,1.8,2.3,2.9c0.5,1.1,0.7,2.4,0.7,3.8c0,1.5-0.3,2.8-0.9,4.1
				c-0.6,1.2-1.5,2.3-2.7,3.2c-1.2,0.9-2.6,1.6-4.2,2.1c-1.7,0.5-3.5,0.7-5.5,0.7c-2.3,0-4.3-0.3-6.1-0.9c-1.8-0.6-3.2-1.4-4.4-2.4
				c-1.2-1-2.1-2.2-2.7-3.4c-0.6-1.3-0.9-2.7-0.9-4.1h4c0.1,1.4,0.5,2.6,1.1,3.6c0.6,0.9,1.5,1.7,2.4,2.2c1,0.6,2,1,3.2,1.3
				c1.2,0.2,2.3,0.4,3.5,0.4c1.5,0,2.8-0.2,4-0.6c1.2-0.4,2.1-0.8,2.9-1.5c0.8-0.6,1.4-1.3,1.8-2.1C573,78.9,573.2,78.1,573.2,77.2z
				"/>
			<path fill="#646463" d="M606,77.2c0-0.7-0.1-1.5-0.4-2.2c-0.3-0.7-0.7-1.4-1.4-2.1c-0.7-0.6-1.7-1.2-2.9-1.8
				c-1.3-0.6-2.9-1.1-4.9-1.5c-2-0.4-3.8-0.9-5.4-1.5c-1.6-0.6-2.9-1.2-4-2c-1.1-0.8-1.9-1.7-2.4-2.8c-0.6-1.1-0.8-2.4-0.8-3.8
				c0-1.3,0.3-2.6,0.9-3.8c0.6-1.2,1.4-2.3,2.5-3.2c1.1-0.9,2.4-1.6,4-2.1c1.6-0.5,3.3-0.8,5.3-0.8c2.1,0,4,0.3,5.6,0.8
				c1.7,0.6,3.1,1.3,4.2,2.3c1.1,1,2,2.1,2.6,3.4c0.6,1.3,0.9,2.7,0.9,4.3h-4c0-0.9-0.2-1.9-0.6-2.7c-0.4-0.9-1-1.7-1.8-2.4
				c-0.8-0.7-1.8-1.2-2.9-1.7c-1.2-0.4-2.5-0.6-4-0.6c-1.6,0-2.9,0.2-4,0.6c-1.1,0.4-2,0.9-2.7,1.5c-0.7,0.6-1.2,1.3-1.5,2
				c-0.3,0.8-0.5,1.5-0.5,2.2c0,0.8,0.1,1.5,0.4,2.2c0.2,0.7,0.7,1.3,1.4,1.8c0.7,0.6,1.7,1.1,2.9,1.6c1.3,0.5,2.9,1,4.9,1.4
				c2.2,0.5,4.1,1.1,5.6,1.7c1.6,0.6,2.9,1.4,3.9,2.2c1,0.8,1.8,1.8,2.3,2.9c0.5,1.1,0.8,2.4,0.8,3.8c0,1.5-0.3,2.8-0.9,4.1
				c-0.6,1.2-1.5,2.3-2.7,3.2c-1.2,0.9-2.6,1.6-4.2,2.1c-1.7,0.5-3.5,0.7-5.5,0.7c-2.3,0-4.3-0.3-6.1-0.9c-1.8-0.6-3.3-1.4-4.5-2.4
				c-1.2-1-2.1-2.2-2.7-3.4c-0.6-1.3-0.9-2.7-0.9-4.1h4c0.1,1.4,0.5,2.6,1.1,3.6c0.7,0.9,1.5,1.7,2.4,2.2c0.9,0.6,2,1,3.2,1.3
				c1.2,0.2,2.3,0.4,3.5,0.4c1.5,0,2.9-0.2,4-0.6c1.2-0.4,2.1-0.8,2.9-1.5c0.8-0.6,1.4-1.3,1.8-2.1C605.8,78.9,606,78.1,606,77.2z"
				/>
		</g>
	</g>
	<g>
		<polygon fill="#E0E1E0" points="103.1,38.3 75,73.4 87.8,46.8 83.5,45.4 65,84.3 31.7,64 29.6,67.9 55.7,83.9 6.1,73.3 3.8,77.3 
			66.9,90.7 107.7,39.5 		"/>
		<polygon fill="#DC4537" points="63.9,116.2 85.6,108.4 77.7,86.7 56.1,94.6 		"/>
		<path fill="#3F4DA1" d="M29.6,67.9c0,0,4.7-49,7.2-61.5C8.1,16.9-6.7,48.6,3.8,77.3L29.6,67.9z"/>
		<path fill="#FFCE41" d="M87.8,46.8L36.8,6.4c28.7-10.4,60.4,4.4,70.9,33L87.8,46.8z"/>
		
			<linearGradient id="SVGID_1_" gradientUnits="userSpaceOnUse" x1="18513.4004" y1="18015.8594" x2="18613.1094" y2="17998.334" gradientTransform="matrix(0.1507 -2.656080e-02 2.656080e-02 0.1507 -3185.0847 -2195.2568)">
			<stop  offset="0" style="stop-color:#BE3B26;stop-opacity:0.1"/>
			<stop  offset="1" style="stop-color:#BE3B26;stop-opacity:2.000000e-02"/>
		</linearGradient>
		<polygon fill="url(#SVGID_1_)" points="63.5,13.6 87.8,46.8 104.3,40.7 		"/>
		<g>
			<g>
				<g>
					<defs>
						<path id="SVGID_2_" d="M29.6,67.9c0,0,4.7-49,7.2-61.5C8.1,16.9-6.7,48.6,3.8,77.3L29.6,67.9z"/>
					</defs>
					<clipPath id="SVGID_3_">
						<use xlink:href="#SVGID_2_"  overflow="visible"/>
					</clipPath>
					<g clip-path="url(#SVGID_3_)">
						<g>
							<g>
								<g>
									<g>
										<path fill="#39A4DD" d="M29.7,67.7c-5-13.8-7-27.7-5.6-39.2C25.4,17,29.9,9.3,36.7,6.7l18.8,51.6L29.7,67.7z"/>
									</g>
								</g>
							</g>
						</g>
					</g>
				</g>
			</g>
		</g>
		<path fill="#39A4DD" d="M87.8,46.8C77.3,18.1,51.3,1.2,36.8,6.4c-14.4,5.2-17.7,32.8-7.2,61.5L87.8,46.8z"/>
	</g>
</g>
<g>
	<path fill="#646463" d="M194.6,56.2h-27.3v8h19.4c-0.9,11.3-10.3,16.1-19.2,16.1c-11.3,0-21.2-8.9-21.2-21.4
		c0-12.2,9.4-21.5,21.2-21.5c9.1,0,14.5,5.8,14.5,5.8l5.6-5.8c0,0-7.2-8-20.4-8c-16.8,0-29.7,14.2-29.7,29.4
		c0,15,12.2,29.6,30.2,29.6c15.8,0,27.4-10.8,27.4-26.8C195.1,58.2,194.6,56.2,194.6,56.2L194.6,56.2z"/>
	<path fill="#646463" d="M217.7,50.4c-11.1,0-19.1,8.7-19.1,18.8c0,10.3,7.7,19.1,19.2,19.1c10.4,0,18.9-7.9,18.9-18.9
		C236.7,56.9,226.8,50.4,217.7,50.4L217.7,50.4z M217.8,57.9c5.5,0,10.6,4.4,10.6,11.5c0,7-5.2,11.5-10.7,11.5
		c-6.1,0-10.8-4.9-10.8-11.6C206.9,62.8,211.7,57.9,217.8,57.9L217.8,57.9z"/>
	<path fill="#646463" d="M258.9,50.4c-11.1,0-19.1,8.7-19.1,18.8c0,10.3,7.7,19.1,19.2,19.1c10.4,0,18.9-7.9,18.9-18.9
		C278,56.9,268.1,50.4,258.9,50.4L258.9,50.4z M259.1,57.9c5.5,0,10.6,4.4,10.6,11.5c0,7-5.2,11.5-10.7,11.5
		c-6.1,0-10.8-4.9-10.8-11.6C248.2,62.8,252.9,57.9,259.1,57.9L259.1,57.9z"/>
	<path fill="#646463" d="M299.6,50.4c-10.2,0-18.2,8.9-18.2,19c0,11.4,9.3,19,18,19c5.4,0,8.3-2.1,10.4-4.6v3.7
		c0,6.5-4,10.5-10,10.5c-5.8,0-8.7-4.3-9.7-6.8l-7.3,3c2.6,5.5,7.8,11.2,17.1,11.2c10.1,0,17.9-6.4,17.9-19.8V51.1h-8v3.7
		C307.4,52.2,304.1,50.4,299.6,50.4L299.6,50.4z M300.4,57.9c5,0,10.1,4.3,10.1,11.6c0,7.4-5.1,11.5-10.2,11.5
		c-5.4,0-10.5-4.4-10.5-11.4C289.8,62.2,295,57.9,300.4,57.9L300.4,57.9z"/>
	<path fill="#646463" d="M352.5,50.4c-9.6,0-17.7,7.7-17.7,19c0,12,9,19,18.6,19c8,0,13-4.4,15.9-8.3l-6.6-4.4
		c-1.7,2.6-4.5,5.2-9.3,5.2c-5.3,0-7.8-2.9-9.3-5.8l25.4-10.6l-1.3-3.1C365.8,55.5,360.1,50.4,352.5,50.4L352.5,50.4z M352.8,57.7
		c3.5,0,6,1.8,7,4.1l-17,7.1C342.1,63.3,347.3,57.7,352.8,57.7L352.8,57.7z"/>
	<rect x="323.1" y="31.3" fill="#646463" width="7.8" height="55.9"/>
</g>
</svg>
