<?xml version="1.0" encoding="utf-8"?>
<!-- Generator: Adobe Illustrator 17.1.0, SVG Export Plug-In . SVG Version: 6.00 Build 0)  -->
<!DOCTYPE svg PUBLIC "-//W3C//DTD SVG 1.1//EN" "http://www.w3.org/Graphics/SVG/1.1/DTD/svg11.dtd">
<svg version="1.1" id="Layer_1" xmlns="http://www.w3.org/2000/svg" xmlns:xlink="http://www.w3.org/1999/xlink" x="0px" y="0px"
	 viewBox="135 257 353 236" enable-background="new 135 257 353 236" xml:space="preserve">
<path fill="#171614" d="M468.7,420.7c1.5,0.9,2.9,1.2,4.5,1.2c0,0,0,0,0.1,0c1.6,0,3.1-0.4,4.5-1.2c1.5-0.8,2.5-1.9,3.3-3.3
	c0.9-1.5,1.2-3,1.2-4.5c0-1.6-0.4-3.1-1.2-4.6c-0.8-1.5-2-2.5-3.4-3.3s-2.9-1.2-4.4-1.2c-0.1,0-0.1,0-0.1,0c-1.5,0.1-3,0.4-4.4,1.2
	s-2.5,1.9-3.4,3.3s-1.2,3-1.2,4.6c0,1.5,0.4,3.1,1.2,4.5C466.1,418.8,467.1,420,468.7,420.7z M466.6,409.1c0.7-1.2,1.6-2.2,2.8-2.8
	c1.2-0.7,2.5-1,3.7-1c0,0,0,0,0.1,0c1.2,0,2.5,0.4,3.7,1c1.2,0.7,2.2,1.6,2.8,2.8c0.7,1.2,1,2.5,1,3.9c0,1.3-0.3,2.5-1,3.8
	c-0.7,1.2-1.6,2.1-2.8,2.8c-1.2,0.7-2.5,1-3.8,1c-0.1,0-0.1,0-0.1,0c-1.3,0-2.5-0.3-3.8-1c-1.2-0.7-2.2-1.6-2.8-2.8
	c-0.7-1.2-1-2.5-1-3.8C465.5,411.6,465.9,410.2,466.6,409.1z"/>
<path fill="#171614" d="M470.7,413.7h0.9c0.6,0,1,0.1,1.2,0.4c0.1,0.1,0.1,0.1,0.2,0.1c0.4,0.4,0.9,1.1,1.5,2.1l0.9,1.6h1.9l-1.2-2
	c-0.6-0.9-1.1-1.6-1.5-2c-0.2-0.2-0.4-0.4-0.9-0.5c0.9-0.1,1.5-0.4,2-0.9c0.5-0.5,0.8-1.2,0.8-1.9c0-0.5-0.1-1-0.4-1.4
	c-0.3-0.4-0.7-0.8-1.2-0.9c-0.4-0.1-1-0.3-1.9-0.3c-0.1,0-0.4-0.1-0.6-0.1h-3.4v9.8h1.6V413.7z M470.7,409.4h1.8c0.2,0,0.4,0,0.6,0
	c0.4,0.1,0.8,0.1,1,0.1c0.3,0.1,0.5,0.3,0.7,0.5c0.1,0.2,0.2,0.4,0.2,0.8c0,0.4-0.1,0.8-0.4,1c-0.3,0.3-0.7,0.4-1.4,0.4
	c-0.1,0-0.3,0-0.4,0h-2L470.7,409.4L470.7,409.4z"/>
<polygon fill="#171614" points="235.7,410.5 249.8,410.5 235.7,387 223.8,367.1 173.1,397.6 180.8,410.5 "/>
<polygon fill="#171614" points="367.1,410.5 393.2,410.5 436.2,410.5 393.2,338.9 345.7,259.9 326.1,271.7 295,290.4 326.1,342.1 
	"/>
<path fill="#171614" d="M343.1,434.2c-4.9-3.1-10.5-4.9-16.7-4.9c-0.1,0-0.1,0-0.1,0c-17.1,0.1-31,14-31,31.1
	c0,17.1,13.9,31,31,31.1c0.1,0,0.1,0,0.1,0c6.2,0,11.8-1.8,16.7-4.9v3.3h14.3v-29.4v-49.7h-14.3V434.2z M343.1,463.5
	c-1.5,7.8-8.5,13.9-16.7,13.9c-0.1,0-0.1,0-0.1,0c-9.4-0.1-16.9-7.8-16.9-17.1c0-9.4,7.6-17,16.9-17.1c0.1,0,0.1,0,0.1,0
	c8.3,0,15.3,6,16.7,13.8V463.5z"/>
<path fill="#171614" d="M410.2,434.2c-4.8-3.1-10.5-4.9-16.7-4.9c-0.1,0-0.1,0-0.1,0c-17.1,0.1-31,14-31,31.1
	c0,17.1,13.9,31,31,31.1c0.1,0,0.1,0,0.1,0c6.2,0,11.9-1.8,16.7-4.9v3.3h14.3v-29.4v-29.5h-14.3V434.2z M410.2,463.5
	c-1.5,7.8-8.5,13.9-16.7,13.9c-0.1,0-0.1,0-0.1,0c-9.4-0.1-16.9-7.8-16.9-17.1c0-9.4,7.6-17,16.9-17.1c0.1,0,0.1,0,0.1,0
	c8.3,0,15.3,6,16.7,13.8V463.5z"/>
<path fill="#171614" d="M475.2,456.4c-0.5-0.3-1.2-0.5-2.1-0.9c-3.2-1.1-8.4-2.5-15.6-4c-6.3-1.4-9.5-3.3-9.5-5.5
	c0-1.6,0.6-2.9,1.7-3.9c1.5-1.2,4.1-1.9,7.8-1.9c3.9,0,6.6,0.9,8.2,2.5c1,1,1.7,2.8,2.2,5.3h5.2h10c0-7.4-3.1-12.8-9-16
	c-0.3-0.2-0.7-0.4-1-0.5c-4.1-2-9.6-2.9-16.5-2.9c-8.3,0-14.6,2.2-18.8,6.6c-3.3,3.6-4.9,7.9-4.9,13c0,6.4,3.1,11,9.5,14
	c2.4,1.2,8.3,2.8,17.6,4.8c6.3,1.4,9.4,3.3,9.4,5.7c0,1.5-0.7,2.7-2,3.9c-1.7,1.5-4.4,2.2-7.8,2.2c-4.7,0-7.9-0.8-9.9-2.3
	c-2-1.5-2.9-3.6-2.9-6.3h-15.9c0,7.2,3.1,12.6,9.2,16.1c4.9,2.8,11.3,4.2,19.2,4.2c5.3,0,10-0.9,14-2.6c0.9-0.4,1.6-0.7,2.3-1.2
	c6.3-3.5,9.4-8.9,9.4-16.5C484.9,464,481.7,459.4,475.2,456.4z"/>
<path fill="#171614" d="M184.9,434.2c-4.9-3.1-10.6-4.9-16.8-4.9c-0.1,0-0.1,0-0.1,0c-17,0.1-30.9,14-30.9,31.1
	c0,17.1,13.9,31,30.9,31.1c0.1,0,0.1,0,0.1,0c6.2,0,11.9-1.8,16.8-4.9v3.3h14.2v-29.4v-29.5h-14.3L184.9,434.2L184.9,434.2z
	 M184.9,463.5c-1.5,7.8-8.5,13.9-16.8,13.9c-0.1,0-0.1,0-0.1,0c-9.3-0.1-16.9-7.8-16.9-17.1c0-9.4,7.6-17,16.9-17.1
	c0.1,0,0.1,0,0.1,0c8.3,0,15.3,6,16.8,13.8V463.5z"/>
<rect x="274.1" y="410.8" fill="#171614" width="15.6" height="13.7"/>
<rect x="274.1" y="429.1" fill="#171614" width="15.6" height="60.5"/>
<path fill="#171614" d="M252.6,434.2c-4.9-3.1-10.6-4.9-16.8-4.9c-0.1,0-0.1,0-0.1,0c-17.1,0.1-31,14-31,31.1
	c0,17.1,13.9,31,31,31.1c0.1,0,0.1,0,0.1,0c6.2,0,11.9-1.8,16.8-4.9v3.3H267v-29.4v-49.7h-14.3V434.2z M252.6,463.5
	c-1.5,7.8-8.5,13.9-16.8,13.9c-0.1,0-0.1,0-0.1,0c-9.4-0.1-16.9-7.8-16.9-17.1c0-9.4,7.6-17,16.9-17.1c0.1,0,0.1,0,0.1,0
	c8.3,0,15.3,6,16.8,13.8V463.5z"/>
<polygon fill="#171614" points="343,410.5 326.1,382.4 284.7,313.5 235.7,343 234,344 235.7,346.8 274,410.5 326.1,410.5 "/>
</svg>
