<?xml version="1.0" encoding="utf-8"?>
<!-- Generator: Adobe Illustrator 17.1.0, SVG Export Plug-In . SVG Version: 6.00 Build 0)  -->
<!DOCTYPE svg PUBLIC "-//W3C//DTD SVG 1.1//EN" "http://www.w3.org/Graphics/SVG/1.1/DTD/svg11.dtd">
<svg version="1.1" id="Layer_1" xmlns="http://www.w3.org/2000/svg" xmlns:xlink="http://www.w3.org/1999/xlink" x="0px" y="0px"
	 viewBox="183 412 242 103" enable-background="new 183 412 242 103" xml:space="preserve">
<path fill="#171614" d="M257.7,430.1c-19.1-12-43.7-20.4-67.6-13.5c-3,1-4.5,4.2-4.9,7c1.5,1.9,3.9,1.5,6.3,1.5
	c0.6-0.4,1.6-0.4,1.8-1.2c-0.9-1.8-3.2-1.2-4.4-2.1c0.7-0.7,1.8-0.5,2.6-1c23.3-3.4,46.1,3.8,64.4,16.9c9.7,6.9,18.8,17.2,15.6,29.7
	c-4.1,12-20.4,13.8-33.1,13.7c-2.8,0-5.2-0.5-7.8-1.4c0.1-7.5-0.1-16.8-0.2-21.6c5.2-0.3,15.4,1.3,22,4.2c1.3,0.8-2.5,3.4-3.9,4.7
	c-0.8,0.9,2.1,1.8,4,1.6c2.9-0.5,5.4-2.8,6.6-5.5c0.9-2.6-0.4-4.6-2-6.3c-7.2-6.1-17-6.1-26.7-6.3c-0.1-3.4-0.2-8.4-0.8-11.5
	s-2.1-4.4-4.4-4.9c-1.8,2-2.1,4.6-2.4,7.3c-0.4,3.3-0.7,6.9-1,9.8c0,0-5.2,1-8.3,1.8c-3.1,0.7-15.2,4.6-14.2,10.8
	c1.4,5.5,10.1,12.1,16.1,16c1.9,1.3,3.9,2.4,6.1,3.4c0.2,2.9,0.7,5.6,2.6,7.9c0.6,0.5,2.7,0.4,4.4,0c2-0.8,2.1-3,2.2-4.6
	c2.1,0.4,4.6,1,8.3,1.4c14.6,1.8,32.4-2.4,40.4-16.9c6.7-14-4.9-27.5-13.7-35C264.4,435.1,260,431.5,257.7,430.1z M294.2,420.5
	c-7.2,1.3-15.1,5.6-17.4,13.1c-0.6,2.9,0.1,5.6,2.2,7.6c-0.2,1.8-0.5,4.4,1.5,5.6c2.2,1.2,2.7-1.5,3.9-2.5
	c6.6,2.6,12.9-0.5,17.9-4.4c3.9-3.3,8.6-7.3,6.7-12.7c-1-2.1-3.3-3.4-5.5-3.4C301.3,421,297.7,420,294.2,420.5z M290,427.3
	c-3.3,2.5-6.1,5.5-8.3,8.9c-1.2-2.1,0.7-4.2,2.1-6C285.4,428.7,287.7,427.1,290,427.3z M304.8,429.4c0.8,2.1-1.9,5.3-4.4,6.8
	c-3.9,2.1-8.1,3.8-13.1,3.2c0.6-1.8,1.9-3.3,3.8-5.2c3.5-3.3,8.1-7.5,12.5-6.1C304.2,428.3,304.5,428.5,304.8,429.4z M348,444.9
	c-1.3-0.2-1.2,1.6-0.9,2.6c1.5,6.4,3.9,12.7,4.4,19.5c0.1,1.4,0.6,3.3-0.4,4.4c-5-6.2-8-13.6-14.1-19c-1-0.8-2.1,0-2.7,1
	c-2.8,5.8-3.9,12.1-4.4,18.8c-0.2,3.6-0.9,8.3,2.8,10.2c1,0.4,2.6,0.2,2.9-0.9c1.6-5.4,1.4-11.7,1.6-17.7c0-0.5,0.4-1.6,0.7-1.2
	c2.6,4.9,5.1,9.2,7.9,13.7c1.4,2.3,2.7,4.5,5.3,4.4c2.6-0.4,4.7-2.4,5.9-4.4c2.9-8.4,1-18.3-3.2-25.4
	C352.6,448.6,350.8,445.6,348,444.9z M397.9,451c-6.1,7.3-12.6,16.9-7.5,26.4c-3.3,8.7-6.1,17.6-6.7,27.4c0.1,2.5,2.1,4.6,4.2,5.9
	c0.7,0.4,2.4,1.3,2.6,0.5c1.6-9.4,4-18.5,7.3-27.3c3.1,0.4,5,0.3,9.2-1.5c7-3.4,13.7-10.8,14.1-18.9c0.1-4.4-1.5-8.4-5.3-10.9
	c-1.2-0.8-2.5-0.4-3.6,0.1c-7.3,4.2-16.1,14-18.1,18.3c-0.4-8.3,6.7-13.6,7.3-21.2C401.3,447.8,398.8,449.9,397.9,451z M324.8,450.5
	c-10-1.7-21.1-1.2-28.3,5.8c-1.3,1.3-1.2,3.9-1,5.6c0.3,1.2,1.6,2.4,2.8,2.7c7.9,1.8,18-0.4,24.6,4.9c0.9,1,0.1,2.2-0.9,2.7
	c-6.2,2.6-12.8,4.4-20.1,2.9c-1-0.2-2.4-1.3-2-2.3c2.9-4.4,7.9-0.1,11.5,0.5c1.8,0.4,5.9-0.1,7.9-2.2c0.6-1.2-1.6-1.9-3-2.4
	c-5.2-1.4-12.4-3-17.2,0.2c-1.3,0.9-2.5,3.8-1.5,6c4,6.4,11.7,8.6,18.8,7.5c4.9-0.8,10.7-2.5,11.8-8c0.5-3.5,0.4-7.3-2.6-9.7
	c-6.8-4.6-16.6-2.1-24-5.2c-0.2-0.4-0.1-0.5,0.4-0.7c8-2.5,17.4-1.5,25.6-3.5c1.2-0.4,2.3-2.2,1.8-3.2
	C327.9,451,326.4,450.8,324.8,450.5z M383.8,450c-4.7-0.7-14.6,1.3-21.5,2.4c-0.9,0.1-0.7,0.9-0.5,1.6c0.6,2.8,3.6,2.4,5.6,3.4
	c-0.9,1.9-1.3,3.9-2.5,5.6c-1,0.4-2.8,0.1-2.9,1.8c-0.1,1,0.7,1.6,0.6,3c-1.1,2.8-3,5.7-2.2,9.4c0.9,3.2,2.4,6.7,4.7,7.2
	c7.3,1.4,13.2-2.7,18.8-6.8c1-1-0.9-3.9-1.5-4c-4.9-0.6-9.5,1.5-14.4,1.4c0.5-2.4,1.1-4.4,2.2-6.4c4-0.6,10,0.2,12.4-1.6
	c0.7-0.9,0.4-3.4-0.2-3.8c-3-1-7-0.7-10.1-0.5c0.5-1.6,1-3.3,1.6-4.9c2.6,0.2,5.2,0.1,7.5-0.1c2.5-0.2,5.5,0.2,7.3-1.8
	c0.5-1-1.5-3.7-2.6-4.6C384.9,450.5,384.4,450.2,383.8,450z M288,450.4c-1.3-0.1-1.8,1.9-2,2.8c-1,7-1.5,14.9-1.3,22.5
	c0.1,2.9-0.4,6.7,3.2,7.4c1.4,0.4,4,0,4.2-0.9c0.7-8.9-0.2-18.9-0.9-28C291.1,453.2,289.9,450.9,288,450.4z M416.2,463.9
	c-0.9,5.5-7.6,10.2-11.1,11.2c-1.2,0.3-1.6,0.3-2.9,0.4c1.9-4.5,7.2-12.2,12.7-17C415.8,457.5,416.4,462,416.2,463.9z M221.7,458.7
	c-0.4,6.5-0.5,13.7-0.5,18.3c-7-2.1-14.6-6.1-19.5-12.7c-1.2-1.8,3.2-2.9,5.3-3.5C211.7,459.6,216.6,459,221.7,458.7z"/>
</svg>
