<?xml version="1.0" encoding="utf-8"?>
<!-- Generator: Adobe Illustrator 17.1.0, SVG Export Plug-In . SVG Version: 6.00 Build 0)  -->
<!DOCTYPE svg PUBLIC "-//W3C//DTD SVG 1.1//EN" "http://www.w3.org/Graphics/SVG/1.1/DTD/svg11.dtd">
<svg version="1.1" id="Layer_1" xmlns="http://www.w3.org/2000/svg" xmlns:xlink="http://www.w3.org/1999/xlink" x="0px" y="0px"
	 viewBox="14 343 580 102" enable-background="new 14 343 580 102" xml:space="preserve">
<g>
	<g>
		<path fill="#171614" d="M364.9,418.2c0-18.6,0-37.3,0-56.7c12.9,0.7,26.1-2.6,38.1,5c9.9,6.2,14.6,17.6,12.3,29.9
			c-2,10.3-12,20.5-22.7,21.5C383.5,418.8,374.3,418.2,364.9,418.2z M375.3,370.6c0,13.5,0,26.1,0,38.8c5.1,0,10.1,0.6,14.7-0.1
			c9.6-1.4,16.1-9.8,16-19.3c-0.1-9.9-6.4-17.1-16.4-18.7C384.9,370.8,380.4,370.9,375.3,370.6z"/>
		<path fill="#171614" d="M293.8,389.8c0.6-16.4,14.3-29.6,30-29c16.3,0.6,29.9,14.5,29,30.2c-1,18.1-14.3,29.2-30,29
			C306.4,419.5,293.2,405.5,293.8,389.8z M303.9,389.6c-0.3,11.3,7.9,20.7,18.8,21.1c10.8,0.4,19.7-8.4,20.1-19.8
			c0.4-11.2-8.1-20.7-18.8-21C313.2,369.5,304.3,378.3,303.9,389.6z"/>
		<path fill="#171614" d="M467.1,409.5c0,3.4,0,6.1,0,9.1c-13.6,0-26.8,0-40.5,0c0-18.8,0-37.7,0-57c13.5,0,26.9,0,40.5,0
			c0,2.8,0,5.5,0,8.8c-9.9,0-19.8,0-30.2,0c0,5.1,0,9.6,0,14.9c6.4,0,12.6,0,19.1,0c0,3.3,0,5.8,0,8.9c-6.4,0-12.8,0-19.3,0
			c0,5.2,0,10.1,0,15.3C446.8,409.5,456.7,409.5,467.1,409.5z"/>
	</g>
</g>
<g>
	<path fill="#171614" d="M550.4,388.4c7.8-8.5,17-18.4,25.4-27.6h-13l-24.8,25.8c0-8.6,0-17.1,0-25.8c-3.4,0-6.4,0-9.8,0
		c0,19.3,0,38.1,0,57c3.4,0,6.4,0,9.9,0c0-9.4,0-18.6,0-28.6c0,0,17.8,18.1,27.1,28.6h13.5C569.5,408.2,558.2,396.4,550.4,388.4z"/>
</g>
<g>
	<path fill="#171614" d="M155.6,360.7l-9.6,0.1l-25.2,57.2h11.1l5.7-13.7h26.6l5.8,13.7h10.9L155.6,360.7z M141.1,395.3l9.4-22.7
		l9.6,22.7H141.1z"/>
</g>
<g>
	<polygon fill="#171614" points="245.5,369.5 263.8,369.5 263.8,417.8 273.1,417.8 273.1,369.5 288.3,369.5 292.1,360.7 
		245.5,360.7 	"/>
</g>
<g>
	<path fill="#171614" d="M498.2,385c-13.3-3.8-11.8-9.5-11-11c0.7-1.6,3-4.4,11.5-4.4s14.5,3.5,14.5,3.5l3.7-7.5
		c-0.3-0.4-7.1-4.5-18.4-4.7c-11.3-0.3-21.4,6.2-21.4,15.3c0,9.1,5.5,13.3,16.1,16.4c12.2,3.5,15.9,6.7,15.9,11.2s-2.5,7.8-11.3,7.8
		c-7.5,0-16.7-5.9-19-7.6l-3.5,7.6c3,2,13.7,8.1,23.1,8.1c10.8,0,19.7-5.2,20-16.2C518.8,392.2,510.3,388.4,498.2,385z"/>
</g>
<g>
	<path fill="#171614" d="M223.8,394.7c0,7.9-6.4,14.3-14.3,14.3c-7.9,0-14.3-6.4-14.3-14.3v-34h-10.6v33.1
		c0,13.7,11.2,24.8,24.8,24.8c13.7,0,24.8-11.2,24.8-24.8v-33.1h-10.3V394.7z"/>
</g>
<g>
	<path fill="#171614" d="M591,414.1c0,2-1.6,3.7-3.7,3.7s-3.7-1.6-3.7-3.7c0-2,1.7-3.5,3.7-3.5C589.5,410.6,591,412.2,591,414.1z
		 M584.7,414.1c0,1.6,1.1,2.8,2.8,2.8c1.6,0,2.7-1.3,2.7-2.8c0-1.6-1.1-2.8-2.7-2.8C585.8,411.3,584.7,412.6,584.7,414.1z
		 M586.8,416h-0.8v-3.5c0.3,0,0.8-0.1,1.4-0.1c0.7,0,1,0.1,1.3,0.3c0.1,0.1,0.3,0.4,0.3,0.9c0,0.4-0.3,0.7-0.7,0.9l0,0
		c0.3,0.1,0.6,0.4,0.7,0.8c0.1,0.6,0.1,0.7,0.3,0.9h-0.9c-0.1-0.1-0.1-0.4-0.3-0.9c0-0.4-0.3-0.6-0.7-0.6h-0.4v1.4H586.8z
		 M586.9,414h0.4c0.4,0,0.8-0.1,0.8-0.6c0-0.3-0.3-0.6-0.7-0.6c-0.3,0-0.4,0-0.4,0v1.1H586.9z"/>
</g>
<g>
	<path fill="#171614" d="M48,345.6c-2.4,0.1-3.5,1.6-3.5,1.7l0,0l0,0l-26.6,63c0,0,0,0.1-0.1,0.3c-0.6,1.6-0.4,3,0,4l0.3,0.6
		c1.1,1.8,3.4,2.7,4.7,2.7c1,0,9.2,0,19.1,0l20.4-47.3c-5.1-12-8.9-21.1-9.5-22.2C51.6,346,49.4,345.4,48,345.6z"/>
	<path fill="#171614" d="M22.8,417.8c-1.3,0-3.5-1-4.7-2.7l7.5,13.9l6.1,11.2c1.3,2.4,4.7,2.7,4.7,2.7c3.5,0.3,9.9-3,11.2-3.7
		c1.3-0.7,30.6-18.8,34.4-21.2c-4.1,0-24.4,0-40,0C32,417.8,23.9,417.8,22.8,417.8z"/>
	<path fill="#171614" d="M18.1,415.1l-0.3-0.6C17.9,414.7,18,414.8,18.1,415.1z"/>
	<path fill="#171614" d="M44.3,347.3L44.3,347.3L44.3,347.3z"/>
	<path fill="#171614" d="M44.3,347.3L44.3,347.3L44.3,347.3z"/>
	<path fill="#171614" d="M44.3,347.3L44.3,347.3L44.3,347.3L44.3,347.3z"/>
	<path fill="#171614" d="M79.9,347.7c0,0-0.7-2.4-4.1-2.4c0,0-4.7,0-10.1,0c-7.8,0-17.3,0-17.9,0c-1.7,0.1-3,1.3-3.5,2
		c0.1-0.1,1.1-1.6,3.5-1.7c1.4-0.1,3.5,0.4,4.7,2.7c0.6,1.1,4.4,10.2,9.5,22.2c11,26.4,28.2,67.1,30.5,72.4H120L79.9,347.7z"/>
</g>
</svg>
