<?xml version="1.0" encoding="utf-8"?>
<!-- Generator: Adobe Illustrator 20.1.0, SVG Export Plug-In . SVG Version: 6.00 Build 0)  -->
<svg version="1.1" id="Layer_1" xmlns="http://www.w3.org/2000/svg" xmlns:xlink="http://www.w3.org/1999/xlink" x="0px" y="0px"
	 viewBox="0 0 580 102" style="enable-background:new 0 0 580 102;" xml:space="preserve">
<style type="text/css">
	.st0{fill-rule:evenodd;clip-rule:evenodd;}
</style>
<g>
	<g>
		<path d="M100.4,8h32.1c17.3,0,29.3,8,29.3,26.5c0,19-10.3,27.4-28.6,27.4h-11.9v26.7h-21V8z M121.4,45h3.5c7.6,0,15.1,0,15.1-9.8
			c0-10.2-7-10.3-15.1-10.3h-3.5V45z"/>
		<path d="M222.2,64.5h-41c0,7.9,4.2,12.2,12.2,12.2c4.2,0,7.2-1.4,9.3-5h18.7c-3.1,12.9-15.4,18.8-27.9,18.8
			c-18.2,0-31.8-10.3-31.8-29.2c0-18.3,12.5-29.3,30.4-29.3c19,0,30.1,11.8,30.1,30.5V64.5z M204.1,53.3c-1-5.2-5.8-8.7-11-8.7
			c-5.7,0-10.4,3-11.6,8.7H204.1z"/>
		<path d="M247.9,42.8h0.2c3.7-6.7,10.2-9.7,17.8-9.7h3.7v18.7c-2.7-1.5-5.2-1.8-8.2-1.8c-10.8,0-13.5,7.2-13.5,16.6v22.1h-19.5
			V33.8h19.5V42.8z"/>
		<path d="M316.4,51.7c-2.9-2.1-6.3-3.9-10.1-3.9c-7.5,0-13.4,5.8-13.4,13.4c0,7.9,5.7,13.5,13.7,13.5c3.4,0,7.2-1.4,9.7-3.7v16.5
			c-4.3,2.1-9,3.1-13.7,3.1c-16.3,0-29.8-12.1-29.8-28.7c0-17.7,13.5-29.8,30.7-29.8c4.5,0,9,1.1,12.8,3.2V51.7z"/>
		<path d="M386.3,61.3c0,18.6-15.4,29.2-33.1,29.2c-17.5,0-33.1-10.5-33.1-29.2S335.5,32,353.2,32S386.3,42.6,386.3,61.3z
			 M340.7,61.3c0,7,4.6,12.3,12.5,12.3c7.9,0,12.5-5.3,12.5-12.3c0-6.7-4.6-12.4-12.5-12.4C345.3,48.9,340.7,54.6,340.7,61.3z"/>
		<path d="M411,88.7h-19.5V8H411V88.7z"/>
		<path d="M480.5,88.7H461v-6.1h-0.2c-3.4,5.5-10.2,7.9-16.6,7.9c-16.3,0-27.7-13.6-27.7-29.3c0-15.7,11.2-29.2,27.5-29.2
			c6.3,0,12.9,2.4,17,7.2v-5.3h19.5V88.7z M436.6,61.3c0,7,4.6,12.3,12.5,12.3c7.9,0,12.5-5.3,12.5-12.3c0-6.7-4.6-12.4-12.5-12.4
			C441.2,48.9,436.6,54.6,436.6,61.3z"/>
		<path d="M506.6,88.7h-19.5V17.3h19.5v16.5h11v16h-11V88.7z"/>
		<path d="M580.2,64.5h-41c0,7.9,4.2,12.2,12.2,12.2c4.2,0,7.2-1.4,9.3-5h18.7c-3.1,12.9-15.4,18.8-27.9,18.8
			c-18.2,0-31.8-10.3-31.8-29.2c0-18.3,12.5-29.3,30.4-29.3c19,0,30.1,11.8,30.1,30.5V64.5z M562.1,53.3c-1-5.2-5.8-8.7-11-8.7
			c-5.7,0-10.4,3-11.6,8.7H562.1z"/>
	</g>
	<path class="st0" d="M67.4,57.2c0,18.4-15.1,33.3-33.7,33.3S0,75.6,0,57.2C0,36.1,33.7,8,33.7,8S67.4,36.1,67.4,57.2"/>
</g>
</svg>
