<?xml version="1.0" encoding="utf-8"?>
<!-- Generator: Adobe Illustrator 17.1.0, SVG Export Plug-In . SVG Version: 6.00 Build 0)  -->
<!DOCTYPE svg PUBLIC "-//W3C//DTD SVG 1.1//EN" "http://www.w3.org/Graphics/SVG/1.1/DTD/svg11.dtd">
<svg version="1.1" id="Layer_1" xmlns="http://www.w3.org/2000/svg" xmlns:xlink="http://www.w3.org/1999/xlink" x="0px" y="0px"
	 viewBox="39 335 543.5 111.8" enable-background="new 39 335 543.5 111.8" xml:space="preserve">
<g>
	<g>
		<g>
			<polygon fill="#171614" points="112.1,343.4 154.5,343.4 154.5,444.2 			"/>
			<polygon fill="#171614" points="82.3,343.4 40,343.4 40,444.2 			"/>
			<polygon fill="#171614" points="97.2,380.5 124.1,444.2 106.6,444.2 98.4,424 78.5,424 			"/>
		</g>
		<g>
			<path fill="#171614" d="M218.4,411.5l-11.1,31.8c-0.3,0.6-0.6,0.9-1.2,0.9H195c-0.9,0-1.2-0.6-0.9-1.2
				c8.8-23.9,23.4-65.4,33.3-92.3c0.3-1.2,0.9-2.3,0.9-6.4c0-0.6,0.3-0.9,0.9-0.9H245c0.6,0,0.9,0.3,0.9,0.9
				c11.7,32.1,23.9,66.6,35.6,99c0.3,0.9,0.3,1.2-0.6,1.2h-12.6c-0.6,0-0.9-0.3-1.2-0.9l-11.7-31.8h-37.1V411.5z M252.9,401
				c-3.2-10.2-12.8-36.2-15.8-46.7h-0.3c-2.3,9.6-9.9,29.8-15.8,46.7H252.9z"/>
			<path fill="#171614" d="M285,407.7c0-22.8,16.1-39.1,40.3-39.1c5,0,8.8,0.6,11.7,1.5v-33.3c0-0.6,0.3-0.9,0.9-0.9h11.7
				c0.9,0,0.9,0.3,0.9,0.9v93.4c0,2.3,0.3,5.8,0.3,7.6c0,0.6,0,1.2-0.9,1.5c-8.5,4.4-18.1,6.7-27.4,6.7
				C301,445.6,285,433.1,285,407.7z M337,380.8c-2.6-1.5-6.7-2.6-12-2.6c-16.6,0-26.3,11.7-26.3,28.9c0,21,12.6,28.6,25.1,28.6
				c4.7,0,9.6-0.6,12.8-2.3v-52.6H337z"/>
			<path fill="#171614" d="M433,406.8c0,23.7-14.3,38.8-35.3,38.8c-25.4,0-35.6-19.6-35.6-38.5c0-22.2,14-38.5,35.9-38.5
				S433,384.6,433,406.8z M375.5,406.8c0,16.9,7.9,29.2,22.2,29.2c10.8,0,21.3-8.2,21.3-28.9c0-15.8-6.4-29.2-22.2-29.2
				C384.3,378.2,375.5,389,375.5,406.8z"/>
			<path fill="#171614" d="M457.2,335.9c0.9,0,1.2,0.3,1.2,0.9v35.6c5.3-2.3,10.5-4.1,17.8-4.1c21,0,34.2,15.2,34.2,36.8
				c0,26.9-18.4,40.6-39.4,40.6c-10.2,0-18.4-2-25.1-5c-0.6-0.3-0.9-0.9-0.9-1.2V336.7c0-0.6,0.3-0.9,0.9-0.9
				C445.9,335.9,457.2,335.9,457.2,335.9z M473.9,378.5c-5.8,0-10.8,1.5-15.5,4.1v50.8c4.1,2,8.8,2.6,13.1,2.6
				c12.8,0,24.5-9.1,24.5-29.8C496.4,389,488.2,378.5,473.9,378.5z"/>
			<path fill="#171614" d="M531.7,408c-0.6,16.1,7.9,27.2,25.1,27.2c6.7,0,13.1-1.2,19-4.1c0.6-0.3,0.9-0.3,0.9,0.6v7.9
				c0,0.9-0.3,1.2-0.9,1.5c-5.3,2.9-12.3,4.4-21.6,4.4c-26.9,0-36.2-19-36.2-38c0-21.6,12.6-39.1,34.2-39.1
				c22.2,0,29.8,16.9,29.8,30.1c0,3.5-0.3,5.8-0.6,7.6c-0.3,0.6-0.6,1.2-1.2,1.2c-2.3,0.3-9.1,0.6-15.8,0.6h-32.7V408z M559.2,399.8
				c7.3,0,9.3-0.3,9.6-0.3c0.3-0.6,0.3-2.3,0.3-2.6c0-7.3-3.5-18.7-17.5-18.7c-12.3,0-18.4,10.2-19.6,21.9h27.2V399.8z"/>
		</g>
	</g>
	<g>
		<path fill="#171614" d="M158,348.1c0-2.6,2-5,5-5s5,2.3,5,5c0,2.9-2,5-5,5C160,353.4,158,351,158,348.1z M166.7,348.4
			c0-2.3-1.5-4.1-4.1-4.1c-2.3,0-3.8,1.8-3.8,4.1s1.8,4.1,4.1,4.1C165.3,352.2,166.7,350.5,166.7,348.4z M162.1,350.7L162.1,350.7
			h-0.9l0,0v-5l0,0c0,0,0.9,0,1.5,0c1.5,0,2.3,0.6,2.3,1.5c0,0.6-0.3,1.2-1.2,1.5c0.3,0.3,1.2,1.5,1.5,2l0,0h-0.9h-0.3
			c-0.3-0.3-0.9-1.2-1.2-1.8c0,0,0,0-0.3,0h-0.6V350.7z M162.1,348.1h0.6c0.9,0,1.2-0.3,1.2-0.9c0-0.6-0.3-0.9-1.2-0.9h-0.6V348.1z"
			/>
	</g>
</g>
</svg>
