<?xml version="1.0" encoding="utf-8"?>
<!-- Generator: Adobe Illustrator 17.1.0, SVG Export Plug-In . SVG Version: 6.00 Build 0)  -->
<!DOCTYPE svg PUBLIC "-//W3C//DTD SVG 1.1//EN" "http://www.w3.org/Graphics/SVG/1.1/DTD/svg11.dtd">
<svg version="1.1" id="Layer_1" xmlns="http://www.w3.org/2000/svg" xmlns:xlink="http://www.w3.org/1999/xlink" x="0px" y="0px"
	 viewBox="0 0 205 67" enable-background="new 0 0 205 67" xml:space="preserve">
<g>
	<g>
		<path fill="#171614" d="M151.1,18.7c0.8,0,1.5-0.1,2.1-0.4c0.6-0.2,1-0.6,1.4-0.9c0.4-0.4,0.6-0.8,0.8-1.3c0.2-0.5,0.3-1,0.3-1.5
			c0-0.6-0.1-1.1-0.3-1.5c-0.2-0.4-0.5-0.8-0.9-1c-0.4-0.3-0.8-0.4-1.3-0.6c-0.5-0.1-1-0.2-1.5-0.2c-0.9,0-1.6,0.1-2.2,0.4
			c-0.6,0.3-1.1,0.6-1.4,1c-0.4,0.4-0.6,0.8-0.8,1.3c-0.2,0.5-0.2,0.9-0.2,1.2c0,1.1,0.3,1.9,1,2.6
			C148.7,18.4,149.7,18.7,151.1,18.7z"/>
		<path fill="#171614" d="M201.4,33.7c-2.3,3.8-4.4,6.3-6.3,7.7c-0.5,0.4-1,0.8-1.4,1c0.2-2.5,0.4-4.4,0.5-6
			c0.1-1.5,0.3-2.9,0.7-4.2c0.4-1.3,0.6-2.3,0.6-3.2c0.1-1.2,0.1-2.1,0.1-2.9c0-1-0.1-1.6-0.2-1.9c-0.1-0.3-0.2-0.5-0.3-0.7
			c-0.3-0.4-0.8-0.6-1.5-0.6l-1,0c-0.2,0-0.4,0-0.5,0c-0.2,0-0.3,0-0.4-0.1c-0.1,0-0.2-0.1-0.3-0.1c-0.1,0-0.2-0.1-0.3-0.2
			c-0.1-0.1-0.2-0.2-0.2-0.2c0,0-0.1-0.1-0.2-0.2c-0.1-0.1-0.2-0.2-0.2-0.3c-0.4-0.4-1-0.7-1.8-0.7c-1.8,0-3.6,0.9-5.6,2.6
			c-1.3,1.2-2.4,2.6-3.2,4.1c-0.8,1.6-1.6,3.6-2.5,6c-0.4,1.3-0.7,2.5-0.7,3.6c0,0,0,0,0,0c-0.3,0.2-0.5,0.3-0.5,0.3
			c0,0-0.4,0.3-1.1,0.8c-0.1,0.1-0.5,0.3-1,0.5c-0.3,0.1-0.6,0.2-0.8,0.2c-0.5,0-0.9-0.3-1.1-0.9s-0.4-1.4-0.4-2.4
			c0-0.6,0-1.2,0.1-1.9c0.1-0.7,0.2-1.4,0.3-2.1l0.4-2.4c0.1-0.9,0.2-1.6,0.4-2.2s0.2-1,0.3-1.5c0.1-0.4,0.1-0.7,0.1-0.9
			c0-1.2-0.2-2.1-0.7-2.7c-0.5-0.7-1.1-1-1.9-1c-0.8,0-1.5,0.2-2.1,0.5c-0.6,0.3-1.2,0.9-1.7,1.7l-0.5,0.9l-0.7,1.3l-0.8,1.6
			c-0.3,0.6-0.6,1.2-0.9,1.9c-0.3,0.7-0.5,1.3-0.7,1.6l-0.5,0.8h-0.2c0-0.1,0-0.2,0.1-0.5c0-0.3,0.1-0.6,0.2-1.1
			c0.1-0.5,0.1-1,0.2-1.4l0.2-1.2c0-0.4,0.1-0.7,0.1-1c0-0.3,0.1-0.6,0.1-1c0-1.3-0.2-2.3-0.5-3.1c-0.4-0.8-1-1.2-1.9-1.2
			c-0.9,0-1.6,0.2-2.1,0.7c-0.5,0.5-0.9,1.1-1.1,1.8c0,0.9,0,2.1-0.2,3.4c-0.2,1.3-0.4,2.8-0.6,4.4c-0.2,1.4-0.3,2.7-0.5,3.9
			l-0.8,0.7c-0.7,0.6-1.4,1.2-2.1,1.7c-0.7,0.6-1.4,1-2.1,1.4c-0.7,0.4-1.3,0.6-1.9,0.6c-0.5,0-0.8-0.2-1-0.6
			c-0.2-0.4-0.2-1-0.2-1.7c0-0.7,0.1-1.5,0.2-2.4s0.4-1.8,0.6-2.8c0.3-0.9,0.6-2,0.9-3.2c0.3-1.2,0.6-2.1,0.8-3
			c0.2-0.8,0.4-1.6,0.6-2.2c0.2-0.6,0.3-1.1,0.3-1.5c0-0.4-0.1-0.7-0.3-1c-0.2-0.2-0.7-0.4-1.3-0.4c-0.4,0-0.7,0-1.2,0.1
			c-0.4,0.1-0.9,0.2-1.3,0.4c-0.4,0.2-0.8,0.4-1.1,0.7c-0.4,0.3-0.6,0.7-0.6,1.1c-0.1,0.6-0.5,1.9-1,3.8c-0.6,2.4-1,3.9-1.3,4.6
			c-0.1,0.2-0.3,1.1-0.6,2.5c-0.1,0.1-0.1,0.1-0.2,0.2l-1,1.2c-0.4,0.4-0.8,0.9-1.2,1.3c-0.4,0.4-0.8,0.8-1.2,1.1
			c-0.4,0.3-0.8,0.6-1.1,0.8c-0.4,0.2-0.7,0.3-1,0.3c-0.6,0-1-0.1-1.2-0.4c-0.3-0.2-0.4-0.6-0.4-1.2c0-0.7,0.2-1.3,0.5-2
			c0.3-0.7,0.7-1.3,1.2-2c0.5-0.7,1-1.3,1.5-2c0.5-0.7,1.1-1.3,1.5-2c0.5-0.7,0.9-1.4,1.3-2.3c0.4-0.9,0.6-1.6,0.6-2.3
			c0-0.7-0.1-1.2-0.3-1.8c-0.2-0.5-0.4-1-0.7-1.4c-0.3-0.4-0.6-0.7-1-0.9c-0.4-0.2-0.8-0.3-1.3-0.3c-0.9,0-1.6,0.1-2.3,0.4
			c-0.7,0.2-1.3,0.5-1.7,0.9c-0.3,0.2-0.7,0.7-1.2,1.6l-1.9,2.4l-2,2.5l-1.9,2.4l-0.6-0.4l2.8-4.1l0.8-1.6c0.4-0.8,0.9-1.8,1.5-2.9
			c0.6-1.2,1.1-2.5,1.7-3.9c0.6-1.5,1.1-3,1.7-4.5c0.6-1.5,0.9-3.1,1.1-4.6c0.2-1.6,0.3-3,0.3-4.3c0-0.7-0.1-1.4-0.2-2.1
			c-0.1-0.6-0.3-1.2-0.6-1.6c-0.3-0.5-0.7-0.8-1.2-1.1c-0.5-0.3-1.1-0.4-1.9-0.4c-1,0-2,0.2-2.8,0.6c-0.9,0.4-1.6,1-2.4,1.7
			c-0.7,0.7-1.4,1.6-1.9,2.5c-0.6,1-1.1,2-1.6,3.1s-0.9,2.2-1.2,3.3c-0.4,1.1-0.7,2.2-0.9,3.3c-0.3,1-0.5,2-0.6,2.9
			c-0.2,0.9-0.3,1.7-0.4,2.3c-0.3,1.8-0.6,3.7-0.8,5.6c-0.1,0.5-0.1,0.9-0.1,1.4c-0.9-1-1.8-1.8-2.8-2.5c-1.1-0.8-2.3-1.4-3.6-1.9
			s-2.7-0.7-4.2-0.7c-1.8,0-3.4,0.3-4.8,0.9c-1.4,0.6-2.6,1.5-3.6,2.6c-0.4,0.5-0.8,1-1.1,1.5c-0.9-1-1.8-1.8-2.8-2.5
			c-1.1-0.8-2.3-1.4-3.6-1.9s-2.7-0.7-4.2-0.7c-1.8,0-3.4,0.3-4.8,0.9c-1.4,0.6-2.6,1.5-3.6,2.6c-1,1.1-1.8,2.4-2.3,3.9
			c-0.5,1.4-0.8,3.1-0.8,5c-1,0.7-2.1,1.4-3.1,2.1l-3.7,2.5c-1.2,0.8-2.5,1.6-3.8,2.3c-1.3,0.7-2.7,1.2-4.1,1.6
			c-1.4,0.4-3,0.6-4.6,0.6c-1.3,0-2.5-0.2-3.6-0.6c-1.1-0.4-2-1-2.7-1.8c-0.7-0.8-1.3-1.8-1.7-3c-0.4-1.2-0.6-2.6-0.6-4.2
			c0-1.1,0.1-2.4,0.3-3.7c0.2-1.3,0.6-2.7,1-4.1c0.4-1.4,0.9-2.8,1.5-4.3c0.6-1.4,1.3-2.8,2-4.1c0.8-1.3,1.6-2.6,2.4-3.7
			c0.9-1.2,1.8-2.2,2.8-3c1-0.8,2-1.5,3.1-2s2.2-0.7,3.3-0.7c1,0,1.8,0.1,2.4,0.4c0.7,0.3,1.2,0.7,1.6,1.1c0.4,0.5,0.7,1,0.9,1.7
			s0.3,1.3,0.3,2c0,1.3-0.3,2.5-0.8,3.6c-0.5,1.1-1.2,2.1-2,2.8c-0.8,0.8-1.7,1.4-2.8,1.9c-1,0.4-2,0.7-3,0.7c-0.4,0-0.7,0-0.9-0.1
			c-0.2-0.1-0.4-0.1-0.6-0.2l-0.5-0.2c-0.1-0.1-0.3-0.1-0.5-0.1c-0.3,0-0.6,0.1-0.7,0.2c-0.2,0.2-0.3,0.4-0.4,0.6
			c-0.1,0.2-0.2,0.5-0.2,0.8c0,0.3,0,0.6,0,0.9c0,0.2,0,0.4,0,0.5c0,0.2,0,0.3,0,0.4c0,0.7,0.4,1.3,1.1,1.7c0.7,0.4,1.8,0.6,3.2,0.6
			c1.1,0,2.2-0.2,3.3-0.6c1.1-0.4,2.2-1,3.2-1.7c1-0.7,2-1.5,2.9-2.5c0.9-1,1.7-2,2.3-3.1c0.7-1.1,1.2-2.2,1.6-3.4
			c0.4-1.2,0.6-2.3,0.6-3.5c0-1.7-0.3-3.2-0.9-4.5c-0.6-1.3-1.4-2.3-2.3-3.1s-2-1.4-3.2-1.8c-1.2-0.4-2.4-0.6-3.6-0.6
			c-1.7,0-3.4,0.3-5,0.8c-1.6,0.6-3.1,1.3-4.6,2.3c-1.5,1-2.8,2.2-4.1,3.5c-1.3,1.3-2.5,2.8-3.5,4.3c-0.7,1.1-1.4,2.1-2,3.3
			C45,7.8,36,1.3,25.4,1.3C11.4,1.3,0,12.7,0,26.7c0,14,11.4,25.4,25.4,25.4c8.4,0,15.9-4.1,20.5-10.5c0.5,1,1.1,2,1.8,2.8
			c1.2,1.4,2.7,2.6,4.3,3.4c1.7,0.9,3.6,1.3,5.7,1.3c1.9,0,3.7-0.1,5.2-0.4c1.6-0.3,3-0.6,4.3-1.1c1.3-0.5,2.5-1,3.5-1.7
			c1-0.7,2-1.4,3-2c0.9-0.6,1.9-1.3,2.8-2l2.2-2.1c0.2-0.2,0.4-0.4,0.6-0.5c0.3,0.7,0.6,1.4,1,2.1c0.7,1,1.5,1.8,2.5,2.4
			c1,0.6,2.3,0.9,3.7,0.9c1,0,1.8-0.2,2.7-0.5c0.8-0.3,1.6-0.8,2.3-1.3c0.7-0.6,1.3-1.2,1.9-2c0.6-0.8,1-1.6,1.4-2.5
			c0.4-0.9,0.7-1.8,0.9-2.7c0.2-0.9,0.3-1.9,0.3-2.8c0-1.3-0.1-2.4-0.3-3.4c-0.2-1-0.6-2-1-2.9l0.2-0.3l2,1.4c0.8,0.5,1.6,1.2,2.4,2
			c-0.4,1.4-0.6,2.9-0.6,4.7c0,1.2,0.2,2.5,0.5,3.7c0.3,1.2,0.8,2.3,1.4,3.3c0.7,1,1.5,1.8,2.5,2.4c1,0.6,2.3,0.9,3.7,0.9
			c1,0,1.8-0.2,2.7-0.5c0.8-0.3,1.6-0.8,2.3-1.3c0.7-0.6,1.3-1.2,1.9-2c0.6-0.8,1-1.6,1.4-2.5c0.4-0.9,0.7-1.8,0.9-2.7
			c0.2-0.9,0.3-1.9,0.3-2.8c0-1.3-0.1-2.4-0.3-3.4c-0.2-1-0.6-2-1-2.9l0.2-0.3l2,1.4c0.8,0.5,1.6,1.2,2.4,2l1,1c0,0.1,0,0.1,0,0.2
			c-0.1,1.8-0.2,3.4-0.3,4.8c-0.1,1.5-0.1,2.6-0.1,3.5c0,0.7,0,1.4,0.1,2.1c0.1,0.7,0.2,1.2,0.4,1.7c0.2,0.5,0.5,0.9,0.9,1.2
			c0.4,0.3,0.9,0.4,1.6,0.4c0.5,0,0.9-0.1,1.3-0.4c0.4-0.3,0.8-0.7,1.1-1.3l6.9-12.1c0.5-0.8,0.9-1.4,1.4-1.8c0.4-0.3,0.7-0.5,1-0.5
			c0.2,0,0.4,0.1,0.5,0.3c0.1,0.2,0.2,0.5,0.2,0.8c0,0.2,0,0.3-0.1,0.5c-0.1,0.2-0.2,0.3-0.4,0.5l-0.6,0.6l-0.7,0.7
			c-0.7,0.9-1.3,1.8-1.7,2.5c-0.4,0.8-0.8,1.5-1,2.2c-0.2,0.7-0.4,1.2-0.5,1.8c-0.1,0.5-0.1,1-0.1,1.3c0,0.6,0.1,1.2,0.2,1.8
			c0.1,0.6,0.4,1.1,0.8,1.5c0.4,0.5,1,0.8,1.7,1.1c0.7,0.3,1.6,0.4,2.7,0.4c0.8,0,1.7-0.1,2.6-0.4c0.9-0.3,1.8-0.6,2.7-1
			c0.6-0.3,1.2-0.7,1.8-1.1c0.2,0.5,0.4,0.9,0.6,1.2c0.3,0.4,0.8,0.7,1.3,0.9c0.6,0.2,1.2,0.3,2.1,0.3c0.9,0,1.9-0.2,2.9-0.5
			c1-0.3,2-0.7,3-1.2c1-0.5,1.9-1,2.7-1.6c0.3-0.2,0.6-0.4,0.9-0.7c0,0.3,0,0.6,0,0.9c0.1,0.6,0.2,1.1,0.4,1.6
			c0.2,0.5,0.5,0.8,0.8,1.1c0.4,0.3,0.8,0.4,1.4,0.4c0.5,0,1-0.1,1.4-0.4c0.4-0.2,0.8-0.7,1.1-1.3l6.3-12.2h0.4
			c-0.2,1.2-0.3,2.4-0.5,3.5c-0.1,1.1-0.2,2.1-0.2,3c0,2.4,0.3,4.2,0.9,5.4c0.6,1.2,1.3,1.9,2.2,1.9c0.9,0,1.7-0.1,2.5-0.4
			c0.3-0.1,1.1-0.4,2.3-0.9c0.4-0.2,1.4-0.7,2.9-1.5c0.5,0.7,1,1.2,1.7,1.7c1,0.7,2.1,1.1,3.4,1.1c1.7,0,3.4-0.8,5.1-2.5l-0.5,2.8
			c-1,0.9-1.8,1.7-2.6,2.4l-2.7,3c-0.5,0.6-1.1,1.3-1.6,2c-0.5,0.7-0.9,1.3-1.1,1.7l-1.2,2.2c-0.9,1.6-1.4,3.2-1.4,4.7
			c0,0.2,0,0.4,0,0.5c0.1,0.9,0.3,1.6,0.6,2.3c0.4,0.7,0.8,1.2,1.4,1.5c0.6,0.4,1.2,0.6,1.9,0.8c0.7,0.2,1.4,0.3,2.2,0.3
			c1,0,1.9-0.2,2.7-0.5c0.8-0.3,1.5-0.7,2.1-1.2c0.6-0.5,1.1-1.1,1.6-1.8c0.5-0.7,0.9-1.5,1.2-2.2c0.3-0.7,0.6-1.5,0.8-2.4
			c0.2-0.9,0.4-1.6,0.5-2.3c0.1-0.7,0.2-1.4,0.3-2.1c0-0.3,0.1-0.8,0.2-1.3c0.2-2,0.3-3.4,0.5-4.1c0.1-0.7,0.4-1.2,0.9-1.5l3.3-2.1
			c0.1,0,0.2-0.1,0.3-0.2c0.8-0.6,1.7-1.5,2.9-2.6c1.1-1.1,1.9-2.1,2.3-3L201.4,33.7z M37.8,42.2h-4.6c-2,0-2.8-1-2.8-2.5v-0.3
			c0-0.8,0.1-1.2,0.1-1.2h-0.1c0,0-1.8,4.6-7.7,4.6c-6.1,0-10-4.9-10-12c0-7.3,4.2-12,10.4-12c5.2,0,7,3.8,7,3.8h0.1
			c0,0-0.1-0.7-0.1-1.7v-7.2h-3.8v-3.4h8.2v27.5c0,0.7,0.4,1,1,1h2.3V42.2z M91.4,34.3c-0.2,1.2-0.5,2.2-0.9,3
			c-0.4,0.8-0.8,1.5-1.3,2c-0.5,0.5-1,0.8-1.5,0.8c-0.6,0-1.1-0.1-1.6-0.4c-0.4-0.3-0.8-0.6-1.1-1c-0.3-0.4-0.5-0.9-0.6-1.5
			c-0.1-0.6-0.2-1.2-0.2-1.9c0-1.3,0.1-2.5,0.4-3.5c0.2-1,0.6-2,1-2.8c0.4-0.9,0.9-1.6,1.5-2.1c0.6-0.5,1.2-0.8,1.8-0.8
			c0.5,0,0.9,0.1,1.2,0.4c0.3,0.3,0.6,0.6,0.8,1.1c0.2,0.5,0.4,1,0.5,1.6c0.1,0.6,0.2,1.3,0.2,2C91.7,32.1,91.6,33.2,91.4,34.3z
			 M111.6,34.3c-0.2,1.2-0.5,2.2-0.9,3c-0.4,0.8-0.8,1.5-1.3,2c-0.5,0.5-1,0.8-1.5,0.8c-0.6,0-1.1-0.1-1.6-0.4
			c-0.4-0.3-0.8-0.6-1.1-1c-0.3-0.4-0.5-0.9-0.6-1.5c-0.1-0.6-0.2-1.2-0.2-1.9c0-1.3,0.1-2.5,0.4-3.5c0.2-1,0.6-2,1-2.8
			c0.4-0.9,0.9-1.6,1.5-2.1c0.6-0.5,1.2-0.8,1.8-0.8c0.5,0,0.9,0.1,1.2,0.4c0.3,0.3,0.6,0.6,0.8,1.1c0.2,0.5,0.4,1,0.5,1.6
			c0.1,0.6,0.2,1.3,0.2,2C111.9,32.1,111.8,33.2,111.6,34.3z M125.7,28.6c0.1-1.9,0.3-3.8,0.6-5.7c0.1-0.8,0.2-1.7,0.3-2.6
			c0.1-0.9,0.3-1.9,0.5-2.8c0.2-0.9,0.4-1.9,0.6-2.8c0.2-1,0.4-1.9,0.7-2.8l1.1-2.8c0.3-0.8,0.6-1.5,0.9-2.1c0.3-0.6,0.7-1,1-1.3
			c0.4-0.3,0.8-0.5,1.3-0.5c0.3,0,0.5,0.2,0.5,0.7c0,0.4-0.1,0.8-0.2,1.3c-0.1,0.5-0.3,1.1-0.5,1.7c-0.2,0.6-0.4,1.2-0.6,1.9
			l-0.6,1.9l-0.6,1.7c-0.2,0.5-0.3,1-0.5,1.3l-0.9,2.7l-1.1,3.3l-1.2,3.6L125.7,28.6z M187.8,52.2c-0.1,0.8-0.2,1.5-0.2,2
			c-0.1,0.5-0.2,1-0.3,1.5c-0.2,0.8-0.4,1.5-0.6,2c-0.2,0.5-0.4,1-0.6,1.6c-0.2,0.5-0.4,0.9-0.6,1.2c-0.2,0.3-0.4,0.5-0.7,0.8
			c-0.3,0.2-0.5,0.4-0.8,0.5c-0.3,0.1-0.6,0.1-1,0.1c-0.7,0-1.1-0.3-1.1-1c0-0.3,0.1-0.7,0.3-1.2c0.6-1.8,1.5-3.5,2.6-5.3
			c1.1-1.7,2.2-3,3.3-3.8C187.9,50.9,187.9,51.4,187.8,52.2z M188.3,33.6c-0.1,1.4-0.4,2.7-0.9,4.1c-0.7,1.7-1.6,2.6-2.6,2.6
			c-0.6,0-1.1-0.3-1.5-1c-0.4-0.7-0.6-1.6-0.6-2.7c0-0.6,0-1.2,0.1-1.9c0.1-0.9,1-2.7,2.4-5.3c1.4-2.5,3-3.7,4.8-3.7L188.3,33.6z"/>
		<path fill="#171614" d="M23.8,22.7c-3.7,0-6.6,2.9-6.6,8.1c0,5,2.7,8.2,6.5,8.2c3.4,0,6.6-2.4,6.6-8.1
			C30.3,26.6,28.2,22.7,23.8,22.7z"/>
	</g>
	<g>
		<path fill="#171614" d="M197.4,21.3c0.2-0.5,0.5-0.9,0.9-1.3c0.4-0.4,0.8-0.7,1.3-0.9c0.5-0.2,1-0.3,1.6-0.3
			c0.6,0,1.1,0.1,1.6,0.3c0.5,0.2,0.9,0.5,1.3,0.9c0.4,0.4,0.7,0.8,0.9,1.3c0.2,0.5,0.3,1,0.3,1.6c0,0.6-0.1,1.1-0.3,1.7
			c-0.2,0.5-0.5,0.9-0.9,1.3c-0.4,0.4-0.8,0.7-1.3,0.9c-0.5,0.2-1,0.3-1.6,0.3c-0.6,0-1.1-0.1-1.6-0.3c-0.5-0.2-0.9-0.5-1.3-0.9
			c-0.4-0.4-0.7-0.8-0.9-1.3c-0.2-0.5-0.3-1.1-0.3-1.7C197,22.3,197.1,21.8,197.4,21.3z M198,24.3c0.2,0.4,0.4,0.8,0.7,1.1
			c0.3,0.3,0.7,0.6,1.1,0.7c0.4,0.2,0.9,0.3,1.4,0.3c0.5,0,0.9-0.1,1.3-0.3c0.4-0.2,0.8-0.4,1.1-0.7c0.3-0.3,0.5-0.7,0.7-1.1
			c0.2-0.4,0.3-0.9,0.3-1.4c0-0.5-0.1-1-0.3-1.4c-0.2-0.4-0.4-0.8-0.7-1.1c-0.3-0.3-0.7-0.6-1.1-0.7c-0.4-0.2-0.9-0.3-1.3-0.3
			c-0.5,0-0.9,0.1-1.4,0.3c-0.4,0.2-0.8,0.4-1.1,0.7c-0.3,0.3-0.5,0.7-0.7,1.1c-0.2,0.4-0.3,0.9-0.3,1.4
			C197.8,23.4,197.9,23.9,198,24.3z M201.5,20.5c0.6,0,1,0.1,1.3,0.3c0.3,0.2,0.4,0.6,0.4,1c0,0.4-0.1,0.8-0.4,1
			c-0.2,0.2-0.5,0.3-0.9,0.4l1.4,2.1h-0.8l-1.3-2.1h-0.8v2.1h-0.8v-4.8H201.5z M201.1,22.6c0.2,0,0.3,0,0.5,0c0.2,0,0.3,0,0.4-0.1
			c0.1-0.1,0.2-0.1,0.3-0.2c0.1-0.1,0.1-0.3,0.1-0.4c0-0.2,0-0.3-0.1-0.4c-0.1-0.1-0.1-0.2-0.2-0.2c-0.1-0.1-0.2-0.1-0.3-0.1
			c-0.1,0-0.3,0-0.4,0h-1v1.5H201.1z"/>
	</g>
</g>
</svg>
