<?xml version="1.0" encoding="utf-8"?>
<!-- Generator: Adobe Illustrator 17.1.0, SVG Export Plug-In . SVG Version: 6.00 Build 0)  -->
<!DOCTYPE svg PUBLIC "-//W3C//DTD SVG 1.1//EN" "http://www.w3.org/Graphics/SVG/1.1/DTD/svg11.dtd">
<svg version="1.1" id="Layer_1" xmlns="http://www.w3.org/2000/svg" xmlns:xlink="http://www.w3.org/1999/xlink" x="0px" y="0px"
	 viewBox="7 346.3 597.8 99.2" enable-background="new 7 346.3 597.8 99.2" xml:space="preserve">
<path fill="#171614" d="M319.1,347.4c-26.8,0-48.6,21.8-48.6,48.6c0,26.8,21.8,48.6,48.6,48.6c26.8,0,48.6-21.8,48.6-48.6
	S346,347.4,319.1,347.4z M352.6,423.4l-0.7,0.8l-0.8,0.7l-0.8,0.7l-0.8,0.6l-0.8,0.5l-0.8,0.5l-0.8,0.5l-0.8,0.4l-0.8,0.4l-0.8,0.3
	l-0.9,0.2l-0.9,0.2l-0.9,0.1l-0.9,0.1h-0.9l-0.9-0.1l-0.9-0.1l-0.9-0.2l-0.9-0.2l-0.9-0.2l-0.9-0.3l-1-0.4l-1-0.5l-1-0.5l-1-0.5
	l-1-0.7l-1-0.7l-0.8-0.6l-0.7-0.6l-0.6-0.6l-0.5-0.6l-0.5-0.6l-0.4-0.7l-0.4-0.7l-0.3-0.7l-0.2-0.7l-0.2-0.7l-0.2-0.7l-0.1-0.7
	l-0.1-0.7v-0.7V415l0.1-0.8l0.1-0.8l0.1-0.8l0.2-0.8l0.2-0.8l0.2-0.8l0.2-0.8l0.2-0.8l0.2-0.8l0.3-0.8l0.3-0.8l0.3-0.8l0.3-0.8
	l0.3-0.8l0.3-0.8l0.3-0.8l0.3-0.8l0.7-1.7l0.7-1.7l0.6-1.7l0.6-1.7l0.6-1.7l0.5-1.7l0.5-1.7l0.5-1.6l0.5-1.6l0.4-1.6l0.4-1.6
	l0.3-1.6l0.2-1.5l0.2-1.4l0.1-1.4v-1.4l-0.1-1.3l-0.2-1.3l-0.2-1.3l-0.4-1.3l-0.5-1.2l-0.6-1.1l-0.8-1l-0.9-0.9l-1-0.9l-1.2-0.8
	l-1.3-0.7l-1.4-0.5l-1.6-0.4l-1.7-0.3l-1.8-0.2l-2-0.1l-2,0.1l-1.8,0.2l-1.7,0.3l-1.6,0.4l-1.4,0.5l-1.3,0.7l-1.2,0.8l-1,0.9
	l-0.9,0.9l-0.8,1l-0.6,1.1l-0.5,1.2l-0.4,1.3l-0.2,1.3l-0.2,1.3l-0.1,1.3v1.4l0.1,1.4l0.2,1.4l0.2,1.5l0.3,1.6l0.4,1.6l0.4,1.6
	l0.5,1.6l0.5,1.6l0.5,1.7l0.5,1.7l0.6,1.7l0.6,1.7l0.6,1.7l0.7,1.7l0.7,1.7l0.3,0.8l0.3,0.8l0.3,0.8l0.3,0.8l0.3,0.8l0.3,0.8
	l0.3,0.8l0.3,0.8l0.2,0.8l0.2,0.8l0.2,0.8l0.2,0.8l0.2,0.8l0.2,0.8l0.1,0.8l0.1,0.8l0.1,0.8v0.8v0.7l-0.1,0.7l-0.1,0.7l-0.2,0.7
	l-0.2,0.7l-0.2,0.7l-0.3,0.7l-0.4,0.7l-0.4,0.7l-0.5,0.6l-0.5,0.6l-0.6,0.6l-0.7,0.6l-0.8,0.6l-1,0.7l-1,0.7l-1,0.5l-1,0.5l-1,0.5
	l-1,0.4l-0.9,0.3l-0.9,0.2l-0.9,0.2l-0.9,0.2l-0.9,0.1l-0.9,0.1h-0.9l-0.9-0.1l-0.9-0.1l-0.9-0.2l-0.9-0.2l-0.8-0.3l-0.8-0.4
	l-0.8-0.4l-0.8-0.5l-0.8-0.5l-0.8-0.5l-0.8-0.6l-0.8-0.7l-0.8-0.7l-0.7-0.8l-0.5-0.5l0.5,0.2l0.5,0.2l0.5,0.2l0.5,0.1l0.5,0.1
	l0.5,0.1l0.5,0.1l0.5,0.1h0.5h0.5h0.5l0.5-0.1l0.5-0.1l0.5-0.1l0.5-0.1l0.5-0.2l0.5-0.2l0.5-0.2l0.5-0.2l0.5-0.2l0.5-0.2l0.5-0.3
	l0.5-0.3l0.4-0.4l0.6-0.5l0.6-0.5l0.5-0.6l0.5-0.6l0.5-0.6l0.4-0.7l0.3-0.7l0.2-0.7l0.2-0.7l0.2-0.7l0.1-0.7l0.1-0.8v-0.8l-0.1-0.8
	l-0.1-0.8l-0.1-0.8l-0.2-0.8l-0.2-0.8l-0.2-0.8l-0.2-0.9l-0.3-0.9l-0.3-0.9l-0.4-0.9l-0.4-0.9l-0.4-0.9l-0.5-0.9l-0.5-1l-0.5-1
	l-0.5-1l-0.5-1l-0.5-1.1l-0.6-1.1l-1.3-2.3L293,391l-1-2.1l-0.8-2l-0.7-2L290,383l-0.4-1.8l-0.3-1.7l-0.2-1.7l-0.1-1.6l0.1-1.5
	l0.2-1.4l0.3-1.3l0.4-1.3l0.5-1.3l0.7-1.1l0.8-1.1l0.9-1l1-1l1.1-0.9l1.3-0.8l1.4-0.8l1.6-0.7l1.7-0.7l1.8-0.5l1.9-0.5l2-0.4
	l2.2-0.4l2.3-0.3l2.4-0.2l2.6-0.2l2.7-0.1l2.7,0.1l2.6,0.2l2.9,0.4l2.3,0.3l2.2,0.4l2,0.4l1.9,0.5l1.8,0.5l1.7,0.7l1.6,0.7l1.4,0.8
	l1.3,0.8l1.1,0.9l1,1l0.9,1l0.8,1.1l0.7,1.1l0.5,1.2l0.4,1.3l0.3,1.3l0.2,1.4l0.1,1.5l-0.1,1.6l-0.2,1.7l-0.3,1.7l-0.4,1.8l-0.5,1.9
	l-0.7,2l-0.8,2l-1,2.1l-1,1.9l-1.3,2.3l-0.6,1.1l-0.5,1.1l-0.5,1l-0.5,1l-0.5,1l-0.5,1l-0.5,0.9l-0.4,0.9l-0.4,0.9l-0.4,0.9
	l-0.3,0.9l-0.3,0.9l-0.2,0.9l-0.2,0.9l-0.2,0.8l-0.2,0.8l-0.1,0.8l-0.1,0.8v0.8v0.8l0.1,0.8l0.1,0.7l0.2,0.7l0.2,0.7l0.2,0.7
	l0.3,0.7l0.4,0.7l0.5,0.6l0.5,0.6l0.5,0.6l0.6,0.5l0.6,0.5l0.4,0.4l0.5,0.3l0.5,0.3l0.5,0.2l0.5,0.2l0.5,0.2l0.5,0.2l0.5,0.2
	l0.5,0.2l0.5,0.1l0.5,0.1l0.5,0.1l0.5,0.1h0.5h0.5h0.5l0.5-0.1l0.5-0.1l0.5-0.1l0.5-0.1l0.5-0.1l0.5-0.2l0.5-0.2l0.5-0.2
	L352.6,423.4z"/>
<path fill="#171614" d="M17.6,408.7c-2-0.5-2.6-2.2-2.7-4.2c0-11.2,0-22.4,0-33.6c-2.4,0.8-4.7,1.6-7.1,2.3
	c-0.1,11.2-0.1,22.5-0.1,33.8c1,3.9,2.7,5.1,4.7,5.3C15.3,412.3,16.8,410.7,17.6,408.7L17.6,408.7z"/>
<path fill="#171614" d="M29.9,382.3h-6.8c0,6.6,0,13.1,0,19.7c0.2,5.8,3.3,9,9.7,9c3.9,0.1,6.4-1,8.4-2.7c0,0.7,0,1.4-0.1,2.2
	l6.8,0.1l-0.1-28.3h-6.7c0,6.5,0,13,0,19.5c-3.1,5.4-10.6,4.3-11.2,0.1L29.9,382.3L29.9,382.3z"/>
<path fill="#171614" d="M65.4,408.7c-2-0.5-2.6-2.2-2.7-4.2c0-11.2,0-22.4,0-33.6c-2.4,0.8-4.7,1.6-7.1,2.3
	c-0.1,11.2-0.1,22.5-0.1,33.8c1,3.9,2.7,5.1,4.7,5.3C63,412.3,64.5,410.7,65.4,408.7L65.4,408.7z"/>
<path fill="#171614" d="M77.2,382.3h-6.8c0,6.6,0,13.1,0,19.7c0.2,5.8,3.3,9,9.7,9c3.9,0.1,6.4-1,8.4-2.7c0,0.7,0,1.4-0.1,2.2
	l6.8,0.1l-0.1-28.3h-6.7c0,6.5,0,13,0,19.5c-3.1,5.4-10.6,4.3-11.2,0.1L77.2,382.3L77.2,382.3z"/>
<path fill="#171614" d="M112.9,408.7c-2-0.5-2.6-2.2-2.7-4.2c0-11.2,0-22.4,0-33.6c-2.4,0.8-4.7,1.6-7.1,2.3
	c-0.1,11.2-0.1,22.5-0.1,33.8c1,3.9,2.7,5.1,4.7,5.3C110.6,412.3,112.1,410.7,112.9,408.7L112.9,408.7z"/>
<path fill="#171614" d="M123.6,393.6c1.6-8,12-8.1,13.6,0C132.6,393.6,128.1,393.6,123.6,393.6L123.6,393.6z M123.4,398.7
	c6.7,0,13.4,0,20.1,0c0.2-1.3,0.5-2.5,0.5-4c-0.1-7-4.5-12.8-13.6-12.8c-10.3,0-14.1,7.9-14.2,14.8c-0.2,9.1,4.5,14.2,14.3,14.5
	c4.3,0.1,7.9-0.8,10.4-2.9c-1-1.7-2-3.4-2.9-5.1c-2,1.5-4.4,2.4-6.8,2.3C126.3,405.3,123.7,403,123.4,398.7L123.4,398.7z"/>
<path fill="#171614" d="M148.8,382.3l-0.1,28.3h7.4c-0.1-6.8-0.1-13.5-0.1-20.3c1.7-3.8,8.2-3.3,9.1,0.1v20.1h6.9
	c-0.1-6.8-0.1-13.4-0.1-20.1c2.5-4.5,9-3.5,9.6,1.7l-0.1,18.6h7c0-7.1,0-14.2,0-21.3c-2.9-9.4-12.2-9.3-18.1-4.5
	c-3.9-4.1-11.6-4.2-15.1-0.3c-0.5-0.8-1-1.5-1.4-2.3L148.8,382.3L148.8,382.3z"/>
<path fill="#171614" d="M225.4,382.3l-0.1,28.3h7.4c-0.1-6.8-0.1-13.5-0.1-20.3c1.7-3.8,9.7-3.3,10.7,0.1v20.1h6.9
	c-0.1-6.8-0.1-13.4-0.1-20.1c-0.3-7.3-10.6-12.3-18.3-6c-0.5-0.8-1-1.5-1.4-2.3L225.4,382.3L225.4,382.3z"/>
<path fill="#171614" d="M206.9,381.7c-18,0.2-19,29.5-0.1,29.5C225.7,411.2,224.8,381.5,206.9,381.7z M206.8,405.4
	c-8.2,0.1-9.2-17.9,0.1-17.9C216.1,387.6,215,405.4,206.8,405.4z"/>
<path fill="#171614" d="M479,408.7c-2-0.5-2.6-2.2-2.7-4.2c0-11.2,0-22.4,0-33.6c-2.4,0.8-4.7,1.6-7.1,2.3
	c-0.1,11.2-0.1,22.5-0.1,33.8c1,3.9,2.7,5.1,4.7,5.3C476.6,412.3,478.1,410.7,479,408.7L479,408.7z"/>
<path fill="#171614" d="M489.7,393.6c1.6-8,12-8.1,13.6,0C498.7,393.6,494.2,393.6,489.7,393.6L489.7,393.6z M489.5,398.7
	c6.7,0,13.4,0,20.1,0c0.2-1.3,0.5-2.5,0.5-4c-0.1-7-4.5-12.8-13.6-12.8c-10.3,0-14.1,7.9-14.2,14.8c-0.2,9.1,4.5,14.2,14.3,14.5
	c4.3,0.1,7.9-0.8,10.4-2.9c-1-1.7-2-3.4-2.9-5.1c-2,1.5-4.4,2.4-6.8,2.3C492.3,405.3,489.8,403,489.5,398.7L489.5,398.7z"/>
<path fill="#171614" d="M388.7,388.8c-0.5-1.7-0.5-3.4-1-5.1c1.3-1,4.1-1.7,8-2.1c8.2,0.2,12.2,3.6,12.4,10.3c0,3.6,0,7.2,0,10.8
	c0.1,3.3,0.9,5.2,2.7,5.9c-2,4.1-7.4,2.7-8.6-0.5c-1.7,2.3-4.2,2.9-7.7,2.9c-5.9-0.1-9.9-1.9-9.9-8.5c-0.1-6.2,3-11.3,16.7-10.3
	C401,388.1,397.2,386.2,388.7,388.8L388.7,388.8z M398.8,397.3c-4.7-0.1-7.3,1.6-7.3,4.7c0,2.8,2,3.8,4.5,3.8c4.2,0,6-2.8,5.4-8.3
	C400.5,397.4,399.7,397.3,398.8,397.3L398.8,397.3z"/>
<path fill="#171614" d="M423,374.1l-6.9,2.7l0.1,5.5H413v5.6l3.1-0.1c0.1,5.4,0.1,10.9,0.1,16.3c0.4,3.9,1.9,6.8,9.1,7
	c2,0.1,4.2-0.1,6.2-0.5c0-2,0-4.2,0-6.2c-1.2,0.6-2.5,1.1-4.2,1.2c-2.6,0.1-3.9-1.3-4.1-3.9l0.1-13.6h7.4l0.1-5.7l-7.6-0.1
	L423,374.1L423,374.1z"/>
<path fill="#171614" d="M436.5,371.8l-0.1,38.8h7.4c-0.1-6.8-0.1-13.5-0.1-20.3c1.7-3.8,9.7-3.3,10.7,0.1v20.1h6.9
	c-0.1-6.8-0.1-13.4-0.1-20.1c-0.3-7.3-10.3-12-17.6-6.4l-0.1-13.6L436.5,371.8L436.5,371.8z"/>
<path fill="#171614" d="M522.8,374.1l-6.9,2.7l0.1,5.5h-3.2v5.6l3.1-0.1c0.1,5.4,0.1,10.9,0.1,16.3c0.4,3.9,1.9,6.8,9.1,7
	c2,0.1,4.2-0.1,6.2-0.5c0-2,0-4.2,0-6.2c-1.2,0.6-2.5,1.1-4.2,1.2c-2.6,0.1-3.9-1.3-4.1-3.9l0.1-13.6h7.4l0.1-5.7l-7.6-0.1
	L522.8,374.1L522.8,374.1z"/>
<path fill="#171614" d="M581.8,388.8c-0.5-1.7-0.5-3.4-1-5.1c1.3-1,4.1-1.7,8-2.1c8.2,0.2,12.2,3.6,12.4,10.3c0,3.6,0,7.2,0,10.8
	c0.1,3.3,0.9,5.2,2.7,5.9c-2,4.1-7.4,2.7-8.6-0.5c-1.7,2.3-4.2,2.9-7.7,2.9c-5.9-0.1-9.9-1.9-9.9-8.5c-0.1-6.2,3-11.3,16.7-10.3
	C594.1,388.1,590.4,386.2,581.8,388.8L581.8,388.8z M591.9,397.3c-4.7-0.1-7.3,1.6-7.3,4.7c0,2.8,2,3.8,4.5,3.8c4.2,0,6-2.8,5.4-8.3
	C593.7,397.4,592.8,397.3,591.9,397.3L591.9,397.3z"/>
<path fill="#171614" d="M557.6,398.7c-0.6-10.5,7.5-13.7,14.2-9l2.6-5c-0.2-0.1-3.4-2.8-9.9-2.9c-10.3-0.2-14.1,7.9-14.2,14.8
	c-0.2,9.1,4.5,14.2,14.3,14.5c4.3,0.1,7.9-0.8,10.4-2.9c-1-1.7-2-3.4-2.9-5.1c-2,1.5-4.4,2.4-6.8,2.3
	C560.4,405.3,557.9,403,557.6,398.7L557.6,398.7z"/>
<polygon fill="#171614" points="534.4,382.3 544.7,382.3 544.8,410.6 538.1,410.6 538,388 534.4,388 "/>
<path fill="#171614" d="M541.5,371.5c2.2,0,3.9,1.7,3.9,3.9s-1.7,3.9-3.9,3.9c-2.2,0-3.9-1.7-3.9-3.9S539.3,371.5,541.5,371.5
	L541.5,371.5z"/>
</svg>
