<?xml version="1.0" encoding="utf-8"?>
<!-- Generator: Adobe Illustrator 17.1.0, SVG Export Plug-In . SVG Version: 6.00 Build 0)  -->
<!DOCTYPE svg PUBLIC "-//W3C//DTD SVG 1.1//EN" "http://www.w3.org/Graphics/SVG/1.1/DTD/svg11.dtd">
<svg version="1.1" id="Layer_1" xmlns="http://www.w3.org/2000/svg" xmlns:xlink="http://www.w3.org/1999/xlink" x="0px" y="0px"
	 viewBox="13.5 357.2 580.8 90.8" enable-background="new 13.5 357.2 580.8 90.8" xml:space="preserve">
<g>
	<path fill="#171614" d="M127.5,392.1c-3.1-0.1-6.1,2.1-8,4.9c-3.3-0.2-6-0.8-8.8-3c-1-1-1.1-2.4-1.3-3.2c-1.1,1.1-2,3-1.7,4.9
		c1.1,3.9,4.5,5.2,8.4,6.9c-1.1,2.8-1.9,5.5-2.4,8.5c-0.8,5.2-2.2,14.9,3.5,19c1.1,0.6,4.1,1.6,3.5-1.7c-0.7-9-0.7-16.4,2-24.3
		c12.6,0.8,10.4-8.1,8-10.6C129.9,392.4,128.8,392.1,127.5,392.1z M128.7,396.7c-0.3,0.4-2.9,1-4.2,0.9c0.3-0.8,0.9-1.4,1.4-2.2
		C127.6,393.2,131.4,395.2,128.7,396.7z"/>
	<path fill="#171614" d="M193.2,382.1c-15.6-12.4-34.5-20.3-55.9-19c-4.5,0.3-10.6,1.3-12.5,5.8c-0.6,0.8-0.9,2.1,0.6,3
		c0.8,0.2,5,0.9,5.8,0c0.3-1.7-1.9-1.7-3.2-1.9c-0.6,0.2-0.9-0.7,0.2-0.9c20.2-4.1,39.7,3.8,53.9,12.5c13.5,8,28.7,29.8,3.3,38.4
		c-7.4,1.7-17.6,2-22.5,0v-18.8c8,0.2,15.6,2.1,17.9,3.2c1.2,0.6,1.7,2.2,0.9,2.8c-1.6,1.6-2.1,1.3-3.2,1.9
		c-0.6,1.2,3.4,1.4,3.2,1.4c2.7,0,5.4-2.4,6-4.3c0.4-1.9,0-4.9-3.9-7.1c-5-3.7-12.4-4.4-20.8-4.4l-0.3-7.3c-0.3-2.8-0.6-3.5-1.7-5.2
		c-0.3-1-2.4-2.1-2.8-0.8c-1.4,3.8-2,14-2,14c-2.8,0.6-11.8,1.9-16.4,5.2c-3.9,2.4-4.2,5.5-2,8.2c1.3,2.8,10.6,10.4,17.7,14.2
		c0.3,2.3,0.6,6,2.8,6.8c0.9,0.2,1.7,0.2,2.8,0c0.3-0.4,0.9-0.2,1.1-0.8c0.8-0.9,0.4-2.4,0.8-3.3c10.6,3.2,24.6,2.2,33.9-3.3
		c4.9-3,8.8-7.9,9.5-13.3C208.5,397.9,198.8,386.8,193.2,382.1z M155,417.7c-4.1-1.7-12.5-6.1-16.1-10.8c-0.9-1.1-0.3-2,1.1-2.8
		c3.3-1.4,10.4-2.2,15.9-2.4L155,417.7z"/>
	<path fill="#171614" d="M110.1,410.6c-3.3,1-4.3,1.9-7.6,2.7c-0.9,0.4-1.9,0.2-1.7-0.9c0.2-5.8,2.4-10.9,3.5-16.4
		c0.3-1.7,0.6-2.5,0.6-3.3c-0.2-2.6-1.9-3.1-3-1.4c-3.5,3.9-5.2,11.9-6.3,18.6c-0.8,4.1-0.4,9.4,3.9,11.4c2.7,0.7,4.9,0,7.1-1.3
		c0.8-0.3,5.3-3.7,5.4-7.9C112,411.5,112,410,110.1,410.6z"/>
	<path fill="#171614" d="M86.6,389.3c-0.8,0.2-0.9,1.1-1.1,1.7c0,0.3-0.3,0.7-0.6,0.9c-4.5,4.9-6.9,10.1-9.5,15.6
		c-1.1,0-1.7,0.2-3.3-0.3c2.4-7.3,3.9-15.9,2.2-24.1c-2.2-9.8-6.9-19.6-16.2-24.1c-1.9-0.9-1.9,0-1.7,0.6c2.1,1.7,4,3.8,5.4,6
		c8.2,12.4,7.1,31,0.2,43.6c-3.1,5.5-6.3,8-10.2,9.6c-5,2.1-10.6-1.1-11-4.4c6.5-5.2,12.3-12.3,12.6-21.1c0.3-7.7-3-12.5-7.9-11.4
		c-14.2,3.5-15.9,17.3-12.3,32.8c-2.1,1.6-5.1,1.9-7.3,0.8c-3.5-1.8-4.1-5.9-4.3-9.6c0.2-15.1,5.4-27.9,16.6-38.6
		c0.7-0.6,0.9-1.4,0.3-2c-0.8-0.3-1.6-0.1-2.4,0.2c-18.4,10.6-21.2,31.5-21.4,32.8c-1,7.1-0.4,17,8,20.8c3.7,1.8,8.3,0.8,11.5-0.9
		c1.7,3,4.4,6.2,7.7,7.3c7.5,3.3,15-0.6,20.7-5.2c4.2-3.5,6.7-8.4,9.1-12.5c0.6,1.1,1.1,3,1.9,3.9c-1.6,3.5-2.8,7.2-1.3,10.4
		c0.9,1.7,3.8,2.2,4.7,0l3.2-8.5h8.4c0,2.1,0,4.9,0.8,6.3c2.4,3.5,4.3,3.2,4.4,1.1c0.7-7.1-1.7-23.7-4.3-30.4
		C89.2,389.3,88,388.5,86.6,389.3z M42.8,387.1c0.9-1.4,2-2.7,3.3-0.3c2.1,5.8,0.3,15.1-6.7,22.7C38.9,402.6,40,393.8,42.8,387.1z
		 M83.4,407.2c0.3-2.4,2.2-6.3,3.5-7.4c0.7,2.3,0.9,4.5,0.9,7.2C86.4,406.9,84.8,407.3,83.4,407.2z"/>
	<path fill="#171614" d="M293.9,415.2c-1.3-1.2-8,1.2-12.3,1.4c-0.2,0-0.4,0.2-0.2-0.3c0.7-1.8,1.1-3.9,2-5.5
		c1.3-0.6,9.5,0.4,10.6-0.9c0.2-1.1,0.6-3.5-0.6-3.3c-2.9-0.8-4.9-0.6-7.9-0.6c-0.9,0-0.6-0.3-0.6-0.3c0.4-1.3,0.8-2.7,1.3-3.8
		c3.8,0,7.7,0,11.2-0.8c1-0.2,1.9-0.8,1.8-2c-0.8-1.7-1.9-3.1-3.5-3.9c-2.2-0.8-19.2,0.8-19.5,2.4c-0.2,2.4,3,2.8,5,3.5
		c-0.7,1.7-1.1,3.4-2,4.9c-1,0.6-3,0.6-2.7,1.4c0.2,0.8,0.3,1.9,0.6,2.7c0.1,1.1-4,7.4-1.3,11.2c4.7,7.5,15.1,0.6,19-2.7
		C295.9,418,294.8,416.1,293.9,415.2z"/>
	<path fill="#171614" d="M264.9,390.7c-1.3-0.6-1.3,0.3-1.1,1.7c1.4,6.5,3.9,12.9,3.9,20c0,0.7,0,1.7-1.1,0.3
		c-4-5.3-6.7-11.2-10.8-15.5c-1-0.6-1.9-0.3-2.4,0.6c-2.4,3.9-4.8,14.2-3.9,22.2c0.3,2.3,1.7,3,3,3.2c1.1,0,1.8-1.1,2-2
		c0,0,0.9-13.1,0.9-14.5c0.2-1.1,0.6-0.8,0.6-0.8c3.3,5,3.7,8.2,8,13.4c3.3,3.7,5.8,1.4,6.3,0.9
		C276.7,414.9,272.6,394.7,264.9,390.7z"/>
	<path fill="#171614" d="M319.2,397.9c-5.9,3.8-10.5,9.8-14.9,15.5c-2.6-4.3,4-10.6,5.4-15.5c0.4-2.5,1.6-5.3-2.2-2
		c-0.6,0.6-2.8,2.8-4.4,5.8c-2.8,4.7-5.4,11.5-2.2,16.7c-1.9,5.1-3.5,10.3-4.9,15.5c-0.8,3.3-2.2,7.9-0.8,10.1
		c0.8,1.7,5.4,6,5.8,2.8c0,0,1-8.6,6-22.4c2.6,0,5.8-0.6,8-1.3c4.1-1.1,8.5-6.3,9.4-8.4C329.9,406.2,325,394.6,319.2,397.9z
		 M322.7,408.7c-0.8,2.4-3.9,7.5-11.8,8.4c1.3-3.3,8-13.4,10.6-14.2C323.1,402.1,323.5,406.5,322.7,408.7z"/>
	<path fill="#171614" d="M216.2,390.1c5.5-0.7,16.5-7.2,15.1-14.7c-0.6-3-5.8-3.4-6-3.2c-0.8-2.7-2.8-3.3-6.9-3
		c-7.5,0.8-13.2,6.5-14.3,9.9c-1.6,3-0.2,6.4,1.4,7.9c-0.7,3.8,1.1,5.2,2,4.9c1.6,0,1.6-1.9,1.9-2.2
		C211.9,390.4,213.8,390.3,216.2,390.1z M207.8,383.1c-0.9-1.3-0.8-2.8,0.3-4.1c1.3-2,4.9-4.4,8.4-4.1
		C216.5,374.9,211.3,377.9,207.8,383.1z M225.3,375.8c3,0,2.4,2.7,1.9,3.8c-1.1,2.3-4.1,4.1-6.5,5c-2,0.6-4.9,1.4-8.2,0.8
		C216,380.7,220.1,376,225.3,375.8z"/>
	<path fill="#171614" d="M214.1,395.5c-1.3-1-2.1-0.3-2.7,1.7c-1.4,7.9-1.7,16.1-0.9,24.3c0.2,2,6,3.1,6-0.6c0.2-2.1,0-14.5-0.6-20
		C216,398.8,215.2,396.4,214.1,395.5z"/>
	<path fill="#171614" d="M246.6,396.3c-5.9-2.3-25.3-2.3-27.2,6.1c-0.2,1.2-1.1,5,5,5.5c2.8,0.8,13.2-0.6,18.1,3.5
		c1.1,1,0.6,1.9-0.2,2.4c-3.3,2-9.3,3.9-16.7,2.8c-1.6-0.2-3-1.3-2.7-2.4c0.4-1.4,1.9-1.7,2.7-1.4c2.2,0,9.5,4.3,13.6,0.8
		c1.3-1.6-1.7-2.3-5.4-3.2c-1.1-0.2-7.8-1.9-11.5,1.1c-1.7,1.7-2.1,4.9,0.6,7.1c6.9,7.2,18.7,3.9,21.4,1.7c3.2-1.7,3-4.2,3.2-6.1
		c0.3-3-0.6-5.9-3.5-7.3c-5.1-2.3-12-1.6-18.8-2.7c-1.6-0.6-1-1.3,0.3-1.7c6.8-2.1,13.1-1.6,20.2-2.7
		C247.7,399.6,249.7,396.8,246.6,396.3z"/>
</g>
<path fill="#171614" d="M345.4,391.8c0-1.4,0.8-3,4.9-3v-0.9h-14.9v0.9c4.3,0,5,1.4,5,3V417c0,1.4-0.8,3.2-5,3.2v0.9h14.9v-0.9
	c-4.1,0-4.9-1.7-4.9-3.2V391.8L345.4,391.8z"/>
<path fill="#171614" d="M354.7,417c0,2.2-0.8,3.2-3.2,3.3v0.8h10.6v-0.8c-2.4-0.2-3.2-1.1-3.2-3.3v-13.3c1.3-1.9,3.8-3,5.8-3
	c3.3,0,3.5,3.3,3.5,5.8v10.4c0,2.2-0.8,3.2-3.2,3.3v0.8h10.6v-0.8c-2.4-0.2-3.2-1.1-3.2-3.3v-13.2c1.1-1.9,3-3,5.4-3
	c3.2,0,3.9,1.3,3.9,6.1v10.1c0,2.2-0.8,3.2-3.2,3.3v0.8h10.6v-0.8c-2.4-0.2-3.2-1.1-3.2-3.3v-9.3c0-4.4-0.3-9.5-6.3-9.5
	c-3,0-6,2-7.9,4.1c-0.6-2.2-2.7-4.1-5.2-4.1c-2.2,0-4.3,0.9-6,2.2c-0.8,0.6-1.9,2.2-1.9,0.9v-3.2l-7.4,2.7v0.8
	c2.7,0,3.3,0.6,3.2,3.3V417H354.7z"/>
<path fill="#171614" d="M406.4,406.4c0-6.1-1.7-8.4-7.1-8.4c-3.2,0-6.3,0.8-8,3.8c-1.1,1.9-0.6,3.9,1.7,3.9c1.1,0,2.2-1.1,2.2-2.2
	c0-1.3-0.2-2.2,0-3c0.6-0.9,2.2-1.3,3.3-1.3c3.2,0,3.5,1.9,3.5,7.3c-4.3,1.7-12.3,3.8-12.3,9.6c0,3,2.4,5.4,5.2,5.4
	c2.2,0,5-1.9,7.4-3.9c0,1.9,0.9,3.9,3.5,3.9c1.4,0,3.3-1.9,4.1-2.8v-1.3c-1.1,0.9-2,1.1-2.7,1.1c-0.8,0-1.1-0.6-1.1-1.4v-10.6H406.4
	z M402.1,416.3c-0.3,1.1-3.3,2.2-4.3,2.2c-2.4,0-3.5-2-3.5-4.1c0-4.7,4.7-5.4,7.9-6.8V416.3L402.1,416.3z"/>
<path fill="#171614" d="M416.3,420.9c2.4,0.6,5.4,0.6,7.6,0.8c3.2,0,6.8,0,6.8,2.7c0,2.8-3.8,4.7-9.6,4.7c-5.2,0-7.1-1.7-7.1-3.5
	C413.9,423.8,415.4,422.3,416.3,420.9L416.3,420.9z M416.5,404.2c0-2.7,0.9-4.9,3.9-4.9c3.5,0,5,5.2,5,8c0,2.4-0.9,4.9-3.8,4.9
	C417.6,412.2,416.5,407.4,416.5,404.2L416.5,404.2z M432.5,399.5c-6.5,0.9-7.1-1.4-11.4-1.4c-4.7,0-8.8,3.2-8.8,8
	c0,3.3,1.7,5.4,4.7,6.8c-2,1.4-4.4,3.5-4.4,5.5c0,1.3,1.4,2,2.7,2.7c-2.7,2.2-4.9,3.8-4.9,5.8c0,1.9,2.8,5,8.5,5
	c4.7,0,13.2-2.8,13.2-8.4c0-5.8-5.4-5.4-12.1-5.5c-0.9,0-3.8,0-4.4-1.1c-0.2-1.1,1.9-3.2,3-3.3c0.9,0,1.9,0.2,2.7,0.2
	c4.4,0,8.2-2.8,8.2-7.6c0-1.1-0.3-2.8-0.9-4.3h4.1v-2.1H432.5z"/>
<path fill="#171614" d="M439.3,391.9c1.3,0,2.7-1.1,2.7-2.7c0-1.4-1.3-2.7-2.7-2.7c-1.4,0-2.7,1.1-2.7,2.7
	C436.6,390.8,437.7,391.9,439.3,391.9L439.3,391.9z M437.4,417c0,2.2-0.8,3.2-3.8,3.3v0.8h12v-0.8c-3.2-0.2-3.9-1.1-3.9-3.3v-18.8
	l-8,2.7v0.8c3.2-0.9,3.8-0.6,3.8,3.3V417H437.4z"/>
<path fill="#171614" d="M450.4,417c0,2.2-0.8,3.2-3.2,3.3v0.8h10.6v-0.8c-2.4-0.2-3.2-1.1-3.2-3.3v-13.5c1.3-1.3,3.2-2.8,5.4-2.8
	c3.8,0,3.9,2.7,3.9,5.4v10.8c0,2.2-0.8,3.2-3.2,3.3v0.8h10.6v-0.8c-2.4-0.2-3.2-1.1-3.2-3.3v-10.8c0-5.4-2-8-6-8
	c-3.5,0-5.8,2-7.6,3.9v-3.9l-7.4,2.2v0.8c2.8-0.2,3.2-0.2,3.2,3.5V417H450.4z"/>
<path fill="#171614" d="M491.4,407.2c-0.2-5.2-3.5-9.1-9-9.1c-6.1,0-10.2,5-10.2,12.1c0,6,3.8,11.4,9.5,11.4c5,0,9-3.9,10.6-8.5
	l-0.9-0.2c-1.4,2.7-4.3,5.2-7.6,5.2c-5.5,0-8-6.1-8-10.8h15.5V407.2z M476,405.5c0.3-3.2,1.9-5.8,5.4-5.8c3.3,0,4.7,2.8,4.9,5.8H476
	L476,405.5z"/>
<path fill="#171614" d="M513.4,407.2c-0.2-5.2-3.5-9.1-9-9.1c-6.1,0-10.2,5-10.2,12.1c0,6,3.9,11.4,9.6,11.4c4.9,0,8.8-3.9,10.4-8.5
	l-0.9-0.2c-1.4,2.7-4.3,5.2-7.4,5.2c-5.8,0-8.2-6.1-8.2-10.8h15.6V407.2z M497.9,405.5c0.3-3.2,2-5.8,5.4-5.8c3.3,0,4.7,2.8,4.9,5.8
	H497.9L497.9,405.5z"/>
<path fill="#171614" d="M518.8,417c0,2.2-0.8,3.2-3.8,3.3v0.8h11.8v-0.8c-3-0.2-3.8-1.1-3.8-3.3v-12c0-1.4,2-3.9,3.2-3.9
	s1.4,1.9,3.3,1.9c0.9,0,1.9-0.6,2-1.7c0.2-2-0.9-3.2-2.8-3.2c-2.7,0-4.9,2.8-5.8,4.4v-4.4l-8,2.7v0.8c3-0.8,3.8-0.2,3.8,4.7V417
	L518.8,417z"/>
<path fill="#171614" d="M538.5,391.9c1.3,0,2.7-1.1,2.7-2.7c0-1.4-1.3-2.7-2.7-2.7c-1.4,0-2.7,1.1-2.7,2.7
	C535.9,390.8,537.1,391.9,538.5,391.9L538.5,391.9z M536.8,417c0,2.2-0.9,3.2-3.9,3.3v0.8h12v-0.8c-3.2-0.2-3.9-1.1-3.9-3.3v-18.8
	l-8,2.7v0.8c3.2-0.9,3.9-0.6,3.9,3.3V417H536.8z"/>
<path fill="#171614" d="M550.2,417c0,2.2-0.8,3.2-3.2,3.3v0.8h10.6v-0.8c-2.4-0.2-3.2-1.1-3.2-3.3v-13.5c1.3-1.3,3-2.8,5.4-2.8
	c3.5,0,3.9,2.7,3.9,5.4v10.8c0,2.2-0.8,3.2-3.2,3.3v0.8H571v-0.8c-2.2-0.2-3.2-1.1-3.2-3.3v-10.8c0-5.4-1.9-8-5.8-8
	c-3.5,0-6,2-7.7,3.9v-3.9l-7.4,2.2v0.8c2.8-0.2,3.2-0.2,3.2,3.5V417H550.2z"/>
<path fill="#171614" d="M577,420.9c2.4,0.6,5.4,0.6,7.7,0.8c3.3,0,6.8,0,6.8,2.7c0,2.8-3.8,4.7-9.6,4.7c-5.2,0-7.1-1.7-7.1-3.5
	C574.5,423.8,576,422.3,577,420.9L577,420.9z M577.3,404.2c0-2.7,0.9-4.9,3.9-4.9c3.3,0,4.9,5.2,4.9,8c0,2.4-0.8,4.9-3.8,4.9
	C578.4,412.2,577.3,407.4,577.3,404.2L577.3,404.2z M593.2,399.5c-6.5,0.9-6.9-1.4-11.4-1.4c-4.7,0-8.8,3.2-8.8,8
	c0,3.3,1.9,5.4,4.7,6.8c-1.9,1.4-4.4,3.5-4.4,5.5c0,1.3,1.7,2,2.8,2.7c-2.7,2.2-5,3.8-5,5.8c0,1.9,2.8,5,8.8,5
	c4.7,0,13.1-2.8,13.1-8.4c0-5.8-5.2-5.4-12-5.5c-1.1,0-3.9,0-4.4-1.1c-0.3-1.1,1.9-3.2,2.8-3.3c1.1,0,1.9,0.2,2.8,0.2
	c4.3,0,8-2.8,8-7.6c0-1.1-0.2-2.8-0.9-4.3h4.1L593.2,399.5L593.2,399.5z"/>
</svg>
