<?xml version="1.0" encoding="utf-8"?>
<!-- Generator: Adobe Illustrator 17.1.0, SVG Export Plug-In . SVG Version: 6.00 Build 0)  -->
<!DOCTYPE svg PUBLIC "-//W3C//DTD SVG 1.1//EN" "http://www.w3.org/Graphics/SVG/1.1/DTD/svg11.dtd">
<svg version="1.1" id="Layer_1" xmlns="http://www.w3.org/2000/svg" xmlns:xlink="http://www.w3.org/1999/xlink" x="0px" y="0px"
	 viewBox="0 0 403.4 84.4" enable-background="new 0 0 403.4 84.4" xml:space="preserve">
<g>
	<path d="M102.4,1c0.9,0,1.7,0.1,2.4,0.4c0.7,0.2,1.3,0.6,1.8,1.1c0.5,0.5,0.9,1.1,1.2,1.8c0.3,0.7,0.4,1.5,0.4,2.3
		c0,0.9-0.1,1.7-0.4,2.3c-0.3,0.7-0.7,1.3-1.2,1.8c-0.5,0.5-1.1,0.8-1.8,1.1c-0.7,0.2-1.5,0.4-2.4,0.4h-6.8v8.3h-1.9V1H102.4z
		 M102,10.5c1.3,0,2.3-0.3,3.1-1c0.8-0.7,1.2-1.7,1.2-3c0-1.3-0.4-2.3-1.2-3c-0.8-0.7-1.8-1-3.1-1h-6.4v7.9H102z"/>
	<path d="M119.8,1v19.4h-1.9V1H119.8z"/>
	<path d="M131.1,1l5.5,8.1l5.7-8.1h2.1l-6.6,9.5l7,10h-2.2l-5.9-8.6l-6,8.6h-2.1l7-10L128.9,1H131.1z"/>
	<path d="M155.2,1v17.9h10.9v1.6h-12.7V1H155.2z"/>
	<path d="M183.8,1c0.8,0,1.6,0.1,2.3,0.3c0.7,0.2,1.3,0.5,1.9,0.9c0.5,0.4,1,0.9,1.3,1.6c0.3,0.6,0.5,1.4,0.5,2.3
		c0,1.2-0.3,2.3-1,3.2c-0.6,0.9-1.6,1.5-2.8,1.7v0.1c0.6,0.1,1.2,0.3,1.6,0.5c0.4,0.2,0.8,0.6,1,0.9c0.3,0.4,0.5,0.8,0.6,1.3
		c0.1,0.5,0.2,1,0.2,1.6c0,0.3,0,0.7,0.1,1.2c0,0.5,0.1,0.9,0.1,1.4c0.1,0.5,0.1,0.9,0.3,1.4c0.1,0.4,0.3,0.8,0.5,1h-2
		c-0.1-0.2-0.2-0.4-0.3-0.7c-0.1-0.3-0.1-0.5-0.1-0.8c0-0.3-0.1-0.6-0.1-0.8c0-0.3,0-0.5-0.1-0.7c0-0.7-0.1-1.4-0.2-2.1
		c-0.1-0.7-0.3-1.3-0.5-1.8c-0.3-0.5-0.6-1-1.1-1.3c-0.5-0.3-1.2-0.5-2.1-0.4h-7v8.6h-1.9V1H183.8z M183.6,10.2
		c0.6,0,1.1-0.1,1.6-0.3c0.5-0.2,1-0.4,1.3-0.7c0.4-0.3,0.7-0.7,0.9-1.2c0.2-0.5,0.3-1,0.3-1.6c0-1.2-0.3-2.1-1-2.8
		c-0.7-0.7-1.7-1-3.2-1h-6.9v7.7H183.6z"/>
</g>
<g>
	<path d="M139.9,54.6c0,15.5-9.8,28.5-26.1,28.5s-26.1-13-26.1-28.5c0-15.5,9.8-28.5,26.1-28.5S139.9,39,139.9,54.6z M97.3,54.6
		c0,10.4,4.9,20.7,16.5,20.7s16.5-10.3,16.5-20.7s-4.9-20.7-16.5-20.7S97.3,44.1,97.3,54.6z"/>
	<path d="M146.5,50.4h22.2v8.2h-22.2V50.4z"/>
	<path d="M177,27.4h13.4l15,42.6h0.2l14.6-42.6h13.3v54.4h-9.1v-42h-0.2l-15.1,42h-7.8l-15.1-42h-0.2v42H177V27.4z"/>
	<path d="M260.5,27.4h10.1l21,54.4h-10.2l-5.1-14.4h-21.7l-5.1,14.4h-9.8L260.5,27.4z M257.1,60.1h16.6l-8.2-23.4h-0.2L257.1,60.1z"
		/>
	<path d="M285.6,27.4h44v8.2h-17.3v46.2h-9.5V35.6h-17.2V27.4z"/>
	<path d="M336.9,27.4h9.5v54.4h-9.5V27.4z"/>
	<path d="M393.8,44.7c-1.6-6.2-5.6-10.8-13.6-10.8c-11.7,0-16.5,10.3-16.5,20.7s4.9,20.7,16.5,20.7c8.5,0,13.1-6.3,13.9-14.2h9.3
		c-0.8,13-10,22-23.2,22c-16.3,0-26.1-13-26.1-28.5c0-15.5,9.8-28.5,26.1-28.5c12.3,0.1,21.9,6.9,23.1,18.6H393.8z"/>
</g>
<g>
	<path fill="#B2B3B2" d="M37.1,6.3c20.5,0,37.1,16.6,37.1,37.1c0,9.8-3.8,18.7-10,25.3l0.2-0.1c1.7,3.4,13.2,14.3,13.2,14.3
		c-16.2,1-25.1-5.2-25.6-5.5c-4.6,2-9.6,3.1-15,3.1C16.6,80.5,0,63.9,0,43.4C0,22.9,16.6,6.3,37.1,6.3z"/>
	<path fill="#EDF5F7" d="M38.8,4.6C59.3,4.6,76,21.2,76,41.7c0,9.8-3.8,18.7-10,25.3l0.2-0.1c1.7,3.4,13.2,14.3,13.2,14.3
		c-16.2,1-25.1-5.2-25.6-5.5c-4.6,2-9.6,3.1-15,3.1c-20.5,0-37.1-16.6-37.1-37.1S18.3,4.6,38.8,4.6z"/>
	<circle fill="#808080" cx="38.8" cy="41.7" r="28.6"/>
	<g>
		<defs>
			<circle id="SVGID_1_" cx="38.8" cy="41.7" r="26.1"/>
		</defs>
		<clipPath id="SVGID_2_">
			<use xlink:href="#SVGID_1_"  overflow="visible"/>
		</clipPath>
		<g clip-path="url(#SVGID_2_)">
			
				<linearGradient id="SVGID_3_" gradientUnits="userSpaceOnUse" x1="-1166.7723" y1="625.9467" x2="-1190.2029" y2="580.5787" gradientTransform="matrix(-0.4367 -0.8996 -0.8996 0.4367 75.1489 -1302.6759)">
				<stop  offset="0" style="stop-color:#11A9BA;stop-opacity:0.8"/>
				<stop  offset="1" style="stop-color:#FFFFFF"/>
			</linearGradient>
			<path fill="url(#SVGID_3_)" d="M54.8,33.3L13.4,32c0,0-1.2-18,28.5-23.3C41.9,8.7,59.6,10.9,54.8,33.3z"/>
			
				<linearGradient id="SVGID_4_" gradientUnits="userSpaceOnUse" x1="50.8962" y1="6.5898" x2="70.9131" y2="45.3086" gradientTransform="matrix(-1 0 0 1 85.4017 0)">
				<stop  offset="0" style="stop-color:#FFFFFF"/>
				<stop  offset="1" style="stop-color:#12A8AC"/>
			</linearGradient>
			<path fill="url(#SVGID_4_)" d="M40.2,22.1L20.9,58.8c0,0-16.7-6.8-8.6-35.8C12.4,23,22.1,8,40.2,22.1z"/>
			
				<linearGradient id="SVGID_5_" gradientUnits="userSpaceOnUse" x1="90.2311" y1="-1187.9728" x2="115.1478" y2="-1139.4639" gradientTransform="matrix(-0.5498 0.8353 0.8353 0.5498 1048.3512 602.4499)">
				<stop  offset="0" style="stop-color:#FFFFFF"/>
				<stop  offset="1" style="stop-color:#1FA69B"/>
			</linearGradient>
			<path fill="url(#SVGID_5_)" d="M24.2,31.4l20,36.2c0,0-14.8,10.3-34.6-12.5C9.6,55.1,2.4,38.8,24.2,31.4z"/>
			
				<linearGradient id="SVGID_6_" gradientUnits="userSpaceOnUse" x1="-2118.6282" y1="-1332.0651" x2="-2095.4172" y2="-1289.4923" gradientTransform="matrix(0.9998 -1.783328e-02 -1.783328e-02 -0.9998 2135.6389 -1287.4103)">
				<stop  offset="0" style="stop-color:#FFFFFF"/>
				<stop  offset="1" style="stop-color:#8BC07F"/>
			</linearGradient>
			<path fill="url(#SVGID_6_)" d="M39.4,60.3l18.6-37c0,0,16.8,6.5,9.2,35.7C67.2,59,57.7,74.1,39.4,60.3z"/>
			
				<linearGradient id="SVGID_7_" gradientUnits="userSpaceOnUse" x1="35.3568" y1="35.9075" x2="53.2212" y2="69.3255" gradientTransform="matrix(-1 0 0 1 85.4017 0)">
				<stop  offset="0" style="stop-color:#FFFFFF"/>
				<stop  offset="1" style="stop-color:#8ABC50"/>
			</linearGradient>
			<path fill="url(#SVGID_7_)" d="M22,49.2l22.8,0.4l-5,9.9c6.2,4.7,11.4,6,15.5,5.8c-4.2,3.4-10.5,6.5-20,8.4
				C35.3,73.6,17.5,71.7,22,49.2z"/>
			
				<linearGradient id="SVGID_8_" gradientUnits="userSpaceOnUse" x1="14.9761" y1="10.5055" x2="34.0736" y2="45.1881" gradientTransform="matrix(-1 0 0 1 85.4017 0)">
				<stop  offset="0" style="stop-color:#FFFFFF"/>
				<stop  offset="1" style="stop-color:#8BC07F"/>
			</linearGradient>
			<path fill="url(#SVGID_8_)" d="M55.2,32c1.6-7.6,0.7-12.8-1.3-16.5c4.6,2.2,9.8,6.2,15.3,12.8c0,0,6.8,16.5-15.1,23.3L43.7,31.7
				L55.2,32z"/>
			
				<linearGradient id="SVGID_9_" gradientUnits="userSpaceOnUse" x1="47.5291" y1="28.7706" x2="33.0431" y2="0.7218" gradientTransform="matrix(-1 0 0 1 85.4017 0)">
				<stop  offset="0" style="stop-color:#11A9BA;stop-opacity:0.8"/>
				<stop  offset="1" style="stop-color:#FFFFFF"/>
			</linearGradient>
			<path fill="url(#SVGID_9_)" d="M40.2,22.1c-6.6-5.1-12-6.4-16.3-6c4.2-3.1,10.4-5.9,19.4-7.5c0,0,17.7,2.2,12.9,24.6l-21.4-0.7
				L40.2,22.1z"/>
		</g>
	</g>
	
		<linearGradient id="SVGID_10_" gradientUnits="userSpaceOnUse" x1="32.5225" y1="33.3922" x2="52.3356" y2="45.1295" gradientTransform="matrix(-1 0 0 1 85.4017 0)">
		<stop  offset="0" style="stop-color:#FFFFFF"/>
		<stop  offset="1" style="stop-color:#F1F1F2;stop-opacity:0"/>
	</linearGradient>
	<circle opacity="0.5" fill="url(#SVGID_10_)" cx="38.8" cy="41.7" r="19"/>
	<path fill="#F1F1F2" d="M42.7,34.7c0.7,2,3,4.3,5.1,5.1c2.1,0.8,3.8-0.9,3.8-3.7S49.3,31,46.5,31S42,32.7,42.7,34.7z"/>
</g>
</svg>
