<?xml version="1.0" encoding="utf-8"?>
<!-- Generator: Adobe Illustrator 18.1.1, SVG Export Plug-In . SVG Version: 6.00 Build 0)  -->
<svg version="1.1" id="Layer_1" xmlns="http://www.w3.org/2000/svg" xmlns:xlink="http://www.w3.org/1999/xlink" x="0px" y="0px"
	 viewBox="0 0 227.3 49.1" enable-background="new 0 0 227.3 49.1" xml:space="preserve">
<g>
	<path d="M16.8,15.7c-2.9,0-4.6,2.2-5.3,6.7c0.8,0,1.2-0.1,1.5-0.1h7.1c0.9,0,1.3-0.4,1.3-1.3C21.4,18.9,19.9,15.7,16.8,15.7
		 M27.2,37.4c-0.1,0.9-1,0.9-2.5,1.4c-1.8,0.5-4.4,1.2-6.6,1.2c-6.1,0-13.5-4-13.5-13c0-5.2,3.7-12.5,12.8-12.5
		c5.5,0,10.8,3.9,10.8,8.6c0,0.6-0.5,0.9-1.6,0.9H12.7c-0.4,0-1.5-0.4-1.5,1.5c0,10.3,3.3,13.4,7,13.4c1.9,0,4.3-1.3,6.4-4.5
		l2.1-3.2c0.3-0.5,0.4-0.6,0.6-0.6l0.7,0.1c0.1,0,0.2,0.3,0.1,0.6L27.2,37.4z"/>
	<path d="M49.2,17.8c-1.2-0.9-2.8-1.6-5-1.6c-3.5,0-6.7,2.8-6.7,11.9c0,5.1,1.9,10.3,6.6,10.3c1.8,0,5.1-0.2,5.1-6.3V17.8z
		 M57.7,0.8l-1.9,0.4c-0.9,0.2-1.3,0.5-1.3,1.8v36.2c0,0.4-0.2,0.6-0.5,0.6c-0.2,0-0.6-0.2-1.2-0.8C52.2,38.5,52,38,51.2,38
		c-1.6,0-2.2,1.6-8,1.6c-5.3,0-12.4-3.8-12.4-12.9c0-5.2,3.6-11.9,12.5-11.9c1.5,0,3.2-0.1,5.9,1.3V4.1c0-2.2-0.9-3.2-2.7-3.2h-1.1
		c-0.2,0-0.2-0.1-0.2-0.4c0-0.3,0.1-0.5,0.2-0.5h12C57.8,0,58,0.1,58,0.4C58,0.5,57.9,0.8,57.7,0.8"/>
	<path d="M73.2,39.3h-1.3c-6.1,0-10.6-4.6-10.6-9.6V17.2c0-0.6-0.2-1.2-0.7-1.6c-0.5-0.4-1.1-0.6-1.6-0.6h-0.5
		c-0.7,0-1.1-0.2-1.1-0.5c0-0.4,0.5-0.5,1.4-0.5l4.8,0.1l5.9-0.2c0.4,0,0.5,0.1,0.5,0.4c0,0.3-0.1,0.5-0.4,0.5l-1.5,0.2
		c-0.7,0.1-1.1,0.8-1.1,2.2v12.9c0,5,1.4,8.1,5.4,8.1c4,0,5.5-3.2,5.5-8.1V17.2c0-1.3-0.4-2.1-1.1-2.2l-1.5-0.2
		c-0.3-0.1-0.4-0.2-0.4-0.5c0-0.2,0.2-0.4,0.5-0.4l5.9,0.2l4.8-0.1c0.9,0,1.3,0.2,1.3,0.5c0,0.4-0.4,0.5-1,0.5h-0.5
		c-0.6,0-1.1,0.2-1.6,0.6c-0.5,0.4-0.7,0.9-0.7,1.6v12.5C83.9,34.7,79.3,39.3,73.2,39.3"/>
	<path d="M117.6,22c-0.2,0-0.5-0.2-0.6-0.4l-0.5-1.1l-2.5-3.5c-1.1-1.5-1.5-1.9-2.6-1.8l-3.8,0.2c-0.4,0-0.6,0.2-0.6,0.7v17.9
		c0,3.6,0.4,3.9,3.1,3.9c0.9,0,1.1,0.1,1.1,0.4l-0.1,0.5c0,0.2-0.5,0.1-0.9,0.1H98c-0.5,0-0.9,0.1-0.9-0.1v-0.5
		c0-0.2,0.2-0.3,1.1-0.4c2.6-0.4,3-0.9,3-2.8V16.9c0-1.1-0.4-1.6-1.1-1.6h-2.2c-2.2,0-2.9,0.3-3.3,0.9l-3.9,5.7
		c-0.1,0.2-0.4,0.3-0.5,0.3c-0.3,0-0.5-0.3-0.5-0.6c0-0.5,0.2-1,0.5-3.8c0.4-3.2,0.7-3.8,1.8-3.8c2.5,0,3.3,0.2,4.7,0.2l6.4,0.1
		c3.9,0.1,8.2-0.5,13-0.5c0.7,0,0.9,0.3,1.1,1.3l0.4,2.3c0.2,1.3,0.4,2.3,0.5,2.8c0.2,0.4,0.2,0.6,0.2,0.9
		C118.1,21.8,118,22,117.6,22"/>
	<path d="M134,14.8c-4,0-6.7,4.2-6.7,11.6c0,7.6,2.7,11.8,6.7,11.8c4,0,6.7-4.2,6.7-11.8C140.7,19,138,14.8,134,14.8 M134,39.5
		c-8.9,0-13.6-6.4-13.6-13.1c0-6.6,4.7-12.8,13.6-12.8c8.9,0,13.6,6.2,13.6,12.8C147.6,33,142.9,39.5,134,39.5"/>
	<path d="M160.7,15.1h-2.5c-0.4,0-0.5,0.5-0.5,1v17.2c0,3.2,1.4,4.9,5.2,4.9c4,0,6.7-4.2,6.7-11.8C169.6,19,167.3,15.1,160.7,15.1
		 M162.9,39.3c-1.9,0-4.3-0.6-4.7-0.6c-0.2,0-0.4,0.2-0.4,0.7v6.9c0,0.6,0.1,1.3,2.4,1.3h0.8c0.6,0,1,0.2,1,0.5
		c0,0.5-0.6,0.8-1.7,0.8l-6.6-0.2l-5.5,0.2c-0.5,0-0.8-0.2-0.8-0.6c0-0.2,0.6-0.3,1.8-0.5l1.9-0.2c0.6-0.1,0.9-0.2,0.9-2.9v-28
		c0-0.9-0.9-1.3-2.6-1.3h-0.7c-0.6,0-0.9-0.2-0.9-0.5c0-0.4,0.5-0.6,1.5-0.6H161c10.6,0,15.5,5.9,15.5,12.2
		C176.5,32.8,171.9,39.3,162.9,39.3"/>
	<path d="M191.4,15h-1c-1.2,0-2.7,0-2.7,3.2v16.6c0,2.8,1.1,3.2,2.7,3.2h1c0.2,0,0.2,0.1,0.2,0.4c0,0.3,0,0.5-0.2,0.5H178
		c-0.2,0-0.2-0.2-0.2-0.5c0-0.3,0.1-0.4,0.2-0.4h1c1.6,0,2.7-0.5,2.7-3.2V18.2c0-3.2-1.5-3.2-2.7-3.2h-1c-0.2,0-0.3-0.1-0.3-0.4
		c0-0.4,0.1-0.5,0.2-0.5h13.4c0.2,0,0.2,0.2,0.2,0.5C191.6,14.8,191.5,15,191.4,15"/>
	<path d="M213.6,26.1c0-6.4-1.9-10.5-7.2-10.5c-3.5,0-6.6,3.3-6.6,11.3s3.1,11.3,6.6,11.3c3.7,0,7.2-3.2,7.2-5.8V26.1z M219.4,39.2
		c-3.3,0-4.7-2.5-5.2-4c-0.8,1.6-4,4.3-7.7,4.3c-7.5,0-13.4-4.8-13.4-12.5c0-5.2,3.8-12.5,13.6-12.5c5.8,0,13,3.6,13,14v5.4
		c0,1.6,0.2,2.8,1.5,2.8c1.9,0,2.3-2.5,2.8-2.5c0.4,0,0.5,0.4,0.5,0.6C224.6,36,223.1,39.2,219.4,39.2"/>
</g>
</svg>
