<?xml version="1.0" encoding="utf-8"?>
<!-- Generator: Adobe Illustrator 18.0.0, SVG Export Plug-In . SVG Version: 6.00 Build 0)  -->
<!DOCTYPE svg PUBLIC "-//W3C//DTD SVG 1.1//EN" "http://www.w3.org/Graphics/SVG/1.1/DTD/svg11.dtd">
<svg version="1.1" id="Layer_1" xmlns="http://www.w3.org/2000/svg" xmlns:xlink="http://www.w3.org/1999/xlink" x="0px" y="0px"
	 viewBox="0 0 1440 1280" enable-background="new 0 0 1440 1280" xml:space="preserve">
<path d="M1286.8,0H157c-38.5,0-69.4,31-69.4,70.4v1129.9c0,38.5,31,70.4,70.4,70.4H766V777.9H599.9V586.5H765V444.8
	c0-164.2,100.4-253.4,246.8-253.4c70.4,0,130.4,5.6,148.3,7.5v171.7h-101.3c-79.8,0-94.8,37.5-94.8,92.9v122h188.6L1128.2,777H963
	v491.7h323.8c38.5,0,70.4-31,70.4-70.4V70.4C1357.2,31,1325.3,0,1286.8,0z"/>
</svg>
