<?xml version="1.0" encoding="utf-8"?>
<!-- Generator: Adobe Illustrator 21.1.0, SVG Export Plug-In . SVG Version: 6.00 Build 0)  -->
<svg version="1.1" id="Layer_1" xmlns="http://www.w3.org/2000/svg" xmlns:xlink="http://www.w3.org/1999/xlink" x="0px" y="0px"
	 viewBox="0 0 372 372" style="enable-background:new 0 0 372 372;" xml:space="preserve">
<path d="M186,367.5C86,367.5,4.5,286.6,4.5,186C4.5,85.9,86,4.5,186,4.5S367.5,85.9,367.5,186C367.5,286.5,286.1,367.5,186,367.5
	 M186,13C90.5,13,13,90.4,13,185.9s77.5,172.9,173,172.9s172.9-77.4,172.9-172.9C359,91,281.5,13,186,13z M339.8,237.7
	c-0.1,0.2-0.4,0.4-0.9,0.2c-0.4-0.2-0.6-0.4-0.6-0.7c0-0.3,6.1-18.2,6.1-38.7c-0.1-22.2-9.1-35.7-20.6-35.7c-7,0-12.1,5.1-12.1,12.6
	c0,13.6,16.6,14.6,16.6,44.3c0,12.1-2.5,23.6-6.5,36.2c-18.6,62.8-78,92-135.7,92c-26.6,0-45.6-5.5-51.2-8c-0.2-0.1-0.4-0.6-0.2-1
	c0.1-0.3,0.5-0.6,0.8-0.5c2.2,0.9,18.5,6.1,38.6,6.1c22.2,0,35.2-9.1,35.2-20.1c0-7-5.5-12.6-12.6-12.6c-13.6,0-14.6,17.1-43.7,17.1
	c-12.6,0-23.6-2.5-36.7-6.5c-62.4-19.1-92-78-92-136.2c0-28.4,8-51,8.1-51.2c0.1-0.2,0.5-0.3,0.9-0.2c0.5,0.2,0.6,0.6,0.5,0.7
	c-0.8,2.3-6,18.5-6,38.6c0,22.2,9.1,35.2,20.6,35.2c6.5,0,12.1-5,12.1-12.1c0-13.6-16.6-15.1-16.6-44.3c0-12.6,2.5-23.6,6.5-36.7
	c19.1-62.4,78-91.6,135.7-92c26.8-0.2,50.4,7.8,51.2,8.6c0.2,0.1,0.3,0.5,0.2,0.9c-0.2,0.5-0.5,0.5-0.7,0.5
	c-0.3,0-15.6-6.4-38.7-6.4c-21.7,0-35.2,9.1-35.2,20.6c0,6.5,5,12,12.6,12c13.6,0,14.5-16.6,43.7-16.6c12.6,0,23.6,2.5,36.7,6.5
	c62.8,19.1,91.4,78.5,92,135.7C348.2,215.4,339.9,237.5,339.8,237.7z M253.4,194.5c-17.1,0-30.2,12.6-30.2,27.6
	c0,12.6,7.5,22.6,17.6,22.6c3.5,0,7-2,7-6.5c0-6.5-8.7-8.1-8-18c0.4-6.4,6.5-10.7,12.5-10.7c12.1,0,17.7,11.7,17.7,23.7
	c-0.5,18.6-14.1,31.5-30.2,31.5c-21.1,0-34.7-20.1-34.7-41.8c0-32.2,21.1-44.8,32.2-47.8c0.1,0,28.9,5.2,28-7.6
	c-0.4-5.6-8.7-7.7-14.7-8c-6.7-0.3-13.4,2.1-13.4,2.1c-3.5-1.8-6-5.3-7.4-9.3c20.6-15.6,35.2-30.6,35.2-47.7
	c0-9.1-6.1-17.1-17.6-17.1c-20.6,0-36.2,26.2-36.2,49.8c0,4,0,8,1,11.6c-13.1,9.6-22.8,15.5-40.4,26.1c0-2.2,0.5-7.9,2-15.2
	c6.1-6.5,14.3-16.4,14.3-23.9c0-3.5-2-6.5-6.1-6.5c-10.1,0-17.6,15.1-19.6,25.7c-4.5,5.6-13.6,12.6-21.1,12.6c-6,0-8-5.6-8.6-7.5
	c19.1-6.5,42.7-32.7,42.7-56.3c0-5-2-16.1-17.1-16.1c-22.6,0-41.8,33.7-41.8,59.8c-8.1,0-11-8.6-11-15c0-6.5,2.5-13.1,2.5-15.1
	c0-2-1-4.5-4-4.5c-7.5,0-12.1,10.1-12.1,21.6c0.5,16.1,11,26.2,25.2,27.1c2,9.6,10.5,18.6,21.1,18.6c6.5,0,14.5-2,20.1-7
	c-0.5,3.5-1,6.5-1.6,9.6c-22.2,11.6-38.2,19.6-52.8,32.7C92.5,226,86,240.1,86,251.2c0,15.1,9.6,29.2,29.2,29.2
	c23.1,0,40.7-18.6,49.3-44.2c4-12.1,5.7-29.7,6.6-45.8c23.1-13.1,34.1-20.7,46.2-29.2c1.5,2.5,3,4.5,5.1,6.1
	c-10.5,5.6-35.7,21.1-35.7,57.9c0,26.2,17.6,55.3,52.3,55.3c28.7,0,48.3-23.6,48.3-46.3C287.1,213.6,275.5,194.5,253.4,194.5z
	 M115.2,264.9c-7.5,0.4-12.6-4.5-12.6-12.5c0-21.7,30-42.3,52.6-53.3C151.2,229.2,140.9,263.8,115.2,264.9z M131.7,146.3
	c0-16.6,16.4-48.1,26.3-44.8C169.9,105.4,148.3,137.2,131.7,146.3z M226.8,138.7c0-20.6,14-40.7,21.6-36.9
	C257,106.2,241.8,125.6,226.8,138.7z"/>
</svg>
